<?xml version="1.0" encoding="utf-8"?>
<!-- Generator: Adobe Illustrator 23.0.1, SVG Export Plug-In . SVG Version: 6.00 Build 0)  -->
<svg version="1.1" id="Layer_1" xmlns="http://www.w3.org/2000/svg" xmlns:xlink="http://www.w3.org/1999/xlink" x="0px" y="0px"
	 viewBox="0 0 2084 1020" style="enable-background:new 0 0 2084 1020;" xml:space="preserve">
<style type="text/css">
	.st0{fill:#FFFFFF;stroke:#000000;stroke-width:1.0022;stroke-miterlimit:10;}
	.st1{fill:#E1C87D;}
	.st2{fill:#C79A12;}
	.st3{fill:#FFFFFF;}
	.st4{font-family:'ArialMT';}
	.st5{font-size:26.7989px;}
	.st6{fill:none;stroke:#000000;stroke-width:4;stroke-miterlimit:10;}
	.st7{fill:#202020;}
	.st8{fill:#5A9AD4;}
	.st9{fill:#9CBDDA;}
	.st10{fill:#91B0CE;}
	.st11{fill:#8DAFCE;}
	.st12{fill:#A0B7CD;}
	.st13{fill:#94B59D;}
	.st14{fill:#9DB7B2;}
	.st15{fill:#030507;}
	.st16{fill:#5B9AD4;}
	.st17{fill:#5A9BD4;}
	.st18{fill:#5D9CD4;}
	.st19{fill:#5D9BD4;}
	.st20{fill:#6FAD46;}
	.st21{font-size:31.723px;}
	.st22{font-size:41.5465px;}
	.st23{font-size:31.4332px;}
	.st24{font-size:25.6815px;}
	.st25{font-size:26.3184px;}
	.st26{font-size:27.5924px;}
	.st27{fill:#151C25;stroke:#151C25;stroke-width:1.0498;stroke-miterlimit:10;}
	.st28{fill:#151C25;stroke:#151C25;stroke-width:1.0547;stroke-miterlimit:10;}
	.st29{font-size:25.2891px;}
	.st30{fill:#3075B4;}
	.st31{stroke:#000000;stroke-width:2;stroke-miterlimit:10;}
	.st32{fill:#8CABC8;}
	.st33{fill:#8CACC8;}
	.st34{fill:#769CBE;}
	.st35{fill:#2E74B4;}
	.st36{fill:#789DBF;}
	.st37{font-size:25.5934px;}
	.st38{font-size:24.5693px;}
	.st39{fill:#C3CAD2;}
	.st40{fill:#95B0B6;}
	.st41{fill:#9CB0B6;}
	.st42{fill:#528035;}
	.st43{font-size:37.9898px;}
	.st44{font-size:33.8384px;}
	.st45{fill:#0B1118;}
	.st46{fill:#2A2F35;}
	.st47{font-size:34.5169px;}
</style>
<rect x="-0.1" y="0" class="st0" width="2084" height="1020"/>
<g>
	<path d="M944,53.3l4.3-0.4c0.2,1.7,0.7,3.1,1.4,4.2c0.7,1.1,1.9,2,3.5,2.7c1.6,0.7,3.3,1,5.3,1c1.7,0,3.3-0.3,4.6-0.8
		c1.3-0.5,2.3-1.2,3-2.1c0.6-0.9,1-1.9,1-2.9c0-1.1-0.3-2-0.9-2.8c-0.6-0.8-1.7-1.5-3.1-2c-0.9-0.4-3-0.9-6.1-1.7
		c-3.2-0.8-5.4-1.5-6.6-2.1c-1.6-0.9-2.9-1.9-3.7-3.2c-0.8-1.3-1.2-2.7-1.2-4.3c0-1.7,0.5-3.3,1.5-4.9c1-1.5,2.4-2.6,4.3-3.4
		c1.9-0.8,4-1.2,6.3-1.2c2.5,0,4.8,0.4,6.7,1.2c1.9,0.8,3.4,2,4.5,3.6c1,1.6,1.6,3.4,1.7,5.4l-4.4,0.3c-0.2-2.2-1-3.8-2.4-4.9
		c-1.3-1.1-3.3-1.7-6-1.7c-2.7,0-4.7,0.5-6,1.5c-1.3,1-1.9,2.2-1.9,3.6c0,1.2,0.4,2.2,1.3,3c0.9,0.8,3.2,1.6,6.8,2.4
		c3.7,0.8,6.2,1.6,7.6,2.2c2,0.9,3.5,2.1,4.4,3.5c1,1.4,1.4,3,1.4,4.9c0,1.8-0.5,3.5-1.6,5.2c-1,1.6-2.5,2.9-4.5,3.8
		c-2,0.9-4.2,1.3-6.6,1.3c-3.1,0-5.7-0.5-7.8-1.4c-2.1-0.9-3.7-2.3-4.9-4.1S944.1,55.6,944,53.3z"/>
	<path d="M986.2,60.6l0.6,3.7c-1.2,0.2-2.2,0.4-3.2,0.4c-1.5,0-2.7-0.2-3.6-0.7c-0.8-0.5-1.4-1.1-1.8-1.9c-0.3-0.8-0.5-2.4-0.5-5
		V42.8h-3.1v-3.3h3.1v-6.2l4.2-2.5v8.7h4.2v3.3h-4.2v14.5c0,1.2,0.1,2,0.2,2.3c0.1,0.3,0.4,0.6,0.7,0.8c0.3,0.2,0.8,0.3,1.4,0.3
		C984.8,60.8,985.4,60.7,986.2,60.6z"/>
	<path d="M1006.5,61.3c-1.6,1.3-3.1,2.3-4.5,2.8c-1.4,0.5-3,0.8-4.6,0.8c-2.7,0-4.8-0.7-6.3-2s-2.2-3-2.2-5.1c0-1.2,0.3-2.3,0.8-3.3
		s1.3-1.8,2.2-2.4c0.9-0.6,1.9-1.1,3-1.4c0.8-0.2,2.1-0.4,3.7-0.6c3.4-0.4,5.9-0.9,7.5-1.5c0-0.6,0-0.9,0-1.1c0-1.7-0.4-2.9-1.2-3.6
		c-1.1-1-2.7-1.4-4.8-1.4c-2,0-3.4,0.3-4.4,1c-0.9,0.7-1.6,1.9-2.1,3.7l-4.1-0.6c0.4-1.8,1-3.2,1.8-4.3c0.9-1.1,2.1-1.9,3.7-2.5
		s3.5-0.9,5.6-0.9c2.1,0,3.8,0.2,5.2,0.7c1.3,0.5,2.3,1.1,2.9,1.9c0.6,0.8,1.1,1.7,1.3,2.9c0.1,0.7,0.2,2,0.2,3.9V54
		c0,3.9,0.1,6.4,0.3,7.4c0.2,1,0.5,2,1.1,3h-4.4C1006.9,63.5,1006.6,62.5,1006.5,61.3z M1006.2,51.9c-1.5,0.6-3.8,1.2-6.9,1.6
		c-1.7,0.2-3,0.5-3.7,0.8c-0.7,0.3-1.3,0.8-1.7,1.4c-0.4,0.6-0.6,1.3-0.6,2c0,1.1,0.4,2.1,1.3,2.8c0.9,0.7,2.1,1.1,3.7,1.1
		c1.6,0,3.1-0.4,4.3-1.1c1.3-0.7,2.2-1.7,2.8-2.9c0.5-1,0.7-2.4,0.7-4.2V51.9z"/>
	<path d="M1016.2,66.4l4.1,0.6c0.2,1.3,0.6,2.2,1.4,2.8c1,0.8,2.5,1.2,4.3,1.2c1.9,0,3.5-0.4,4.5-1.2c1.1-0.8,1.8-1.9,2.2-3.3
		c0.2-0.9,0.3-2.7,0.3-5.4c-1.8,2.2-4.1,3.3-6.9,3.3c-3.4,0-6.1-1.2-7.9-3.7s-2.8-5.4-2.8-8.9c0-2.4,0.4-4.6,1.3-6.6
		s2.1-3.6,3.7-4.6s3.5-1.6,5.7-1.6c2.9,0,5.4,1.2,7.3,3.6v-3h3.9V61c0,3.9-0.4,6.6-1.2,8.2c-0.8,1.6-2,2.9-3.7,3.8s-3.8,1.4-6.3,1.4
		c-3,0-5.4-0.7-7.2-2C1017,71.1,1016.1,69.1,1016.2,66.4z M1019.7,51.5c0,3.3,0.6,5.6,1.9,7.1c1.3,1.5,2.9,2.2,4.9,2.2
		c1.9,0,3.6-0.7,4.9-2.2c1.3-1.5,2-3.8,2-7c0-3-0.7-5.3-2-6.9c-1.3-1.5-3-2.3-4.9-2.3c-1.9,0-3.5,0.8-4.8,2.3
		C1020.3,46.2,1019.7,48.5,1019.7,51.5z"/>
	<path d="M1060.6,56.4l4.4,0.5c-0.7,2.5-2,4.5-3.8,5.9c-1.9,1.4-4.2,2.1-7.1,2.1c-3.6,0-6.5-1.1-8.6-3.4c-2.1-2.2-3.2-5.4-3.2-9.4
		c0-4.2,1.1-7.4,3.2-9.7c2.2-2.3,4.9-3.5,8.4-3.5c3.3,0,6,1.1,8.1,3.4s3.2,5.4,3.2,9.5c0,0.2,0,0.6,0,1.1h-18.5
		c0.2,2.7,0.9,4.8,2.3,6.3c1.4,1.5,3.1,2.2,5.2,2.2c1.5,0,2.9-0.4,4-1.2C1059.1,59.4,1060,58.1,1060.6,56.4z M1046.8,49.6h13.9
		c-0.2-2.1-0.7-3.7-1.6-4.7c-1.3-1.6-3.1-2.4-5.2-2.4c-1.9,0-3.6,0.6-4.9,1.9S1046.9,47.4,1046.8,49.6z"/>
	<path d="M1098.3,64.4h-4.2V37.5c-1,1-2.3,1.9-4,2.9c-1.6,1-3.1,1.7-4.4,2.2v-4.1c2.4-1.1,4.4-2.4,6.2-4s3-3.1,3.7-4.6h2.7V64.4z"/>
	<path d="M895.5,109.8l4.5,1.1c-1,3.7-2.7,6.6-5.1,8.5c-2.5,2-5.5,2.9-9.1,2.9c-3.7,0-6.7-0.8-9-2.3s-4.1-3.7-5.3-6.5
		c-1.2-2.9-1.8-5.9-1.8-9.2c0-3.6,0.7-6.7,2-9.3c1.4-2.7,3.3-4.7,5.8-6.1c2.5-1.4,5.3-2.1,8.3-2.1c3.4,0,6.3,0.9,8.7,2.6
		s4,4.2,4.9,7.4L895,98c-0.8-2.5-2-4.3-3.5-5.5c-1.5-1.1-3.4-1.7-5.7-1.7c-2.6,0-4.8,0.6-6.6,1.9s-3,3-3.7,5.1
		c-0.7,2.1-1.1,4.3-1.1,6.6c0,2.9,0.4,5.5,1.3,7.6c0.9,2.2,2.2,3.8,4,4.9c1.8,1.1,3.7,1.6,5.8,1.6c2.5,0,4.7-0.7,6.5-2.2
		S894.8,112.7,895.5,109.8z"/>
	<path d="M903.5,109.4c0-4.6,1.3-8,3.8-10.2c2.1-1.8,4.7-2.8,7.8-2.8c3.4,0,6.2,1.1,8.4,3.4c2.2,2.2,3.3,5.3,3.3,9.3
		c0,3.2-0.5,5.7-1.4,7.5c-1,1.8-2.4,3.3-4.2,4.3c-1.8,1-3.8,1.5-6,1.5c-3.5,0-6.3-1.1-8.4-3.3C904.6,116.9,903.5,113.6,903.5,109.4z
		 M907.8,109.4c0,3.2,0.7,5.6,2.1,7.1c1.4,1.6,3.1,2.4,5.2,2.4c2.1,0,3.8-0.8,5.2-2.4c1.4-1.6,2.1-4,2.1-7.3c0-3.1-0.7-5.4-2.1-7
		c-1.4-1.6-3.1-2.4-5.2-2.4c-2.1,0-3.9,0.8-5.2,2.4C908.5,103.9,907.8,106.3,907.8,109.4z"/>
	<path d="M931.7,121.9V97h3.8v3.5c1.8-2.7,4.5-4.1,7.9-4.1c1.5,0,2.9,0.3,4.1,0.8c1.3,0.5,2.2,1.2,2.8,2.1c0.6,0.9,1.1,1.9,1.3,3.1
		c0.2,0.8,0.2,2.1,0.2,4.1v15.3h-4.2v-15.1c0-1.7-0.2-3-0.5-3.8c-0.3-0.9-0.9-1.5-1.7-2c-0.8-0.5-1.8-0.8-2.9-0.8
		c-1.8,0-3.3,0.6-4.6,1.7c-1.3,1.1-2,3.3-2,6.5v13.6H931.7z"/>
	<path d="M956.7,114.4l4.2-0.7c0.2,1.7,0.9,2.9,2,3.8c1.1,0.9,2.6,1.3,4.5,1.3c1.9,0,3.4-0.4,4.3-1.2c0.9-0.8,1.4-1.7,1.4-2.8
		c0-1-0.4-1.7-1.2-2.2c-0.6-0.4-2-0.9-4.3-1.4c-3.1-0.8-5.2-1.5-6.4-2c-1.2-0.6-2.1-1.4-2.7-2.4c-0.6-1-0.9-2.1-0.9-3.3
		c0-1.1,0.3-2.1,0.8-3.1c0.5-0.9,1.2-1.7,2.1-2.4c0.7-0.5,1.5-0.9,2.7-1.2c1.1-0.3,2.3-0.5,3.6-0.5c1.9,0,3.7,0.3,5.1,0.8
		c1.5,0.6,2.6,1.3,3.3,2.3c0.7,1,1.2,2.2,1.5,3.8l-4.1,0.6c-0.2-1.3-0.7-2.3-1.6-3c-0.9-0.7-2.2-1.1-3.8-1.1c-1.9,0-3.3,0.3-4.1,1
		c-0.8,0.6-1.2,1.4-1.2,2.2c0,0.5,0.2,1,0.5,1.5c0.3,0.5,0.9,0.8,1.6,1.1c0.4,0.2,1.7,0.5,3.7,1.1c3,0.8,5.1,1.4,6.2,2
		c1.2,0.5,2.1,1.2,2.8,2.2c0.7,1,1,2.2,1,3.6c0,1.4-0.4,2.7-1.2,4c-0.8,1.2-2,2.2-3.5,2.9c-1.5,0.7-3.3,1-5.2,1
		c-3.2,0-5.7-0.7-7.4-2C958.2,119.1,957.1,117.1,956.7,114.4z"/>
	<path d="M980.8,109.4c0-4.6,1.3-8,3.8-10.2c2.1-1.8,4.7-2.8,7.8-2.8c3.4,0,6.2,1.1,8.4,3.4c2.2,2.2,3.3,5.3,3.3,9.3
		c0,3.2-0.5,5.7-1.4,7.5c-1,1.8-2.4,3.3-4.2,4.3c-1.8,1-3.8,1.5-6,1.5c-3.5,0-6.3-1.1-8.4-3.3C981.8,116.9,980.8,113.6,980.8,109.4z
		 M985.1,109.4c0,3.2,0.7,5.6,2.1,7.1c1.4,1.6,3.1,2.4,5.2,2.4c2.1,0,3.8-0.8,5.2-2.4c1.4-1.6,2.1-4,2.1-7.3c0-3.1-0.7-5.4-2.1-7
		c-1.4-1.6-3.1-2.4-5.2-2.4c-2.1,0-3.9,0.8-5.2,2.4C985.8,103.9,985.1,106.3,985.1,109.4z"/>
	<path d="M1008.9,121.9V87.6h4.2v34.3H1008.9z"/>
	<path d="M1019.6,92.4v-4.8h4.2v4.8H1019.6z M1019.6,121.9V97h4.2v24.8H1019.6z"/>
	<path d="M1046.4,121.9v-3.1c-1.6,2.5-3.9,3.7-6.9,3.7c-2,0-3.8-0.5-5.5-1.6c-1.7-1.1-2.9-2.6-3.9-4.6c-0.9-2-1.4-4.2-1.4-6.8
		c0-2.5,0.4-4.7,1.2-6.8c0.8-2,2.1-3.6,3.7-4.6s3.5-1.6,5.5-1.6c1.5,0,2.8,0.3,4,0.9s2.1,1.5,2.9,2.5V87.6h4.2v34.3H1046.4z
		 M1033.1,109.5c0,3.2,0.7,5.6,2,7.1c1.3,1.6,2.9,2.4,4.7,2.4c1.8,0,3.4-0.8,4.7-2.3s1.9-3.8,1.9-6.9c0-3.4-0.7-5.9-2-7.5
		c-1.3-1.6-2.9-2.4-4.8-2.4c-1.9,0-3.4,0.8-4.7,2.3C1033.7,103.8,1033.1,106.2,1033.1,109.5z"/>
	<path d="M1073.1,118.8c-1.6,1.3-3.1,2.3-4.5,2.8c-1.4,0.5-3,0.8-4.6,0.8c-2.7,0-4.8-0.7-6.3-2s-2.2-3-2.2-5.1
		c0-1.2,0.3-2.3,0.8-3.3c0.6-1,1.3-1.8,2.2-2.4c0.9-0.6,1.9-1.1,3-1.4c0.8-0.2,2.1-0.4,3.7-0.6c3.4-0.4,5.9-0.9,7.5-1.5
		c0-0.6,0-0.9,0-1.1c0-1.7-0.4-2.9-1.2-3.6c-1.1-1-2.7-1.4-4.8-1.4c-2,0-3.4,0.3-4.4,1c-0.9,0.7-1.6,1.9-2.1,3.7l-4.1-0.6
		c0.4-1.8,1-3.2,1.8-4.3c0.9-1.1,2.1-1.9,3.7-2.5s3.5-0.9,5.6-0.9c2.1,0,3.8,0.2,5.2,0.7c1.3,0.5,2.3,1.1,2.9,1.9
		c0.6,0.8,1.1,1.7,1.3,2.9c0.1,0.7,0.2,2,0.2,3.9v5.6c0,3.9,0.1,6.4,0.3,7.4c0.2,1,0.5,2,1.1,3h-4.4
		C1073.5,121,1073.3,120,1073.1,118.8z M1072.8,109.4c-1.5,0.6-3.8,1.2-6.9,1.6c-1.7,0.2-3,0.5-3.7,0.8c-0.7,0.3-1.3,0.8-1.7,1.4
		s-0.6,1.3-0.6,2c0,1.1,0.4,2.1,1.3,2.8c0.9,0.7,2.1,1.1,3.7,1.1c1.6,0,3.1-0.4,4.3-1.1c1.3-0.7,2.2-1.7,2.8-2.9
		c0.5-1,0.7-2.4,0.7-4.2V109.4z"/>
	<path d="M1092.8,118.1l0.6,3.7c-1.2,0.2-2.2,0.4-3.2,0.4c-1.5,0-2.7-0.2-3.6-0.7c-0.8-0.5-1.4-1.1-1.8-1.9c-0.3-0.8-0.5-2.4-0.5-5
		v-14.3h-3.1V97h3.1v-6.2l4.2-2.5V97h4.2v3.3h-4.2v14.5c0,1.2,0.1,2,0.2,2.3c0.1,0.3,0.4,0.6,0.7,0.8c0.3,0.2,0.8,0.3,1.4,0.3
		C1091.4,118.3,1092,118.2,1092.8,118.1z"/>
	<path d="M1096.9,92.4v-4.8h4.2v4.8H1096.9z M1096.9,121.9V97h4.2v24.8H1096.9z"/>
	<path d="M1106,109.4c0-4.6,1.3-8,3.8-10.2c2.1-1.8,4.7-2.8,7.8-2.8c3.4,0,6.2,1.1,8.4,3.4c2.2,2.2,3.3,5.3,3.3,9.3
		c0,3.2-0.5,5.7-1.4,7.5c-1,1.8-2.4,3.3-4.2,4.3c-1.8,1-3.8,1.5-6,1.5c-3.5,0-6.3-1.1-8.4-3.3C1107,116.9,1106,113.6,1106,109.4z
		 M1110.3,109.4c0,3.2,0.7,5.6,2.1,7.1c1.4,1.6,3.1,2.4,5.2,2.4c2.1,0,3.8-0.8,5.2-2.4c1.4-1.6,2.1-4,2.1-7.3c0-3.1-0.7-5.4-2.1-7
		c-1.4-1.6-3.1-2.4-5.2-2.4c-2.1,0-3.9,0.8-5.2,2.4C1111,103.9,1110.3,106.3,1110.3,109.4z"/>
	<path d="M1134.2,121.9V97h3.8v3.5c1.8-2.7,4.5-4.1,7.9-4.1c1.5,0,2.9,0.3,4.1,0.8c1.3,0.5,2.2,1.2,2.8,2.1c0.6,0.9,1.1,1.9,1.3,3.1
		c0.2,0.8,0.2,2.1,0.2,4.1v15.3h-4.2v-15.1c0-1.7-0.2-3-0.5-3.8c-0.3-0.9-0.9-1.5-1.7-2c-0.8-0.5-1.8-0.8-2.9-0.8
		c-1.8,0-3.3,0.6-4.6,1.7c-1.3,1.1-2,3.3-2,6.5v13.6H1134.2z"/>
	<path d="M1159.1,114.4l4.2-0.7c0.2,1.7,0.9,2.9,2,3.8s2.6,1.3,4.5,1.3c1.9,0,3.4-0.4,4.3-1.2c0.9-0.8,1.4-1.7,1.4-2.8
		c0-1-0.4-1.7-1.2-2.2c-0.6-0.4-2-0.9-4.3-1.4c-3.1-0.8-5.2-1.5-6.4-2c-1.2-0.6-2.1-1.4-2.7-2.4c-0.6-1-0.9-2.1-0.9-3.3
		c0-1.1,0.3-2.1,0.8-3.1c0.5-0.9,1.2-1.7,2.1-2.4c0.7-0.5,1.5-0.9,2.7-1.2c1.1-0.3,2.3-0.5,3.6-0.5c1.9,0,3.7,0.3,5.1,0.8
		c1.5,0.6,2.6,1.3,3.3,2.3c0.7,1,1.2,2.2,1.5,3.8l-4.1,0.6c-0.2-1.3-0.7-2.3-1.6-3c-0.9-0.7-2.2-1.1-3.8-1.1c-1.9,0-3.3,0.3-4.1,1
		c-0.8,0.6-1.2,1.4-1.2,2.2c0,0.5,0.2,1,0.5,1.5c0.3,0.5,0.9,0.8,1.6,1.1c0.4,0.2,1.7,0.5,3.7,1.1c3,0.8,5.1,1.4,6.2,2
		c1.2,0.5,2.1,1.2,2.8,2.2c0.7,1,1,2.2,1,3.6c0,1.4-0.4,2.7-1.2,4c-0.8,1.2-2,2.2-3.5,2.9c-1.5,0.7-3.3,1-5.2,1
		c-3.2,0-5.7-0.7-7.4-2C1160.7,119.1,1159.6,117.1,1159.1,114.4z"/>
	<path d="M864.6,168.3l4.3-0.4c0.2,1.7,0.7,3.1,1.4,4.2c0.7,1.1,1.9,2,3.5,2.7c1.6,0.7,3.3,1,5.3,1c1.7,0,3.3-0.3,4.6-0.8
		c1.3-0.5,2.3-1.2,3-2.1c0.6-0.9,1-1.9,1-2.9c0-1.1-0.3-2-0.9-2.8c-0.6-0.8-1.7-1.5-3.1-2c-0.9-0.4-3-0.9-6.1-1.7
		c-3.2-0.8-5.4-1.5-6.6-2.1c-1.6-0.9-2.9-1.9-3.7-3.2c-0.8-1.3-1.2-2.7-1.2-4.3c0-1.7,0.5-3.3,1.5-4.9c1-1.5,2.4-2.6,4.3-3.4
		c1.9-0.8,4-1.2,6.3-1.2c2.5,0,4.8,0.4,6.7,1.2c1.9,0.8,3.4,2,4.5,3.6c1,1.6,1.6,3.4,1.7,5.4l-4.4,0.3c-0.2-2.2-1-3.8-2.4-4.9
		c-1.3-1.1-3.3-1.7-6-1.7c-2.7,0-4.7,0.5-6,1.5c-1.3,1-1.9,2.2-1.9,3.6c0,1.2,0.4,2.2,1.3,3c0.9,0.8,3.2,1.6,6.8,2.4
		c3.7,0.8,6.2,1.6,7.6,2.2c2,0.9,3.5,2.1,4.4,3.5c1,1.4,1.4,3,1.4,4.9c0,1.8-0.5,3.5-1.6,5.2c-1,1.6-2.5,2.9-4.5,3.8
		c-2,0.9-4.2,1.3-6.6,1.3c-3.1,0-5.7-0.5-7.8-1.4c-2.1-0.9-3.7-2.3-4.9-4.1S864.6,170.6,864.6,168.3z"/>
	<path d="M894.3,179.4l13.2-34.3h4.9l14,34.3h-5.2l-4-10.4h-14.3l-3.8,10.4H894.3z M904.2,165.3h11.6l-3.6-9.5
		c-1.1-2.9-1.9-5.3-2.4-7.1c-0.4,2.2-1.1,4.4-1.8,6.6L904.2,165.3z"/>
	<path d="M930.1,179.4v-34.3H943c2.3,0,4,0.1,5.2,0.3c1.7,0.3,3.1,0.8,4.2,1.6c1.1,0.8,2.1,1.9,2.7,3.3c0.7,1.4,1,3,1,4.7
		c0,2.9-0.9,5.4-2.8,7.4c-1.9,2-5.2,3-10.1,3h-8.8v13.9H930.1z M934.6,161.4h8.9c2.9,0,5-0.5,6.2-1.6c1.2-1.1,1.8-2.6,1.8-4.6
		c0-1.4-0.4-2.7-1.1-3.7c-0.7-1-1.7-1.7-2.9-2c-0.8-0.2-2.2-0.3-4.2-0.3h-8.8V161.4z"/>
	<path d="M974.6,179.4v-34.3h4.5v14.1H997v-14.1h4.5v34.3H997v-16.2h-17.8v16.2H974.6z"/>
	<path d="M1005.3,179.4l13.2-34.3h4.9l14,34.3h-5.2l-4-10.4h-14.3l-3.8,10.4H1005.3z M1015.2,165.3h11.6l-3.6-9.5
		c-1.1-2.9-1.9-5.3-2.4-7.1c-0.4,2.2-1.1,4.4-1.8,6.6L1015.2,165.3z"/>
	<path d="M1041,179.4v-34.3h4.7l18,26.9v-26.9h4.4v34.3h-4.7l-18-27v27H1041z"/>
	<path d="M1071.9,179.4l13.2-34.3h4.9l14,34.3h-5.2l-4-10.4h-14.3l-3.8,10.4H1071.9z M1081.8,165.3h11.6l-3.6-9.5
		c-1.1-2.9-1.9-5.3-2.4-7.1c-0.4,2.2-1.1,4.4-1.8,6.6L1081.8,165.3z"/>
	<path d="M1116.7,168.3l4.3-0.4c0.2,1.7,0.7,3.1,1.4,4.2c0.7,1.1,1.9,2,3.5,2.7c1.6,0.7,3.3,1,5.3,1c1.7,0,3.3-0.3,4.6-0.8
		c1.3-0.5,2.3-1.2,3-2.1c0.6-0.9,1-1.9,1-2.9c0-1.1-0.3-2-0.9-2.8s-1.7-1.5-3.1-2c-0.9-0.4-3-0.9-6.1-1.7c-3.2-0.8-5.4-1.5-6.6-2.1
		c-1.6-0.9-2.9-1.9-3.7-3.2c-0.8-1.3-1.2-2.7-1.2-4.3c0-1.7,0.5-3.3,1.5-4.9c1-1.5,2.4-2.6,4.3-3.4c1.9-0.8,4-1.2,6.3-1.2
		c2.5,0,4.8,0.4,6.7,1.2c1.9,0.8,3.4,2,4.5,3.6c1,1.6,1.6,3.4,1.7,5.4l-4.4,0.3c-0.2-2.2-1-3.8-2.4-4.9c-1.3-1.1-3.3-1.7-6-1.7
		c-2.7,0-4.7,0.5-6,1.5s-1.9,2.2-1.9,3.6c0,1.2,0.4,2.2,1.3,3c0.9,0.8,3.2,1.6,6.8,2.4c3.7,0.8,6.2,1.6,7.6,2.2
		c2,0.9,3.5,2.1,4.4,3.5c1,1.4,1.4,3,1.4,4.9c0,1.8-0.5,3.5-1.6,5.2c-1,1.6-2.5,2.9-4.5,3.8c-2,0.9-4.2,1.3-6.6,1.3
		c-3.1,0-5.7-0.5-7.8-1.4c-2.1-0.9-3.7-2.3-4.9-4.1S1116.8,170.6,1116.7,168.3z"/>
	<path d="M1146.5,180l9.9-35.5h3.4l-9.9,35.5H1146.5z"/>
	<path d="M1175.3,179.4v-8.2h-14.9v-3.9l15.7-22.2h3.4v22.2h4.6v3.9h-4.6v8.2H1175.3z M1175.3,167.3v-15.5l-10.7,15.5H1175.3z"/>
	<g id="Stage_1">
		<ellipse class="st1" cx="891.3" cy="877" rx="53" ry="51.7"/>
		<ellipse class="st2" cx="891.3" cy="877" rx="48.9" ry="48.1"/>
		<text transform="matrix(1 0 0 1 856.2506 868.0702)"><tspan x="0" y="0" class="st3 st4 st5">Stage</tspan><tspan x="27.6" y="32.2" class="st3 st4 st5">1</tspan></text>
	</g>
	<line class="st6" x1="875.9" y1="540.7" x2="922.3" y2="540.4"/>
	<g>
		<line class="st6" x1="878" y1="539.4" x2="878" y2="445"/>
	</g>
	<g>
		<path d="M876.8,447.8c-25.1,0.2-50.2,0.3-75.4,0.5"/>
		<g>
			<polygon class="st7" points="835.1,428.6 818.3,438.4 801.5,448.2 818.4,457.9 835.3,467.5 835.2,450.9 840.1,450.8 876.9,450.6 
				876.8,445 840.1,445.2 835.2,445.2 			"/>
		</g>
	</g>
	<g id="BPC">
		<path class="st8" d="M1199.9,563.2c0-17.7-0.1-35.4-0.1-53.1c0-80.9,0-161.8,0-242.8c0-15,9.6-24.7,24.6-24.7
			c154,0,307.9,0,461.9,0c0.7,0,1.3,0,2,0.1c95.2,0,190.5,0,285.7,0c9.9,0,18.2,3.3,23,12.8c1.6,3.1,2.1,6.2,2.1,9.6
			c0,72.3,0,144.6,0,216.8c0,143.6,0,287.1,0,430.7c0,13.8-9.3,23.1-23.1,23.1c-250.9,0-501.9,0-752.8,0.1
			c-11.4,0-23-10.5-22.9-22.8c0.2-29.4,0.1-58.8,0.1-88.1c0-6.5,0.4-6.8,6.7-6.8c52.6,0,105.2,0,157.9,0c8.3,0,7.2,1.2,7.3-7.5
			c0-3.2-0.1-6.3,0.1-9.5c1.4-2.3,3.7-1.9,5.8-1.9c7.1-0.1,14.3,0,21.4,0c5.2,0,5.6-0.5,5.6-5.8c0-29.7,0-59.3,0-89
			c0-1.7,0-3.3,0.1-5c0.2-3.7,1.7-6.1,5.7-6.2c4.2,0,4.3-2.1,2.8-5.1c-2.2-4.1-4.1-8.3-6.3-12.5c-0.8-1.5-1.7-2.9-1.1-4.7
			c1.1-1.6,2.7-1,4.1-1c12.3,0.3,24.6,0.1,36.9-0.1c15.3-0.3,30.6,0.8,45.8-0.2c6.7-0.4,13.6,0.7,20.4,0.3
			c6.6-0.3,13.1-1.2,18.9-5.2c2.9-2,4.2-5.1,6.5-7.4c2.3-3.8,3.3-7.8,3.3-12.3c-0.1-51.9,0-103.8-0.1-155.7
			c0-15.3-9.9-25.6-25.1-25.6c-74.3-0.1-148.5-0.1-222.8,0c-10.9,0-19.8,3.8-24.2,14.8c-0.2,0.6-0.4,1.2-0.8,1.7
			c-1.5,2.3-1.1,4.8-1.1,7.3c0,22.8,0,45.6,0,68.4c0,2.3,0.2,4.7-0.3,7c-1,2.8-3.1,1.9-4.9,1.2c-3-1.3-6.1-2.3-9-3.8
			c-0.5-0.2-1-0.5-1.4-0.8c-1.1-1.1-2.4-1.6-3.8-2.3c-4.3-2-4.9-1.7-5.6,3c-0.5,3.6-2.6,5.4-6,5.4c-11.5,0.1-23.1,0.5-34.6-0.2
			C1201.4,564.9,1200.4,564.3,1199.9,563.2z"/>
		<path class="st9" d="M1372.8,800.6c0,4-0.4,8,0,12c0.4,4.7-1.1,6.2-6,6.2c-42-0.2-83.9-0.1-125.9-0.1c-11.5,0-23,0.1-34.5-0.1
			c-3.8-0.1-4.8,1.2-4.8,4.9c0.1,30.2,0.2,60.4,0,90.6c-0.1,11.4,10.4,20.7,20.9,20.7c37.8,0,75.6,0,113.4,0
			c212.8,0,425.6,0,638.4,0c6.9,0,13.1-1.5,18.1-6.8c3.9-4.1,5.7-8.7,5.7-14.3c0-67.3,0-134.5,0-201.8c0-148.7,0-297.5,0.1-446.2
			c0-8.9-4.1-15.2-11.1-19.1c-4.1-2.2-9.2-3.1-14.3-3.1c-92.7,0.1-185.5,0.1-278.2,0c-2,0-4.4,0.9-6.1-1c1.7-1.3,3.8-1,5.8-1
			c93.7,0,187.5,0.1,281.2-0.1c14.5,0,25,11.8,25,25c-0.3,215.7-0.2,431.3-0.2,647c0,13.1-10.1,23.3-23.2,23.3
			c-251.4,0-502.8,0-754.3,0c-12.8,0-23.8-11-23.8-23.9c0-29.7,0-59.4,0-89.1c0-6.2,0.2-6.3,6.6-6.3c53.3,0,106.6,0,159.8,0
			c6.4,0,6.4,0,6.4-6.6c0-7.8-0.2-15.7,0.1-23.5c0.2-4.5-1-6-5.7-5.9c-33.3,0.2-66.6,0.1-99.9,0.1c-20,0-40,0-59.9,0
			c-6.9,0-7.4-0.5-7.4-7.4c0-66.3-0.1-132.5,0.1-198.8c0-5,0.1-8.8,2.4-7.1c2.7,2.7,2,6.2,2,9.5c0,43.9,0,87.7,0,131.6
			c0,19.5,0,39,0,58.5c0,10,0,10,9.8,10c49.4,0,98.8,0,148.2,0c12.5,0,12.9,0.4,12.9,12.9c0,2,0.1,4-0.2,6
			C1374,798.2,1373.7,799.5,1372.8,800.6z"/>
		<path class="st10" d="M1614.3,764.4c0-24.9,0-49.7,0-74.6c0-8.8,4.5-14.2,13.1-16.3c8.6-2.1,17-4.8,25.6-6.6
			c5.1-1.1,10.5-2,15.5-2c10.7-0.2,21.1-2,31.7-2.7c23.6-1.6,47.1-2.4,70.7-1.5c17.7,0.6,35.4,0.9,53,3.3c8.2,1.1,16.7,1.7,25,2.7
			c8.4,1,16.8,3.1,24.9,5.9c5.4,1.8,11.1,3,14.9,7.9c1.4,1.8,2.4,3.3,2.4,5.7c-0.1,52.6-0.1,105.1,0,157.7c0,4.3-2.7,6.4-5.4,8.4
			c-6,4.5-13.2,6.3-20.5,7.6c-5.3,0.9-10.6,2.4-15.9,3.5c-3.6,0.7-7.4,0.5-10.7,1.6c-11.1,3.7-22.8-0.3-33.8,3.6
			c-1.3,0.5-3,0.1-4.5,0.2c-18,0.6-36.1,0.4-54.1,0.5c-14.4,0.1-29,0.8-43.3-0.7c-19.3-2.1-38.9-2.4-57.9-7.1
			c-8.4-2.1-17.4-3-24.9-8.4c-3.7-2.7-5.9-5.4-5.9-10C1614.4,816.8,1614.3,790.6,1614.3,764.4z"/>
		<path class="st11" d="M1571.4,564.8c0-18.5,0.2-37.1-0.1-55.6c-0.1-5.5,0.4-11.4-3.1-16.2c-4.1-5.6-8.8-10.5-16.4-10.8
			c-1.6-0.1-3.8,0.3-3.9-2c0-1.9,1.7-2.7,3.4-3c7.9-1,14-4.9,17.6-12.1c2.5-4.9,2.3-10.3,2.3-15.5c0.2-36.4,0.2-72.8,0-109.2
			c0-8.8,2.5-16.6,8.5-22.7c4.3-4.4,10.3-7.1,16.5-8.6c1.1-0.3,2,0,2.6,1c0.7,1.4-0.3,2.2-1.3,2.9c-0.6,0.5-1.5,0.8-2.3,0.9
			c-14,2-19.9,13-19.9,26.5c0.1,37.7,0.2,75.4-0.1,113.2c-0.1,10.1-4,18.7-13.6,23.6c-2.9,1.5-2.9,2.8-0.3,4.6
			c10.5,7,14.3,16.9,14.1,29.4c-0.4,35.9-0.2,71.8-0.1,107.7c0,5.9,0.5,11.7,4.4,16.9c4,5.4,9,8.6,15.5,9.7c1.5,0.2,3.4,0.3,3.4,2.1
			c0,2-2,1.7-3.5,1.8c-4.1,0.4-7.2-1.7-10.4-3.9c-9.6-6.5-13.8-15.6-13.6-27.1C1571.6,600.5,1571.4,582.6,1571.4,564.8z"/>
		<path class="st12" d="M1933.1,394.5c0,19.2-0.1,38.4,0.1,57.6c0,4.7,0.5,9.5,3.1,13.9c3.8,6.4,9.1,10.4,16.6,11.2
			c1.8,0.2,3.6,1,3.8,2.7c0.2,2-2.2,1.9-3.4,2.1c-12.5,1.4-20.2,13.3-20.2,25.1c0.1,37.2-0.1,74.4,0.1,111.6
			c0.1,14.6-6.5,24.2-19.4,30c-1,0.5-2.2,0.8-3.4,0.8c-1.6,0-4.1,0.8-4.4-1.2c-0.3-2.4,2.3-1.5,3.7-1.8c9.9-2.2,19.5-11.2,19.5-22.2
			c-0.2-37.5-0.2-75.1,0-112.6c0-8.5,1.2-16.8,7.4-23.6c2.2-2.4,4.6-4.3,7.3-5.9c2.4-1.5,2.6-3.4,0.3-4.5
			c-12.7-6.6-14.8-18.3-14.9-30.7c-0.2-36.9-0.1-73.8-0.1-110.6c0-11.6-6.8-20-18.1-22.2c-0.2,0-0.3,0-0.5-0.1
			c-1.6-0.7-4.4-0.8-3.8-3c0.5-2,3.4-1.3,4.9-0.7c7.9,2.8,14.3,7.4,18.3,15c2.2,4.2,3,8.7,3,13.4
			C1933.1,357.1,1933.1,375.8,1933.1,394.5z"/>
		<path class="st13" d="M1539.4,658.4c-7.8,13.4-20.9,13-33.8,13c-12.3,0-24.7,0.4-37-0.1c-12.8-0.5-25.6,0.6-38.5-0.4
			c-5.8-0.5-11.8,0.4-17.8,0.5c-2,0-4,0-5.9-0.8c-0.9,0.8-2,1.2-3.2,1.3c-7.7,1.1-15.5,1.1-23.3,1c-17.6-0.3-35.1-0.2-52.7,0.1
			c-11.1,0.2-22.2-0.7-33.3-0.2c-4.6,0.2-9.1-1.3-13.3-3.5c-2.1-2.8-5.3-4.4-7.8-6.9c-0.3-0.5-0.6-1-0.9-1.6
			c-3.5-4.5-4.9-9.5-4.9-15.3c0.2-24.7-0.3-49.3,0.2-74c0.5-28.8,0.1-57.7,0.3-86.5c0-2-0.2-4,1-5.8l0,0c1.3-2.9,2.6-5.7,4.9-7.9
			c1.1-1.1,3-3.1,3.6,0.6c-6.1,8-6,17.2-6,26.6c0.2,47.7,0.1,95.4,0.1,143.1c0,4.4,0.4,8.6,2.3,12.7c3,6.3,7.8,10.3,14.8,11.2
			c2.8,0.4,5.6,0.4,8.5,0.4c71.9,0,143.8,0,215.7,0c3.7,0,7.3-0.4,10.9-0.8c6.5-0.8,10.5-4.7,12.7-10.6c1.7-4.5,2.7-9.2,2.7-14.2
			c-0.1-49.4,0-98.8,0-148.1c0-3.4-0.3-6.6-1.3-9.9c-0.7-2.3-1.6-4.8-0.1-7.3c4.3,1.7,3.9,6,4.9,9.5c0.6,2,0.1,4.3,0.1,6.5
			c0,50.3-0.1,100.7,0.1,151C1542.6,647.8,1541.5,653.1,1539.4,658.4z"/>
		<path class="st14" d="M1539.4,658.4c4.6-57,0.8-114.1,2-171.2c0.1-4.5-1-8.6-4.2-11.9c-1.1,0-2-0.5-2.7-1.2
			c-6.2-6-13.7-7.4-22-7.4c-70.7,0.1-141.4,0.1-212.1,0.1c-7.2,0-14.3,0-20.9,3.5c-0.9,0.5-1.9,0.6-2.8-0.1c-4.4,1.4-5,6.3-8,9
			c1.4-7.8,9.9-15.1,17.5-16.2c8.3-1.1,16.6-0.8,24.9-0.8c68.1,0,136.1,0,204.2,0c5,0,9.9,0.3,14.4,2.9c8.4,4.7,13.7,11.8,13.7,21.5
			c0.2,53.7,0.1,107.4,0.1,161.2C1543.5,651.8,1542.2,655.4,1539.4,658.4z"/>
		<path class="st15" d="M1403.8,670.7c0.9,0,1.8,0,2.7,0c2.9,5.7,5.7,11.5,8.6,17.2c3,6,2.7,6.8-3.9,6.7c-4.1-0.1-4.6,1.9-4.6,5.2
			c0.1,31.3,0,62.7,0,94c0,6.9-0.1,7-7,6.9c-9,0-18-0.1-26.9-0.2c0-1,0-2,0-3c1.8-1.7,4-1.5,6.1-1.5c5.2-0.1,10.3,0,15.5,0
			c7.3,0,7.7-0.3,7.7-7.5c0-15.8,0-31.7,0-47.5c0-12.8-0.1-25.7,0-38.5c0-4.1-0.9-6.7-5.7-6.7c-3,0-5.7-1.6-4.4-4.9
			c2.6-6.6,5.4-13.2,9.8-19C1402.2,671.3,1403,670.9,1403.8,670.7z"/>
		<path class="st14" d="M1268.7,479.1c0,55.4,0.1,110.8,0,166.2c0,5.2,0.6,9.9,4.2,13.8c0.9,1,0.9,2.1,0.8,3.3
			c-5.3-1.1-6.2-5.8-8-9.8c-0.5-1.2-0.5-2.6-0.5-3.9c0-26.6-0.3-53.2,0.1-79.8c0.1-1.6,0-3.2,1.3-4.5c0-26.4,0.1-52.7,0.2-79.1
			C1266.8,483.1,1265.9,480.5,1268.7,479.1z"/>
		<path class="st8" d="M1200.9,568.3c11.8,0,23.6,0.2,35.4,0c3.8,0,5.9,0.7,5.7,5.2c-0.2,4.9,2.5,6.2,7.1,3.8
			c5.9-3,11.4-6.7,17.7-8.8c0,25.9,0.2,51.9-0.1,77.8c-0.1,6.7,2.6,11.7,7,16.1c0,0,0,0,0,0c2.2,1.9,4.4,3.8,7,5.1
			c4,2.8,8.7,3.9,13.3,3.7c7.9-0.3,15.7,0.2,23.6,0.2c13.3-0.1,26.7,0,40,0c14.3,0,28.5-0.1,42.8-0.2c1.1,0,2.3-0.4,3.4-0.6
			c-4.4,6.4-7,13.8-10.7,20.6c-1.4,2.6,0.7,3.3,3.1,3.5c7.3,0.5,7.3,0.6,7.3,7.8c0,29.7-0.1,59.3,0.1,89c0,4.5-1.1,6.2-5.8,6.1
			c-8.3-0.3-16.6,0-24.9,0c0-4.2-0.3-8.3,0-12.5c0.2-4.1-1.3-5.6-5.5-5.5c-20.5,0.2-40.9,0.1-61.4,0.1c-32.4,0-64.9,0-97.3,0
			c-6.8,0-6.8,0-6.8-7c0-65.7,0-131.4,0-197.1c0-2.1,0.8-4.4-0.9-6.2C1200.8,568.9,1200.8,568.6,1200.9,568.3z"/>
		<path class="st16" d="M1618,713.9c8.2,6.7,18.3,8.2,27.9,10c7.2,1.4,14.5,2.9,21.9,3.6c10.2,0.9,20.6,1.1,30.7,2.3
			c33.5,3.8,67,1.7,100.5,1.2c15.3-0.2,31.1-1.2,46.2-4.6c12.9-2.9,26.4-3.3,38.2-10.3c1.9-1.1,3.2,0,3.6,2c0.2,1.5,0.1,3,0.1,4.5
			c0,38.2,0,76.4,0,114.7c0,10.8-4.7,15.4-15.4,17.7c-10.1,2.1-20.3,3.7-30.4,5.7c-3.3,0.7-6.7,0.6-9.8,1.3
			c-11.3,2.2-22.9,0.7-34.1,2.2c-27.5,3.7-55.1,1.4-82.6,1.2c-9.4-0.1-19.3-0.2-28.7-1.8c-9.8-1.7-19.7-1.7-29.5-3.9
			c-7.9-1.8-16.1-2.8-23.9-4.9c-4.4-1.2-8.6-3.3-12.7-5.4c-1.8-1-2.7-3.2-2.7-5.6c0.1-42.7,0.1-85.5,0.1-128.2
			C1617.4,715.1,1617.7,714.8,1618,713.9z"/>
		<path class="st17" d="M1752.8,703.5c-12.8,0-25.6,0.2-38.5,0c-16.4-0.3-32.6-2.3-48.9-4.5c-6.3-0.8-12.8-1.6-19-2.7
			c-8.5-1.5-16.9-4-24.9-7.5c-4.7-2.1-4.7-5.3-0.4-8.5c4.5-3.3,10-4.2,15.1-5.7c6.9-2,14.1-3.5,21.3-4.3c8.9-1,17.7-2.3,26.5-3.2
			c28.7-2.7,57.4-3.1,86.1-2.5c11.9,0.2,24-0.3,35.8,1.2c8.3,1,16.6,0.4,24.6,1.9c11.1,2.1,22.4,2.9,33.4,6.1
			c5.4,1.6,11.1,2.6,16.4,4.7c2.7,1,5.7,2.2,5.7,5.9c0,3.4-2.6,4-5.2,5.1c-8.5,3.5-17.3,5.3-26.3,7.2c-16.5,3.4-33.3,4.2-49.9,6.3
			c-12.1,1.5-24.6,0.4-36.9,0.4C1762.8,703.5,1757.8,703.5,1752.8,703.5C1752.8,703.5,1752.8,703.5,1752.8,703.5z"/>
		<path class="st18" d="M1748.8,716.5c-18.1,1.7-38.8-1.4-59.5-2.4c-17.4-0.9-35.1-3-52.2-8c-4.9-1.4-9.8-2.5-14.4-4.6
			c-3.3-1.6-5.7-3.9-5.4-8.1c0.2-2.4,0.7-2.9,3-1.5c6.4,3.9,13.6,5.8,20.7,7.5c8.6,2,17.4,3.2,26.2,4.2c16.9,1.9,34.1,1.9,51,3.6
			c19.4,2,38.9,2.2,58,0.8c15.1-1.1,30.3-0.4,45.5-2.8c9.7-1.6,19.8-2,29.5-3.8c10.2-1.9,21-2.3,30.2-8.2c1.4-0.9,3.3-2,4.9,0
			c1.6,1.8,0.5,3.5-0.4,5c-1.7,3-4.9,4.3-7.7,5.1c-17.8,5-35.9,7.9-54.3,9.8c-14.8,1.6-29.7,0.9-44.4,3.2
			C1770.2,717.6,1760.7,716.5,1748.8,716.5z"/>
		<path class="st19" d="M1617.6,702.3c12.6,6.9,26,9.1,39.6,11.5c16.7,3,33.6,3.1,50.3,4.9c23.1,2.5,46.1,1.8,69.2,1.6
			c15.5-0.2,31.1-1.6,46.6-3.2c14-1.4,28.3-2.4,42-6.5c5.3-1.6,10.6-3.1,15.9-4.8c1.9-0.6,4.2-3.3,5.4-0.6c1.2,2.6,0.4,6-3.1,7.3
			c-3.6,1.4-7.2,3.1-11,4c-8.6,2.2-17.1,4-26,5.3c-17.4,2.6-34.8,3.4-52.2,5c-21,2-41.9,2-62.7,1.3c-19.9-0.7-39.9-1.4-59.7-4.3
			c-6.6-1-13.4-1.9-20-2.8c-10.7-1.4-21.3-4.2-31.1-8.9C1616.8,710.4,1617.1,706.4,1617.6,702.3z"/>
		<path class="st20" d="M1276.7,470.1c5.8-4.1,12.3-5,19.2-5c73.6,0.1,147.3,0.1,220.9,0c8.5,0,15.5,2.9,20.5,10
			c1.7,6,3.2,12,3.2,18.5c-0.2,49.9,0,99.8-0.2,149.7c0,8.8-2.4,17.1-11.1,21.8c-3.8,2-8,2.2-12,2.2c-74.9,0.1-149.8-0.1-224.7,0.2
			c-15.1,0-22.8-12.3-22.7-23.3c0.1-51.6,0.1-103.1,0-154.7c0-6.6,1.2-12.4,6.1-17.2C1276.3,471.8,1276.4,470.9,1276.7,470.1z"/>
		<path class="st14" d="M1280.7,667.5c-3.4-0.2-5.4-2.3-7-5.1C1276.6,663.2,1278.7,665.3,1280.7,667.5z"/>
		<path class="st15" d="M1404.6,672.1c4.5,6,6.4,12.4,9.7,18c0.8,1.4,0.7,3.3-1.6,3.1c-4.7-0.4-9.4,1-14.1-0.1
			c-2.2-0.5-3.8-1.3-2.8-3.4C1398.4,684,1401.5,678.3,1404.6,672.1z"/>
		<text transform="matrix(1 0 0 1 1297.0537 569.7935)" class="st3 st4 st21">Consolidations</text>
		<text transform="matrix(1 0 0 1 1550.3098 293.9105)" class="st3 st4 st22">BPC</text>
		<text transform="matrix(1 0 0 1 1601.0234 346.8062)" class="st4 st23">Reports</text>
		<text transform="matrix(1 0 0 1 1656.5438 389.9729)"><tspan x="0" y="0" class="st4 st24">Consolidated Reports</tspan><tspan x="0" y="30.8" class="st4 st24">at Group Leves</tspan></text>
		<text transform="matrix(1 0 0 1 1656.5436 472.8997)"><tspan x="0" y="0" class="st4 st25">Group Currency </tspan><tspan x="0" y="31.6" class="st4 st25">Reports</tspan></text>
		<text transform="matrix(1 0 0 1 1656.5435 560.3448)"><tspan x="0" y="0" class="st4 st26">P&amp;L, Balance Sheet</tspan><tspan x="0" y="33.1" class="st4 st26">and Cash Flow</tspan></text>
		<ellipse class="st27" cx="1624" cy="388.4" rx="8" ry="7.8"/>
		<ellipse class="st28" cx="1625.7" cy="469.4" rx="8" ry="7.9"/>
		<ellipse class="st28" cx="1627.1" cy="554.6" rx="8" ry="7.9"/>
		<text transform="matrix(1 0 0 1 1698.5542 793.8127)" class="st3 st4 st29">BW Data</text>
		<text transform="matrix(1 0 0 1 974.1061 805.5881)" class="st4 st5">Data sent following finance close</text>
		<g>
			<line x1="1107.2" y1="567.2" x2="1270.3" y2="567.2"/>
			<g>
				<polygon class="st7" points="1236.5,586.7 1253.4,576.9 1270.3,567.2 1253.4,557.4 1236.5,547.7 1236.5,564.4 1107.2,564.4 
					1107.2,570 1236.5,570 				"/>
			</g>
		</g>
	</g>
	<g id="recent_acquisitions">
		<path class="st30" d="M792.7,749.1c-9.3,3.8-18.7,6.7-28.8,8.5c-24.2,4.4-48.5,5.4-72.9,7.2c-16.9,1.3-33.9,2.3-50.6,0.8
			c-15.3-1.3-30.7-0.6-46-2.9c-10.4-1.5-21.1-2-31.5-3.8c-12.7-2.3-26.2-3.2-37-11.9c-1.3-1.7-2.3-3.5-0.8-5.4
			c1.6-2,3.6-1.1,5.5-0.4c9.5,3.5,19.3,6.5,29.3,8c9.8,1.4,19.8,2.1,29.6,3.6c16.8,2.6,33.9,2.1,50.7,3.3
			c16.4,1.1,33.2,1.7,49.7-1.1c1.8-0.3,3.7-0.3,5.5-0.2c14.2,0.7,28.2-1.6,42.3-2.9c13.1-1.2,26-3.1,38.7-6.5
			c4.2-1.1,8.3-2.5,12.3-4.1c1.9-0.7,4.5-2.9,5.8-0.8c1.3,2.1,1.7,5.4-0.9,7.6C793.3,748.5,793,748.8,792.7,749.1z"/>
		<path class="st31" d="M806.1,800.8c-1-0.1-2-0.2-3-0.3c-0.8-1-0.8-1.9,0-2.9c1-0.1,2-0.1,2.9-0.2c10.8,0.1,21.6,0.2,32.4,0.2
			c40.1,0,80.2,0,120.3,0c1.5,0,3,0,4.5,0.1c0.8,0,1.8,0.2,2,1.1c0.2,1.3-1,1.5-2,1.6c-1.3,0.1-2.7,0.1-4,0.1
			c-49.2,0-98.5,0-147.7,0C809.7,800.6,807.9,800.7,806.1,800.8z"/>
		<path class="st32" d="M798.4,804.6c0,24.7,0,49.4,0,74.1c0,7.4-4.4,12.9-11.7,14.9c-7.3,2-14.6,3.9-21.8,6.1
			c-5.4,1.6-11.1,1.5-16.6,2.6c-11.2,2.1-22.7,2.4-34,3.3c-25.4,2-50.8,2.5-76.2,2c-17.1-0.3-34.1-2-51.1-3.4
			c-13.8-1.1-28-2.3-41.3-6.7c-7.4-2.4-15.5-3.1-21.6-8.9c-2.5-2.3-3.5-5-3.5-8.4c0.1-24.9,0.1-49.7,0.1-74.6c1.6-2.4,3-1.7,3.9,0.5
			c0.8,1.9,0.5,3.9,0.5,5.9c0,21.7,0,43.5,0,65.2c0,2.4-0.5,5.1,1.7,7c7.4,6.4,16.9,7.7,25.9,9.5c19.7,3.9,39.7,5.6,59.8,6.8
			c22.6,1.4,45.2,2.1,67.8,1.4c17.2-0.5,34.5-1.5,51.7-3.3c15.1-1.5,30-3.4,44.6-7.5c3.2-0.9,6.3-2,9.5-3c4.8-1.5,6.8-4.5,6.7-9.7
			c-0.3-10.8-0.1-21.7-0.1-32.5c0-11.8-0.1-23.7,0.1-35.5c0-2.5-0.5-5.6,2.9-6.7C796.9,803.6,797.8,803.8,798.4,804.6z"/>
		<path class="st33" d="M520.8,799.4c0-23.5,0-47.1,0-70.6c0-9.6,3.2-14.5,12.3-17.3c10.8-3.4,21.9-5.2,33-7.5
			c18.4-3.7,37.2-2.5,55.6-5.5c6.8-1.1,14-0.3,20.9-0.3c16.3,0,32.6-0.2,48.9,0.1c12.6,0.3,25.2,1.3,37.7,2.4
			c11.5,1,23.4,1.6,34.6,4.7c9.4,2.6,19.3,3.5,27.9,8.9c4.3,2.7,7.1,5.5,7,11.4c-0.4,24.9-0.2,49.7-0.3,74.6
			c-4.1,1.8-4.1-1.4-4.2-3.8c-0.3-6.1-0.1-12.3-0.1-18.5c0-6.8-0.1-13.6,0-20.5c0-2.6-0.3-5-1.9-7.1c-0.3-0.8-0.3-1.7,0.2-2.4
			c1-1.3,2.3-2.8,1.7-4.5c-2.7-6.9,1.1-13.7,0.1-20.6c-0.4-2.9-1.4-4.2-4-4.6c-18.9-7.5-38.8-9.7-58.9-12.1
			c-15.4-1.9-30.8-1.7-46.2-3.1c-17-1.6-34.2-1-51.4-0.1c-8.5,0.4-16.9,1.3-25.4,1.7c-24.6,1.1-49,4-72.7,11.2
			c-3.7,1.1-8.1,2-7.8,7.5c0.1,1.6,0.7,3.3-0.8,4.6c-2.9,2.3-2.2,4.8-0.2,7.2c0.7,0.7,1.3,1.4,1.5,2.4c-3.4,3.4-4,7.2-1.3,11.4
			c-2.5,5.5-1.8,11.3-1.8,17c0,9.5,0,18.9,0,28.4c0,1.8,0.3,3.8-0.8,5.3C522.9,802.2,521.6,802.2,520.8,799.4z"/>
		<path class="st34" d="M792.4,749.3c2.4,1.6,3.2,3.8,3.1,6.7c-0.2,13.3-0.1,26.6,0,39.9c0,1.9-0.9,4.8,2.8,4.4
			c0.1,0.2,0.1,0.5,0.1,0.7c-0.7,1.4-1.9,1.4-3.2,1.1c-2.8-1.7-2.3-4.6-2.3-7.2c-0.1-11.7,0-23.4-0.1-35.1c0-4.6-0.2-4.6-4.5-3.1
			c-16.1,5.6-32.6,8.7-49.6,10.5c-12.7,1.4-25.6,1.1-38.2,3.1c-3.1,0.5-6.3,0.6-9.5,0.6c-12.8,0-25.7-0.4-38.5,0.1
			c-20.2,0.8-40.3-0.9-60.3-2.5c-20.9-1.7-42-4.1-61.9-12c-3.1-1.2-3.9,0.1-4,2.8c-0.2,3-0.3,6-0.2,9c0.5,32.8-0.1,65.7,0,98.5
			c0,4.7-0.2,9.3,0.5,14c0.3,1.6,0.4,3.4-1,4.7c-2.3-1.8-2-4.4-2-6.8c0-23.3,0-46.6-0.1-69.9c0-1.6,1.4-5.2-2.9-3.3
			c0-0.4-0.1-0.8-0.1-1.3c-0.5-1.2-1.8-2.3-0.7-3.8c0.3-0.3,0.6-0.7,0.9-1c0.9,0.6,1.9,2.7,2.7,0c0.4-1.2,0.2-2.6,0.2-3.9
			c0-10.4,0-20.9,0-31.3c0-5.4-0.6-10.8,2-15.8c-0.4-0.7-0.2-1.1,0.6-1.3c7.2,2.9,14.2,6.3,22,7.7c13.7,2.5,27.5,4.3,41.3,6.3
			c15.4,2.2,30.8,0.5,46.1,3.3c9.6,1.7,19.6,0.7,29.4,0.4c20.2-0.5,40.4-1.9,60.5-3.5c9.5-0.8,18.9-1.7,28.2-3.3
			c10.8-1.8,21.7-3.2,31.9-7.5C787.8,749.6,790,748.4,792.4,749.3z"/>
		<path class="st35" d="M795.5,801.6c0.1,0.7,0.1,1.5,0.9,1.9c0,0.2,0,0.3,0,0.5c-2.6,1.3-1.8,3.7-1.8,5.7c0,22.7,0,45.4,0,68
			c0,8.7-1.5,10.6-9.7,12.8c-11.6,3.1-23.2,5.9-35.2,7.4c-14.8,1.9-29.5,2.8-44.3,4c-20.6,1.8-41.1,2-61.7,1.5
			c-19.2-0.5-38.4-1.4-57.5-3.5c-12.3-1.3-24.7-2.8-36.7-5.5c-8.2-1.8-16.8-3.2-23.7-9c-2.1-24.9-0.5-49.9-0.9-74.9
			c-0.3-17.7,0-35.5,0-53.2c0-1.4-0.2-2.8,1.1-3.6c1.5-0.9,2.8-0.4,4.2,0.5c5.1,3.5,11.2,4.6,17,5.7c12.5,2.4,25,4.3,37.7,5.9
			c10.2,1.3,20.4,1,30.6,2.2c25.2,2.8,50.5,1,75.8,1.1c12.6,0,25.3-1,37.7-2.4c15.9-1.8,32.1-2.8,47.7-8c5.7-1.9,11.3-4.1,17.9-6.2
			c0,2.6,0,4.8,0,7.1c0,12.2,0,24.4,0,36.5C794.5,798.2,794,800.1,795.5,801.6z"/>
		<path class="st35" d="M526.7,725.4c-1.9-5.7,0.3-8.7,7.9-10.8c17.9-4.8,36-7.7,54.4-9.7c13.4-1.4,26.9-0.8,40.2-2.5
			c17.6-2.3,35.2-1.3,52.8-0.8c13.1,0.4,26.2,0.7,39.2,2.1c19,2,38.2,3.7,56.8,8.8c4.6,1.3,9,3.2,13.4,4.8c4.7,4,4.6,6.7-0.6,10
			c-5.4,3.5-11.7,4.8-17.8,6.4c-10.3,2.8-20.9,3.8-31.5,5.1c-21.1,2.7-42.3,4.4-63.6,4.1c-21.6-0.3-43.3,0.9-64.9-0.5
			c-23-1.5-46.1-3.6-68.6-9C538.4,731.8,531.6,730.4,526.7,725.4z"/>
		<path class="st30" d="M527.7,737.5c-0.6-0.4-1.3-0.8-1.9-1.1c-0.7-0.8-0.8-1.9-0.9-2.8c-0.6-4.9,1.2-6.2,5.6-4.3
			c12.8,5.4,26.6,7.1,40.1,9.8c10.5,2.1,21.3,0.6,31.6,3.5c1,0.3,2,0.3,3,0.3c26.3,0.5,52.6,1.8,78.8,0.9c9.6-0.3,19.3,0,28.9-1
			c23.1-2.3,46.4-3.7,68.8-10.6c2.4-0.7,4.6-1.9,6.9-2.9c1.9-0.8,4.2-2.9,5.8-0.6c1.4,1.9,1.2,5-0.2,7.1c-1.4,2.2-3.1,4.3-5.8,5.2
			c-8.5,2.9-17.1,5.4-26,7c-14.9,2.7-30,3.8-45,5.3c-10.7,1.1-21.6,1.4-32.4,1.6c-17,0.2-34,0.4-50.9-0.1
			c-12.9-0.4-25.9-0.6-38.8-2.3c-8.4-1.1-16.8-1.2-25.2-2.5c-13.2-1.9-26.2-4.3-38.7-8.9C529.6,740.4,528.4,739.3,527.7,737.5z"/>
		<path class="st36" d="M527.7,737.5c4.5,3.1,9.9,4.5,15,5.7c10.1,2.3,20.3,4,30.6,5.5c39.3,5.6,78.8,5,118.3,4.5
			c15.4-0.2,30.9-1,46.1-3.1c13-1.8,26.3-2.8,39-6.7c4.5-1.4,9-2.7,13.4-4.5c2-0.8,3.7-2.5,4.3-4.6c0.5-1.7,1-3.9-0.4-5.3
			c-1.5-1.5-2.5,0.8-3.7,1.3c-12.7,6.1-26.5,7.7-40.1,9.9c-8.7,1.4-17.6,1.1-26.1,2.6c-10.3,1.8-20.5,0.6-30.6,1.6
			c-18.8,1.8-37.6,0.9-56.3,0.7c-11.1-0.1-22.4,0.3-33.3-1.1c-19.3-2.4-38.9-2.8-57.7-8.4c-5.9-1.8-12.2-2.4-17.4-6
			c-1.8-1.2-2.5-0.4-2.7,1.2c-0.2,1.8,0,3.7,0,5.5c-2.3-3.3-4.3-6.6,1-9.2c0.2-0.1,0-1.1,0-1.8c16.2,7.3,33.6,9.6,51,12
			c42.2,5.9,84.7,4.2,127.1,3.5c13-0.2,26.4-1.1,39.4-3.8c6.6-1.4,13.5-1.3,20.1-2.8c8.6-2,17.4-3.4,25.3-7.6
			c5.6-2.9,5.7-4.2,1.9-9.3c2.3,0.3,4.3,1.7,3.8,3.8c-1.4,5.5,2.7,11.6-1.7,16.7c-0.8,1,0.4,1.2,0.7,1.8c1.4,3,2.9,6.2-0.9,8.8
			c0.3-0.9,0.9-1.8,1-2.8c0.1-1.5,0.3-3.4-0.4-4.3c-1.3-1.5-2.5,0.7-3.8,1.2c-8.2,3-16.5,5.4-25,7.2c-16.5,3.6-33.4,3.8-49.9,6.6
			c-1.3,0.2-2.7,0.2-4,0.1c-12.3-0.5-24.4,1.5-36.6,1.7c-9.2,0.2-18.4-0.3-27.6,0c-9.9,0.3-19.4-2-29.2-1.8
			c-16.6,0.3-33-2.4-49.4-4.4c-8.5-1.1-16.9-2.4-25.2-4.6c-4.3-1.1-8.3-2.8-12.5-4.2c-1.6-0.5-3.3-2.2-5.1-0.8
			c-2,1.5,0.1,3.4,0.1,5.1c0,0.4,0,0.7,0,1.1C521.7,743.9,523.6,740.5,527.7,737.5z"/>
		<text transform="matrix(1 0 0 1 552.1839 819.3236)"><tspan x="0" y="0" class="st3 st4 st37">Recent Acquisitions</tspan><tspan x="65.5" y="30.7" class="st3 st4 st37">(X ERP)</tspan></text>
	</g>
	<text transform="matrix(1 0 0 1 923.0476 550.11)"><tspan x="0" y="0" class="st4 st38">Automated Finance</tspan><tspan x="66.2" y="29.5" class="st4 st38">Actuals</tspan></text>
	<g id="SAP_HANA_S_x2F_4_1_">
		<path class="st39" d="M52.7,263.8c0.1-8.2,14-17.3,22-17.2c43.4,0.2,86.8,0.1,130.3,0.1c214.8,0,429.5,0.1,644.3-0.3
			c14.8,0,27.6,14.3,27.5,27.9c-0.5,97.2,0.2,222-0.3,281.6c0,2.7,0,17.2-1.3,17.3c-0.8,0.1-1.9-6.5-2.6-11.4
			c-1.1-3.1-0.7-6.3-0.7-9.5c0-92.2,0-184.3,0-276.5c0-4.9-0.3-9.7-2.6-14.2c-3.3-6.5-8.6-9.5-15.6-10.2c-1.8-0.2-3.7-0.1-5.5-0.1
			c-256.8,0-513.6,0-770.3-0.1c-6.8,0-13,0.9-18,5.8C56.9,258.8,56.4,263,52.7,263.8z"/>
		<path class="st32" d="M808.3,448.6c0,24.9,0,49.8,0,74.7c0,7.4-4.4,13-11.7,15c-7.3,2-14.6,4-21.9,6.2c-5.4,1.6-11.1,1.6-16.6,2.6
			c-11.2,2.1-22.7,2.4-34.1,3.3c-25.4,2.1-50.9,2.5-76.4,2c-17.1-0.3-34.2-2-51.2-3.4c-13.8-1.1-28.1-2.3-41.4-6.8
			c-7.4-2.5-15.6-3.1-21.7-9c-2.5-2.4-3.5-5-3.5-8.5c0.1-25.1,0.1-50.1,0.1-75.2c1.6-2.4,3-1.7,3.9,0.5c0.8,1.9,0.5,4,0.5,6
			c0,21.9,0,43.8,0,65.7c0,2.5-0.5,5.1,1.7,7c7.5,6.5,17,7.8,26,9.6c19.8,4,39.8,5.6,60,6.9c22.7,1.4,45.4,2.2,68,1.5
			c17.3-0.5,34.6-1.5,51.9-3.3c15.1-1.6,30.1-3.5,44.8-7.5c3.2-0.9,6.4-2,9.5-3c4.8-1.5,6.8-4.6,6.7-9.8
			c-0.3-10.9-0.1-21.9-0.1-32.8c0-11.9-0.1-23.9,0.1-35.8c0-2.6-0.5-5.6,2.9-6.8C806.7,447.6,807.6,447.8,808.3,448.6z"/>
		<path class="st33" d="M529.8,443.4c0-23.7,0-47.4,0-71.1c0-9.6,3.2-14.6,12.3-17.5c10.8-3.4,22-5.3,33.1-7.5
			c18.5-3.8,37.3-2.5,55.7-5.5c6.8-1.1,14-0.3,21-0.3c16.4,0,32.7-0.2,49.1,0.1c12.6,0.3,25.3,1.3,37.8,2.4
			c11.6,1,23.4,1.6,34.7,4.7c9.4,2.6,19.4,3.5,28,9c4.4,2.8,7.1,5.5,7,11.5c-0.4,25.1-0.2,50.1-0.3,75.2c-4.1,1.8-4.1-1.4-4.2-3.8
			c-0.3-6.2-0.1-12.4-0.1-18.6c0-6.9-0.1-13.7,0-20.6c0-2.6-0.3-5-1.9-7.1c-0.3-0.8-0.3-1.7,0.2-2.4c1-1.3,2.3-2.8,1.7-4.5
			c-2.7-6.9,1.1-13.8,0.1-20.7c-0.4-2.9-1.4-4.2-4-4.6c-19-7.6-39-9.8-59-12.2c-15.4-1.9-30.9-1.7-46.3-3.2
			c-17.1-1.6-34.3-1-51.5-0.1c-8.5,0.4-16.9,1.3-25.4,1.7c-24.7,1.1-49.2,4-72.9,11.3c-3.7,1.1-8.1,2.1-7.8,7.6
			c0.1,1.6,0.7,3.3-0.8,4.6c-2.9,2.3-2.3,4.8-0.2,7.3c0.7,0.7,1.3,1.4,1.5,2.4c-3.5,3.5-4,7.3-1.3,11.5c-2.5,5.5-1.8,11.4-1.8,17.2
			c0,9.5,0,19.1,0,28.6c0,1.8,0.3,3.8-0.8,5.4C531.9,446.2,530.6,446.2,529.8,443.4z"/>
		<path class="st40" d="M122.8,354.6c5-8.2,11.6-13.2,21.8-13.2c75.9,0.1,151.9,0.1,227.8,0.1c12.9,0,24,11.2,24.1,24.3
			c0.1,26.6,0,53.1,0.1,79.7c0.5,0.7,0.6,1.4,0,2.2c0,26.6,0,53.3-0.1,79.9c0,7.9-3.1,14.6-10,18.9c-1.2-0.3-2.6-0.4-2.1-2.3
			c6.5-7,7.6-15.4,7.6-24.7c-0.3-49.9-0.1-99.9-0.1-149.8c0-6-0.3-11.8-4.8-16.5c-4.4-4.6-9.6-7-16-7c-12.9,0.1-25.7,0-38.6,0
			c-59.9,0-119.9,0.2-179.8-0.2c-10.9-0.1-20.6,1.2-27.5,10.7C123.2,357.3,123.2,355.8,122.8,354.6z"/>
		<path class="st34" d="M802.2,392.9c2.4,1.6,3.2,3.8,3.2,6.8c-0.2,13.4-0.1,26.8,0,40.2c0,2-0.9,4.8,2.8,4.4
			c0.1,0.2,0.1,0.5,0.1,0.7c-0.7,1.4-1.9,1.4-3.2,1.1c-2.8-1.8-2.3-4.7-2.3-7.3c-0.1-11.8,0-23.5-0.1-35.3c0-4.7-0.2-4.6-4.5-3.1
			c-16.2,5.6-32.7,8.7-49.8,10.6c-12.8,1.4-25.6,1.1-38.3,3.1c-3.1,0.5-6.3,0.6-9.5,0.6c-12.9,0-25.7-0.4-38.6,0.1
			c-20.2,0.8-40.4-0.9-60.5-2.5c-21-1.7-42.2-4.2-62.1-12.1c-3.1-1.3-3.9,0.1-4,2.8c-0.2,3-0.3,6.1-0.2,9.1
			c0.5,33.1-0.1,66.2,0,99.3c0,4.7-0.2,9.4,0.5,14.1c0.3,1.7,0.4,3.4-1,4.7c-2.3-1.8-2-4.4-2-6.9c0-23.5,0-47-0.1-70.4
			c0-1.6,1.4-5.2-2.9-3.3c0-0.4-0.1-0.9-0.1-1.3c-0.5-1.2-1.8-2.3-0.7-3.8c0.3-0.3,0.6-0.7,0.9-1c0.9,0.6,1.9,2.7,2.7,0
			c0.4-1.2,0.2-2.6,0.2-4c0-10.5,0-21,0-31.5c0-5.4-0.6-10.9,2-15.9c-0.4-0.7-0.2-1.1,0.6-1.3c7.2,2.9,14.2,6.4,22.1,7.8
			c13.8,2.5,27.6,4.3,41.4,6.4c15.4,2.3,30.9,0.5,46.3,3.3c9.6,1.7,19.6,0.7,29.5,0.4c20.3-0.5,40.5-1.9,60.7-3.5
			c9.5-0.8,18.9-1.7,28.3-3.3c10.8-1.8,21.7-3.2,32-7.6C797.6,393.2,799.8,392,802.2,392.9z"/>
		<path class="st41" d="M384.4,545.4c0.8,0,1.6,0.2,2,1.1c-4.1,3.9-8.9,5.2-14.6,5.2c-76.4-0.1-152.8-0.1-229.3-0.1
			c-12.2,0-22.8-10.6-22.8-22.9c0-55,0-109.9-0.1-164.9c0-3.5,0.4-6.7,3.1-9.1c0.9,0.5,1,1.3,1.1,2.2c0.5,0.7,0.7,1.5,0.6,2.4
			c-2.3,20.5-0.8,41-1,61.5c-0.3,33.8-0.1,67.6-0.1,101.4c0,6.2,0.9,12.1,4.7,17.2c3.5,4.7,8,7.5,14,7.5c3.2,0,6.3,0,9.5,0
			c71.8,0,143.6-0.1,215.4,0.1C373,546.9,378.6,545.4,384.4,545.4z"/>
		<path class="st35" d="M805.3,445.7c0.1,0.7,0.1,1.5,0.9,1.9c0,0.2,0,0.3,0,0.5c-2.6,1.3-1.8,3.7-1.8,5.8c0,22.9,0,45.7,0,68.6
			c0,8.7-1.5,10.7-9.7,12.9c-11.7,3.1-23.3,6-35.3,7.5c-14.8,1.9-29.6,2.8-44.4,4.1c-20.6,1.8-41.3,2-61.9,1.5
			c-19.2-0.5-38.5-1.4-57.7-3.5c-12.4-1.4-24.7-2.8-36.8-5.5c-8.2-1.8-16.9-3.2-23.7-9c-2.1-25.1-0.5-50.3-0.9-75.4
			c-0.3-17.9,0-35.8,0-53.6c0-1.4-0.2-2.8,1.2-3.6c1.5-0.9,2.8-0.4,4.2,0.5c5.1,3.6,11.3,4.7,17.1,5.8c12.5,2.4,25.1,4.3,37.8,5.9
			c10.3,1.3,20.5,1,30.7,2.2c25.2,2.9,50.6,1.1,76,1.1c12.6,0,25.3-1,37.8-2.4c16-1.8,32.2-2.8,47.8-8.1c5.7-1.9,11.4-4.2,18-6.2
			c0,2.6,0,4.9,0,7.1c0,12.3,0,24.6,0,36.8C804.4,442.2,803.8,444.1,805.3,445.7z"/>
		<path class="st35" d="M535.7,368.8c-1.9-5.8,0.3-8.8,7.9-10.9c17.9-4.9,36.1-7.8,54.6-9.8c13.5-1.5,26.9-0.8,40.3-2.5
			c17.6-2.3,35.3-1.3,53-0.8c13.1,0.4,26.3,0.7,39.3,2.1c19.1,2,38.3,3.7,56.9,8.9c4.6,1.3,9,3.2,13.5,4.9c4.7,4,4.6,6.8-0.6,10.1
			c-5.4,3.5-11.7,4.8-17.8,6.4c-10.3,2.8-21,3.8-31.6,5.2c-21.2,2.7-42.4,4.4-63.8,4.1c-21.7-0.3-43.4,0.9-65.1-0.5
			c-23.1-1.5-46.2-3.6-68.8-9.1C547.4,375.3,540.7,373.9,535.7,368.8z"/>
		<path class="st30" d="M802.2,392.9c-9.4,3.8-18.8,6.7-28.9,8.6c-24.2,4.5-48.6,5.4-73.1,7.2c-17,1.3-34,2.3-50.7,0.8
			c-15.3-1.3-30.8-0.6-46.1-2.9c-10.4-1.5-21.2-2-31.6-3.8c-12.8-2.3-26.3-3.2-37.1-12c-1.3-1.7-2.3-3.5-0.8-5.5
			c1.6-2,3.7-1.1,5.5-0.4c9.6,3.5,19.3,6.6,29.4,8c9.9,1.5,19.9,2.1,29.7,3.6c16.9,2.6,34,2.1,50.9,3.3c16.5,1.1,33.3,1.7,49.9-1.1
			c1.8-0.3,3.7-0.3,5.5-0.3c14.2,0.7,28.3-1.6,42.4-2.9c13.1-1.2,26.1-3.1,38.8-6.5c4.2-1.1,8.3-2.6,12.3-4.2c1.9-0.7,4.5-3,5.8-0.8
			c1.3,2.1,1.8,5.4-0.9,7.7C802.9,392.3,802.6,392.6,802.2,392.9z"/>
		<path class="st30" d="M536.7,381c-0.6-0.4-1.3-0.8-1.9-1.1c-0.7-0.8-0.8-1.9-0.9-2.8c-0.6-4.9,1.2-6.2,5.6-4.3
			c12.9,5.5,26.6,7.2,40.2,9.9c10.5,2.1,21.3,0.6,31.7,3.5c1,0.3,2,0.3,3,0.3c26.4,0.5,52.7,1.8,79.1,0.9c9.7-0.3,19.4,0,29-1
			c23.2-2.3,46.5-3.8,69-10.6c2.4-0.7,4.6-1.9,6.9-2.9c1.9-0.8,4.2-2.9,5.8-0.6c1.4,1.9,1.2,5-0.2,7.2c-1.4,2.2-3.1,4.4-5.8,5.3
			c-8.5,2.9-17.1,5.4-26,7.1c-14.9,2.7-30,3.8-45.1,5.4c-10.8,1.1-21.6,1.5-32.5,1.6c-17,0.2-34.1,0.4-51.1-0.1
			c-13-0.4-26-0.6-38.9-2.4c-8.4-1.1-16.9-1.2-25.3-2.5c-13.2-1.9-26.3-4.4-38.9-9C538.6,383.9,537.4,382.8,536.7,381z"/>
		<path class="st36" d="M536.7,381c4.5,3.2,9.9,4.5,15,5.7c10.1,2.3,20.3,4.1,30.6,5.6c39.4,5.7,79,5,118.6,4.5
			c15.4-0.2,30.9-1,46.2-3.1c13.1-1.8,26.4-2.8,39.1-6.8c4.5-1.4,9.1-2.8,13.5-4.5c2-0.8,3.7-2.5,4.4-4.6c0.5-1.7,1-3.9-0.4-5.3
			c-1.5-1.5-2.5,0.8-3.8,1.4c-12.7,6.1-26.6,7.8-40.2,10c-8.7,1.4-17.7,1.1-26.2,2.6c-10.3,1.9-20.5,0.6-30.7,1.6
			c-18.8,1.9-37.7,0.9-56.5,0.7c-11.1-0.1-22.4,0.3-33.4-1.1c-19.3-2.4-39-2.8-57.9-8.5c-5.9-1.8-12.2-2.4-17.5-6.1
			c-1.8-1.2-2.5-0.4-2.7,1.2c-0.2,1.8,0,3.7,0,5.5c-2.3-3.4-4.4-6.7,1-9.3c0.2-0.1,0-1.2,0-1.8c16.3,7.4,33.7,9.7,51.2,12.1
			c42.4,6,84.9,4.3,127.4,3.5c13.1-0.2,26.5-1.1,39.5-3.9c6.6-1.4,13.6-1.3,20.1-2.9c8.6-2,17.4-3.5,25.4-7.7c5.6-3,5.8-4.2,1.9-9.4
			c2.3,0.3,4.3,1.8,3.8,3.8c-1.4,5.6,2.7,11.7-1.7,16.9c-0.8,1,0.4,1.2,0.7,1.8c1.4,3,2.9,6.2-0.9,8.8c0.3-0.9,0.9-1.9,1-2.8
			c0.1-1.5,0.3-3.5-0.4-4.3c-1.3-1.5-2.6,0.7-3.8,1.2c-8.2,3-16.5,5.4-25.1,7.3c-16.6,3.6-33.5,3.8-50.1,6.6c-1.3,0.2-2.7,0.2-4,0.1
			c-12.3-0.5-24.5,1.6-36.7,1.8c-9.2,0.2-18.5-0.3-27.6,0c-9.9,0.3-19.4-2-29.3-1.8c-16.6,0.3-33.1-2.4-49.5-4.5
			c-8.5-1.1-17-2.4-25.3-4.6c-4.3-1.1-8.4-2.8-12.6-4.2c-1.6-0.5-3.3-2.2-5.1-0.8c-2,1.6,0.1,3.4,0.1,5.1c0,0.4,0,0.7,0,1.1
			C530.7,387.5,532.6,384.1,536.7,381z"/>
		<path class="st42" d="M384.4,545.4c-4,2.3-8.2,3.2-12.9,3.2c-75.5-0.1-150.9-0.1-226.4-0.1c-14.7,0-23-8.5-23-23.5
			c0-37.2,0-74.3,0-111.5c0-14.6,0.1-29.3,0-43.9c0-4.4,0.4-8.7,1.9-12.8c5.3-9.6,13.5-12.5,24.1-12.4c74.3,0.3,148.5,0.1,222.8,0.1
			c13.8,0,22.5,8.6,22.5,22.4c0,53.3,0,106.6,0.1,159.8C393.5,534.7,390.2,540.6,384.4,545.4z"/>
		<g id="SAP_HANA_S_x2F_4">
			<path class="st16" d="M61.7,648.4c-6.3-6.4-8.3-14.1-8.3-23.2c0.2-115.1,0.2-230.2,0.1-345.3c0-7.7-0.6-15.4,4-22.2
				c2.9-5.4,8.2-7,13.6-8c2.3-0.4,4.7-0.2,7-0.2c256.5,0,513.1,0,769.6,0c4.1,0,8.1-0.5,12.2,1.5c8.5,4.1,13.5,11,13.5,20.7
				c0,95,0,190.1,0,285.1c0,1.8,0.1,3.7,0.1,5.5c-0.3,2.6-0.6,3.9-1,3.9c-0.3,0-0.6-0.6-1-1.9c-8.3,1.2-16.6,0.6-24.9,0.4
				c-3.8-0.1-5.6-2.5-5.7-6.3c-0.1-5,0-10.1,0-15.1c0-12.4-15.3-95.3-25-96.7c-2.5-0.4-5-0.6-7.4-0.8c-0.5-0.4-0.9-0.8-1.2-1.4
				c-0.9-2.3-0.6-4.6-0.6-7c0-23-0.1-46.1,0-69.1c0-4.4-1.6-6.8-5.1-8.8c-5.3-3-10.7-5.3-16.7-6.6c-12.7-2.7-25.4-4.9-38.4-6.5
				c-12.3-1.5-24.7-0.8-36.8-3c-5.1-0.9-10.3-0.6-15.5-0.7c-17.9,0-35.8-0.7-53.6,0.2c-15.6,0.8-31.2,1.7-46.8,3.3
				c-12.1,1.3-24.1,3-36,5.6c-6.2,1.3-12.4,2.6-18.1,5.5c-6,3.1-8.8,7.4-8.8,14.4c0.3,21.4,0,42.7,0.1,64.1c0,2.3,0.3,4.7-0.5,7
				c-0.3,0.9-0.9,1.6-1.8,1.9c-8.8-5.5-11.9-6-12.9-5c-0.5,0.5-0.6,1.5-1.6,2c-1.4,0.7-2.7-0.5-3.6,0.3c-0.8,0.6-0.2,1.7-1,2.7
				c-0.9,1.1-2.4,1.5-4.2,1.5c-28,0-55.9,0-83.9,0c-1.9,0-3.4-0.5-4.3-1.6c-0.8-1-0.1-2.3-1-3.1c-0.6-0.5-1-0.3-2.4-0.8
				c-1.4-0.5-1.6-1.1-2.3-1.4c-2.2-0.9-5.3,3.2-11.2,5.6c-1.5,0.6-3.1,1.4-4.6-0.1c-1.3-2.2-0.9-4.6-0.9-6.9c0-23.9,0-47.7,0-71.6
				c0-13.7-10-23.7-23.6-23.7c-75.1,0-150.1,0.1-225.2-0.1c-10.2,0-17.1,4.2-22.2,12.5c-2.1,2.4-2.6,5.2-2.6,8.4
				c0,55.2,0.2,110.3-0.1,165.5c0,9.2,11.3,20.9,21.1,20.9c77-0.3,153.9-0.2,230.9-0.1c4.9,0,8.7-1.7,12.4-4.5
				c6.3-4.4,9.4-10.6,9.4-18.3c0-24.1,0-48.2,0-72.4c0-2.3-0.3-4.7,0.9-6.9c2.2-1.9,4.1-0.2,5.9,0.7c1.6,0.8,9,6.7,10.8,5.4
				c0.5-0.4,0.2-1,0.9-1.6c1-0.8,2,0,2.9-0.6c1.1-0.7,0.1-2.6,1.2-3.7c1.1-1.2,2.8-1.6,5.1-1.6c27.3,0.1,54.7,0.1,82,0
				c2.2,0,4,0.4,5.1,1.6c1.1,1.2,0.1,3,1.1,3.7c1.1,0.7,2.7-0.7,3.4,0c0.6,0.5-0.1,1.5,0.3,2c0.9,0.8,4.8-2,9.5-4.4
				c1.8-0.9,3.5-2,5.7-1c0.4,0.4,0.7,0.9,1,1.5c0.7,2.3,0.4,4.7,0.4,7c0,22.2,0.2,44.4-0.1,66.6c-0.1,6,2.7,9.6,7.6,11.7
				c10.3,4.4,21.2,7,32.2,8.9c23.4,4,47,5.2,70.6,6.5c23,1.2,46.1,1.6,69-1c6.8-0.8,13.6-0.9,20.5-1.3c16.5-1,32.8-3.1,48.9-6.7
				c6.8-1.5,13.5-3.5,19.8-6.6c5.3-2.6,7.1-6.4,7-12c-0.1-22.2-0.1-44.4,0-66.6c0-2.8-0.6-5.8,1.6-8.2c9.2-1.9,18.5-0.8,27.8-0.6
				c2.1,0,3.1,1.7,3.4,3.7c0.3,2,3.7,112.5,4.2,112.7c1.3,0.5,2.4,0.5,2.8,0.6c10.9,0.6,16.4,0.8,19.6,0.3c2.9-0.5,6.5-1.4,7.2-0.1
				c0.3,0.5,0.3,1.6,0.3,3.2c0,0.4,0,0.8,0,1c0,20.3-0.1,40.7-0.1,61c0,13.4-9.1,22.7-22.4,22.7c-73.1,0-146.3,0-219.4,0
				c-183,0-366,0-549,0C75.4,652.5,68.1,652.9,61.7,648.4z"/>
			<text transform="matrix(0.9952 0 0 1 341.375 300.8589)" class="st3 st4 st43">SAP HANA S/4</text>
		</g>
		<text transform="matrix(0.9952 0 0 1 189.998 432.3022)"><tspan x="0" y="0" class="st3 st4 st44">Finance </tspan><tspan x="-14.1" y="40.6" class="st3 st4 st44">operations</tspan></text>
		<g>
			<line class="st45" x1="394.1" y1="446.8" x2="533.8" y2="446.3"/>
			<g>
				<g>
					<path class="st46" d="M414.2,461.9c0,0-8.8-11.8-19.6-14.9c0,0-1.3-0.2,0-0.4c10.7-3.2,19.5-15.1,19.5-15.1l0,8.7l41.7-0.1
						l0,6.6l0-0.4l0,6.6l-41.7,0.2L414.2,461.9z"/>
					<path class="st46" d="M513.9,461.5c0,0,8.8-11.8,19.5-15.1c0,0,1.3-0.2,0-0.4c-10.8-3.1-19.6-14.9-19.6-14.9l0,8.7l-42.6,0.2
						l0,6.6l0-0.4l0,6.6l42.6-0.1L513.9,461.5z"/>
				</g>
			</g>
		</g>
		<text transform="matrix(0.9952 0 0 1 598.6929 466.0605)" class="st3 st4 st47">S/4 Data</text>
	</g>
	<g>
		<g>
			<g>
				<polygon class="st7" points="878.4,445.4 829.6,444.9 829.8,433.4 806.8,446.3 829.5,459.7 829.6,448.1 878.4,448.6 				"/>
			</g>
		</g>
	</g>
</g>
</svg>
