<svg height="1021" viewBox="0 0 2085 1021" width="2085" xmlns="http://www.w3.org/2000/svg"><path d="m.5.5h2084v1020h-2084z" fill="#fff" stroke="#000" stroke-miterlimit="10"/><path d="m944 53.3 4.3-.4a9.92 9.92 0 0 0 1.4 4.2 7.63 7.63 0 0 0 3.5 2.7 12.85 12.85 0 0 0 5.3 1 13 13 0 0 0 4.6-.8 6.76 6.76 0 0 0 3-2.1 5.34 5.34 0 0 0 1-2.9 4.47 4.47 0 0 0 -.9-2.8 6.68 6.68 0 0 0 -3.1-2 60.63 60.63 0 0 0 -6.1-1.7 36.8 36.8 0 0 1 -6.6-2.1 9.79 9.79 0 0 1 -3.7-3.2 8 8 0 0 1 -1.2-4.3 9.06 9.06 0 0 1 1.5-4.9 9.24 9.24 0 0 1 4.3-3.4 16.08 16.08 0 0 1 6.3-1.2 17.41 17.41 0 0 1 6.7 1.2 10.05 10.05 0 0 1 4.5 3.6 11.1 11.1 0 0 1 1.7 5.4l-4.4.3a6.62 6.62 0 0 0 -2.4-4.9c-1.3-1.1-3.3-1.7-6-1.7s-4.7.5-6 1.5a4.38 4.38 0 0 0 -1.9 3.6 3.8 3.8 0 0 0 1.3 3c.9.8 3.2 1.6 6.8 2.4a44.58 44.58 0 0 1 7.6 2.2 9.94 9.94 0 0 1 4.4 3.5 8.08 8.08 0 0 1 1.4 4.9 9.32 9.32 0 0 1 -1.6 5.2 10 10 0 0 1 -4.5 3.8 15.88 15.88 0 0 1 -6.6 1.3 19.78 19.78 0 0 1 -7.8-1.4 11.34 11.34 0 0 1 -6.8-10z" transform="translate(0 1.6)"/><path d="m986.2 60.6.6 3.7a19.94 19.94 0 0 1 -3.2.4 7.45 7.45 0 0 1 -3.6-.7 4.69 4.69 0 0 1 -1.8-1.9 16.51 16.51 0 0 1 -.5-5v-14.3h-3.1v-3.3h3.1v-6.2l4.2-2.5v8.7h4.2v3.3h-4.2v14.5a9.21 9.21 0 0 0 .2 2.3 1.78 1.78 0 0 0 .7.8 2.65 2.65 0 0 0 1.4.3 7 7 0 0 0 2-.1z" transform="translate(0 1.6)"/><path d="m1006.5 61.3a16.32 16.32 0 0 1 -4.5 2.8 13.89 13.89 0 0 1 -4.6.8 9.33 9.33 0 0 1 -6.3-2 6.39 6.39 0 0 1 -2.2-5.1 7.31 7.31 0 0 1 .8-3.3 6.36 6.36 0 0 1 2.2-2.4 10.32 10.32 0 0 1 3-1.4 35.68 35.68 0 0 1 3.7-.6 34.6 34.6 0 0 0 7.5-1.5v-1.1a4.59 4.59 0 0 0 -1.2-3.6 6.89 6.89 0 0 0 -4.8-1.4 7.54 7.54 0 0 0 -4.4 1 6.82 6.82 0 0 0 -2.1 3.7l-4.1-.6a11.38 11.38 0 0 1 1.8-4.3 8.38 8.38 0 0 1 3.7-2.5 16 16 0 0 1 5.6-.9 15.57 15.57 0 0 1 5.2.7 6.38 6.38 0 0 1 2.9 1.9 6.45 6.45 0 0 1 1.3 2.9 29.89 29.89 0 0 1 .2 3.9v5.7a52.76 52.76 0 0 0 .3 7.4 9.12 9.12 0 0 0 1.1 3h-4.4a12.9 12.9 0 0 1 -.7-3.1zm-.3-9.4a29.4 29.4 0 0 1 -6.9 1.6 15 15 0 0 0 -3.7.8 3.91 3.91 0 0 0 -1.7 1.4 3.61 3.61 0 0 0 -.6 2 3.41 3.41 0 0 0 1.3 2.8 5.82 5.82 0 0 0 3.7 1.1 8.58 8.58 0 0 0 4.3-1.1 6.52 6.52 0 0 0 2.8-2.9 9.64 9.64 0 0 0 .7-4.2v-1.5z" transform="translate(0 1.6)"/><path d="m1016.2 66.4 4.1.6a4 4 0 0 0 1.4 2.8 6.87 6.87 0 0 0 4.3 1.2 7.31 7.31 0 0 0 4.5-1.2 5.9 5.9 0 0 0 2.2-3.3 30.62 30.62 0 0 0 .3-5.4 8.52 8.52 0 0 1 -6.9 3.3 9.16 9.16 0 0 1 -7.9-3.7 14.75 14.75 0 0 1 -2.8-8.9 15.88 15.88 0 0 1 1.3-6.6 10.11 10.11 0 0 1 3.7-4.6 10.58 10.58 0 0 1 5.7-1.6 9 9 0 0 1 7.3 3.6v-3h3.9v21.4c0 3.9-.4 6.6-1.2 8.2a8.48 8.48 0 0 1 -3.7 3.8 13.33 13.33 0 0 1 -6.3 1.4 12 12 0 0 1 -7.2-2 6.45 6.45 0 0 1 -2.7-6zm3.5-14.9c0 3.3.6 5.6 1.9 7.1a6.12 6.12 0 0 0 4.9 2.2 6.26 6.26 0 0 0 4.9-2.2c1.3-1.5 2-3.8 2-7a10.7 10.7 0 0 0 -2-6.9 6.36 6.36 0 0 0 -4.9-2.3 6.16 6.16 0 0 0 -4.8 2.3c-1.4 1.5-2 3.8-2 6.8z" transform="translate(0 1.6)"/><path d="m1060.6 56.4 4.4.5a11.07 11.07 0 0 1 -3.8 5.9 11.51 11.51 0 0 1 -7.1 2.1 11.08 11.08 0 0 1 -8.6-3.4c-2.1-2.2-3.2-5.4-3.2-9.4 0-4.2 1.1-7.4 3.2-9.7a11 11 0 0 1 8.4-3.5 10.43 10.43 0 0 1 8.1 3.4c2.1 2.3 3.2 5.4 3.2 9.5v1.1h-18.5a10 10 0 0 0 2.3 6.3 7.25 7.25 0 0 0 9.2 1 9.22 9.22 0 0 0 2.4-3.8zm-13.8-6.8h13.9a8.15 8.15 0 0 0 -1.6-4.7 6.45 6.45 0 0 0 -5.2-2.4 6.71 6.71 0 0 0 -4.9 1.9 7.56 7.56 0 0 0 -2.2 5.2z" transform="translate(0 1.6)"/><path d="m1098.3 64.4h-4.2v-26.9a19.73 19.73 0 0 1 -4 2.9 25.68 25.68 0 0 1 -4.4 2.2v-4.1a24.47 24.47 0 0 0 6.2-4 14.63 14.63 0 0 0 3.7-4.6h2.7z" transform="translate(0 1.6)"/><path d="m895.5 109.8 4.5 1.1a15.74 15.74 0 0 1 -5.1 8.5 14 14 0 0 1 -9.1 2.9 16.22 16.22 0 0 1 -9-2.3 14.31 14.31 0 0 1 -5.3-6.5 23.58 23.58 0 0 1 -1.8-9.2 20.58 20.58 0 0 1 2-9.3 14.26 14.26 0 0 1 5.8-6.1 16.79 16.79 0 0 1 8.3-2.1 14.69 14.69 0 0 1 8.7 2.6 13 13 0 0 1 4.9 7.4l-4.4 1.2a11.16 11.16 0 0 0 -3.5-5.5 9.41 9.41 0 0 0 -5.7-1.7 11 11 0 0 0 -6.6 1.9 10 10 0 0 0 -3.7 5.1 20.76 20.76 0 0 0 -1.1 6.6 19.51 19.51 0 0 0 1.3 7.6 9.83 9.83 0 0 0 4 4.9 10.8 10.8 0 0 0 5.8 1.6 9.85 9.85 0 0 0 6.5-2.2c1.8-1.5 2.8-3.6 3.5-6.5z" transform="translate(0 1.6)"/><path d="m903.5 109.4c0-4.6 1.3-8 3.8-10.2a11.64 11.64 0 0 1 7.8-2.8 11.08 11.08 0 0 1 8.4 3.4q3.3 3.3 3.3 9.3a17 17 0 0 1 -1.4 7.5 10.86 10.86 0 0 1 -4.2 4.3 12.14 12.14 0 0 1 -6 1.5 11.07 11.07 0 0 1 -8.4-3.3c-2.2-2.2-3.3-5.5-3.3-9.7zm4.3 0c0 3.2.7 5.6 2.1 7.1a6.83 6.83 0 0 0 10.4 0c1.4-1.6 2.1-4 2.1-7.3 0-3.1-.7-5.4-2.1-7a6.59 6.59 0 0 0 -5.2-2.4 6.45 6.45 0 0 0 -5.2 2.4q-2.1 2.55-2.1 7.2z" transform="translate(0 1.6)"/><path d="m931.7 121.9v-24.9h3.8v3.5a9 9 0 0 1 7.9-4.1 10.7 10.7 0 0 1 4.1.8 5.63 5.63 0 0 1 2.8 2.1 7.85 7.85 0 0 1 1.3 3.1 20.78 20.78 0 0 1 .2 4.1v15.3h-4.2v-15.1a11.56 11.56 0 0 0 -.5-3.8 3.71 3.71 0 0 0 -1.7-2 5.47 5.47 0 0 0 -2.9-.8 6.88 6.88 0 0 0 -4.6 1.7c-1.3 1.1-2 3.3-2 6.5v13.6z" transform="translate(0 1.6)"/><path d="m956.7 114.4 4.2-.7a5.46 5.46 0 0 0 2 3.8 6.89 6.89 0 0 0 4.5 1.3 6.49 6.49 0 0 0 4.3-1.2 3.65 3.65 0 0 0 1.4-2.8 2.4 2.4 0 0 0 -1.2-2.2 14.72 14.72 0 0 0 -4.3-1.4 51.09 51.09 0 0 1 -6.4-2 6.36 6.36 0 0 1 -2.7-2.4 6.29 6.29 0 0 1 -.9-3.3 6.81 6.81 0 0 1 .8-3.1 7.91 7.91 0 0 1 2.1-2.4 7.55 7.55 0 0 1 2.7-1.2 13.61 13.61 0 0 1 3.6-.5 15.6 15.6 0 0 1 5.1.8 7 7 0 0 1 3.3 2.3 9.45 9.45 0 0 1 1.5 3.8l-4.1.6a4.44 4.44 0 0 0 -1.6-3 6.13 6.13 0 0 0 -3.8-1.1c-1.9 0-3.3.3-4.1 1a2.76 2.76 0 0 0 -1.2 2.2 3 3 0 0 0 .5 1.5 3.26 3.26 0 0 0 1.6 1.1c.4.2 1.7.5 3.7 1.1a34.41 34.41 0 0 1 6.2 2 5.85 5.85 0 0 1 3.8 5.8 7.46 7.46 0 0 1 -1.2 4 8.43 8.43 0 0 1 -3.5 2.9 12.38 12.38 0 0 1 -5.2 1c-3.2 0-5.7-.7-7.4-2-2.2-1.2-3.3-3.2-3.7-5.9z" transform="translate(0 1.6)"/><path d="m980.8 109.4c0-4.6 1.3-8 3.8-10.2a11.64 11.64 0 0 1 7.8-2.8 11.08 11.08 0 0 1 8.4 3.4q3.3 3.3 3.3 9.3a17 17 0 0 1 -1.4 7.5 10.86 10.86 0 0 1 -4.2 4.3 12.14 12.14 0 0 1 -6 1.5 11.07 11.07 0 0 1 -8.4-3.3c-2.3-2.2-3.3-5.5-3.3-9.7zm4.3 0c0 3.2.7 5.6 2.1 7.1a6.83 6.83 0 0 0 10.4 0c1.4-1.6 2.1-4 2.1-7.3 0-3.1-.7-5.4-2.1-7a6.59 6.59 0 0 0 -5.2-2.4 6.45 6.45 0 0 0 -5.2 2.4q-2.1 2.55-2.1 7.2z" transform="translate(0 1.6)"/><path d="m1008.9 121.9v-34.3h4.2v34.3z" transform="translate(0 1.6)"/><path d="m1019.6 92.4v-4.8h4.2v4.8zm0 29.5v-24.9h4.2v24.8z" transform="translate(0 1.6)"/><path d="m1046.4 121.9v-3.1a7.67 7.67 0 0 1 -6.9 3.7 9.81 9.81 0 0 1 -5.5-1.6 11.06 11.06 0 0 1 -3.9-4.6 16.18 16.18 0 0 1 -1.4-6.8 18.68 18.68 0 0 1 1.2-6.8 9.52 9.52 0 0 1 3.7-4.6 10.4 10.4 0 0 1 5.5-1.6 8.17 8.17 0 0 1 6.9 3.4v-12.3h4.2v34.3zm-13.3-12.4c0 3.2.7 5.6 2 7.1a5.92 5.92 0 0 0 4.7 2.4 6.11 6.11 0 0 0 4.7-2.3c1.3-1.5 1.9-3.8 1.9-6.9 0-3.4-.7-5.9-2-7.5a6 6 0 0 0 -9.5-.1c-1.2 1.6-1.8 4-1.8 7.3z" transform="translate(0 1.6)"/><path d="m1073.1 118.8a16.32 16.32 0 0 1 -4.5 2.8 13.89 13.89 0 0 1 -4.6.8 9.33 9.33 0 0 1 -6.3-2 6.39 6.39 0 0 1 -2.2-5.1 6.67 6.67 0 0 1 3-5.7 10.32 10.32 0 0 1 3-1.4 35.68 35.68 0 0 1 3.7-.6 34.6 34.6 0 0 0 7.5-1.5v-1.1a4.59 4.59 0 0 0 -1.2-3.6 6.89 6.89 0 0 0 -4.8-1.4 7.54 7.54 0 0 0 -4.4 1 6.82 6.82 0 0 0 -2.1 3.7l-4.1-.6a11.38 11.38 0 0 1 1.8-4.3 8.38 8.38 0 0 1 3.7-2.5 16 16 0 0 1 5.6-.9 15.57 15.57 0 0 1 5.2.7 6.38 6.38 0 0 1 2.9 1.9 6.45 6.45 0 0 1 1.3 2.9 29.89 29.89 0 0 1 .2 3.9v5.6a52.76 52.76 0 0 0 .3 7.4 9.12 9.12 0 0 0 1.1 3h-4.4a16.7 16.7 0 0 1 -.7-3zm-.3-9.4a29.4 29.4 0 0 1 -6.9 1.6 15 15 0 0 0 -3.7.8 3.91 3.91 0 0 0 -1.7 1.4 3.61 3.61 0 0 0 -.6 2 3.41 3.41 0 0 0 1.3 2.8 5.82 5.82 0 0 0 3.7 1.1 8.58 8.58 0 0 0 4.3-1.1 6.52 6.52 0 0 0 2.8-2.9 9.64 9.64 0 0 0 .7-4.2z" transform="translate(0 1.6)"/><path d="m1092.8 118.1.6 3.7a19.94 19.94 0 0 1 -3.2.4 7.45 7.45 0 0 1 -3.6-.7 4.69 4.69 0 0 1 -1.8-1.9 16.51 16.51 0 0 1 -.5-5v-14.3h-3.1v-3.3h3.1v-6.2l4.2-2.5v8.7h4.2v3.3h-4.2v14.5a9.21 9.21 0 0 0 .2 2.3 1.78 1.78 0 0 0 .7.8 2.65 2.65 0 0 0 1.4.3 7 7 0 0 0 2-.1z" transform="translate(0 1.6)"/><path d="m1096.9 92.4v-4.8h4.2v4.8zm0 29.5v-24.9h4.2v24.8z" transform="translate(0 1.6)"/><path d="m1106 109.4c0-4.6 1.3-8 3.8-10.2a11.64 11.64 0 0 1 7.8-2.8 11.08 11.08 0 0 1 8.4 3.4q3.3 3.3 3.3 9.3a17 17 0 0 1 -1.4 7.5 10.86 10.86 0 0 1 -4.2 4.3 12.14 12.14 0 0 1 -6 1.5 11.07 11.07 0 0 1 -8.4-3.3c-2.3-2.2-3.3-5.5-3.3-9.7zm4.3 0c0 3.2.7 5.6 2.1 7.1a6.83 6.83 0 0 0 10.4 0c1.4-1.6 2.1-4 2.1-7.3 0-3.1-.7-5.4-2.1-7a6.59 6.59 0 0 0 -5.2-2.4 6.45 6.45 0 0 0 -5.2 2.4q-2.1 2.55-2.1 7.2z" transform="translate(0 1.6)"/><path d="m1134.2 121.9v-24.9h3.8v3.5a9 9 0 0 1 7.9-4.1 10.7 10.7 0 0 1 4.1.8 5.63 5.63 0 0 1 2.8 2.1 7.85 7.85 0 0 1 1.3 3.1 20.78 20.78 0 0 1 .2 4.1v15.3h-4.2v-15.1a11.56 11.56 0 0 0 -.5-3.8 3.71 3.71 0 0 0 -1.7-2 5.47 5.47 0 0 0 -2.9-.8 6.88 6.88 0 0 0 -4.6 1.7c-1.3 1.1-2 3.3-2 6.5v13.6z" transform="translate(0 1.6)"/><path d="m1159.1 114.4 4.2-.7a5.46 5.46 0 0 0 2 3.8 6.89 6.89 0 0 0 4.5 1.3 6.49 6.49 0 0 0 4.3-1.2 3.65 3.65 0 0 0 1.4-2.8 2.4 2.4 0 0 0 -1.2-2.2 14.72 14.72 0 0 0 -4.3-1.4 51.09 51.09 0 0 1 -6.4-2 6.36 6.36 0 0 1 -2.7-2.4 6.29 6.29 0 0 1 -.9-3.3 6.81 6.81 0 0 1 .8-3.1 7.91 7.91 0 0 1 2.1-2.4 7.55 7.55 0 0 1 2.7-1.2 13.61 13.61 0 0 1 3.6-.5 15.6 15.6 0 0 1 5.1.8 7 7 0 0 1 3.3 2.3 9.45 9.45 0 0 1 1.5 3.8l-4.1.6a4.44 4.44 0 0 0 -1.6-3 6.13 6.13 0 0 0 -3.8-1.1c-1.9 0-3.3.3-4.1 1a2.76 2.76 0 0 0 -1.2 2.2 3 3 0 0 0 .5 1.5 3.26 3.26 0 0 0 1.6 1.1c.4.2 1.7.5 3.7 1.1a34.41 34.41 0 0 1 6.2 2 5.85 5.85 0 0 1 3.8 5.8 7.46 7.46 0 0 1 -1.2 4 8.43 8.43 0 0 1 -3.5 2.9 12.38 12.38 0 0 1 -5.2 1c-3.2 0-5.7-.7-7.4-2-2.1-1.2-3.2-3.2-3.7-5.9z" transform="translate(0 1.6)"/><path d="m864.6 168.3 4.3-.4a9.92 9.92 0 0 0 1.4 4.2 7.63 7.63 0 0 0 3.5 2.7 12.85 12.85 0 0 0 5.3 1 13 13 0 0 0 4.6-.8 6.76 6.76 0 0 0 3-2.1 5.34 5.34 0 0 0 1-2.9 4.47 4.47 0 0 0 -.9-2.8 6.68 6.68 0 0 0 -3.1-2 60.63 60.63 0 0 0 -6.1-1.7 36.8 36.8 0 0 1 -6.6-2.1 9.79 9.79 0 0 1 -3.7-3.2 8 8 0 0 1 -1.2-4.3 9.06 9.06 0 0 1 1.5-4.9 9.24 9.24 0 0 1 4.3-3.4 16.08 16.08 0 0 1 6.3-1.2 17.41 17.41 0 0 1 6.7 1.2 10.05 10.05 0 0 1 4.5 3.6 11.1 11.1 0 0 1 1.7 5.4l-4.4.3a6.62 6.62 0 0 0 -2.4-4.9c-1.3-1.1-3.3-1.7-6-1.7s-4.7.5-6 1.5a4.38 4.38 0 0 0 -1.9 3.6 3.8 3.8 0 0 0 1.3 3c.9.8 3.2 1.6 6.8 2.4a44.58 44.58 0 0 1 7.6 2.2 9.94 9.94 0 0 1 4.4 3.5 8.08 8.08 0 0 1 1.4 4.9 9.32 9.32 0 0 1 -1.6 5.2 10 10 0 0 1 -4.5 3.8 15.88 15.88 0 0 1 -6.6 1.3 19.78 19.78 0 0 1 -7.8-1.4 11 11 0 0 1 -4.9-4.1 10.13 10.13 0 0 1 -1.9-5.9z" transform="translate(0 1.6)"/><path d="m894.3 179.4 13.2-34.3h4.9l14 34.3h-5.2l-4-10.4h-14.3l-3.8 10.4zm9.9-14.1h11.6l-3.6-9.5c-1.1-2.9-1.9-5.3-2.4-7.1a54 54 0 0 1 -1.8 6.6z" transform="translate(0 1.6)"/><path d="m930.1 179.4v-34.3h12.9a33.59 33.59 0 0 1 5.2.3 10 10 0 0 1 4.2 1.6 8 8 0 0 1 2.7 3.3 11.31 11.31 0 0 1 -1.8 12.1c-1.9 2-5.2 3-10.1 3h-8.8v13.9h-4.3zm4.5-18h8.9c2.9 0 5-.5 6.2-1.6a5.88 5.88 0 0 0 1.8-4.6 6.47 6.47 0 0 0 -1.1-3.7 5 5 0 0 0 -2.9-2 19.88 19.88 0 0 0 -4.2-.3h-8.8z" transform="translate(0 1.6)"/><path d="m974.6 179.4v-34.3h4.5v14.1h17.9v-14.1h4.5v34.3h-4.5v-16.2h-17.8v16.2z" transform="translate(0 1.6)"/><path d="m1005.3 179.4 13.2-34.3h4.9l14 34.3h-5.2l-4-10.4h-14.3l-3.8 10.4zm9.9-14.1h11.6l-3.6-9.5c-1.1-2.9-1.9-5.3-2.4-7.1a54 54 0 0 1 -1.8 6.6z" transform="translate(0 1.6)"/><path d="m1041 179.4v-34.3h4.7l18 26.9v-26.9h4.4v34.3h-4.7l-18-27v27z" transform="translate(0 1.6)"/><path d="m1071.9 179.4 13.2-34.3h4.9l14 34.3h-5.2l-4-10.4h-14.3l-3.8 10.4zm9.9-14.1h11.6l-3.6-9.5c-1.1-2.9-1.9-5.3-2.4-7.1a54 54 0 0 1 -1.8 6.6z" transform="translate(0 1.6)"/><path d="m1116.7 168.3 4.3-.4a9.92 9.92 0 0 0 1.4 4.2 7.63 7.63 0 0 0 3.5 2.7 12.85 12.85 0 0 0 5.3 1 13 13 0 0 0 4.6-.8 6.76 6.76 0 0 0 3-2.1 5.34 5.34 0 0 0 1-2.9 4.47 4.47 0 0 0 -.9-2.8 6.68 6.68 0 0 0 -3.1-2 60.63 60.63 0 0 0 -6.1-1.7 36.8 36.8 0 0 1 -6.6-2.1 9.79 9.79 0 0 1 -3.7-3.2 8 8 0 0 1 -1.2-4.3 9.06 9.06 0 0 1 1.5-4.9 9.24 9.24 0 0 1 4.3-3.4 16.08 16.08 0 0 1 6.3-1.2 17.41 17.41 0 0 1 6.7 1.2 10.05 10.05 0 0 1 4.5 3.6 11.1 11.1 0 0 1 1.7 5.4l-4.4.3a6.62 6.62 0 0 0 -2.4-4.9c-1.3-1.1-3.3-1.7-6-1.7s-4.7.5-6 1.5a4.38 4.38 0 0 0 -1.9 3.6 3.8 3.8 0 0 0 1.3 3c.9.8 3.2 1.6 6.8 2.4a44.58 44.58 0 0 1 7.6 2.2 9.94 9.94 0 0 1 4.4 3.5 8.08 8.08 0 0 1 1.4 4.9 9.32 9.32 0 0 1 -1.6 5.2 10 10 0 0 1 -4.5 3.8 15.88 15.88 0 0 1 -6.6 1.3 19.78 19.78 0 0 1 -7.8-1.4 11.34 11.34 0 0 1 -6.8-10z" transform="translate(0 1.6)"/><path d="m1146.5 180 9.9-35.5h3.4l-9.9 35.5z" transform="translate(0 1.6)"/><path d="m1175.3 179.4v-8.2h-14.9v-3.9l15.7-22.2h3.4v22.2h4.6v3.9h-4.6v8.2zm0-12.1v-15.5l-10.7 15.5z" transform="translate(0 1.6)"/><path d="m859.3 546.2c.1-.6.2-1.3.3-2.2 0-1.8-.1-3.7-.1-5.5v-285.1c0-9.7-5-16.6-13.5-20.7-4.1-2-8.1-1.5-12.2-1.5h-769.6a41 41 0 0 0 -7 .2c-5.4 1-10.7 2.6-13.6 8-4.6 6.8-4 14.5-4 22.2q.15 172.65-.1 345.3c0 9.1 2 16.8 8.3 23.2 6.4 4.5 13.7 4.1 20.9 4h768.4c13.3 0 22.4-9.3 22.4-22.7 0-20.3.1-40.7.1-61v-1a8.13 8.13 0 0 0 -.3-3.2z" fill="#5b9ad4" transform="translate(0 1.6)"/><text fill="#fff" font-family="ArialMT, Arial" font-size="37.99" transform="translate(322.74 312.4)">SA<tspan letter-spacing="-.02em" x="50.68" y="0">P</tspan><tspan x="75.33" xml:space="preserve" y="0"> HAN</tspan><tspan letter-spacing="-.06em" x="166.09" y="0">A</tspan><tspan letter-spacing="0em" x="189.34" xml:space="preserve" y="0"> S/4</tspan></text><g transform="translate(0 1.6)"><path d="m381.7 544.5a25 25 0 0 1 -12.9 3.2q-113.25-.15-226.4-.1c-14.7 0-23-8.5-23-23.5v-111.5c0-14.6.1-29.3 0-43.9a36.82 36.82 0 0 1 1.9-12.8c5.3-9.6 13.5-12.5 24.1-12.4 74.3.3 148.5.1 222.8.1 13.8 0 22.5 8.6 22.5 22.4q0 80 .1 159.8c0 8-3.3 13.9-9.1 18.7z" fill="#528035"/><path d="m381.7 544.5a25 25 0 0 1 -12.9 3.2q-113.25-.15-226.4-.1c-14.7 0-23-8.5-23-23.5v-111.5c0-14.6.1-29.3 0-43.9a36.82 36.82 0 0 1 1.9-12.8c5.3-9.6 13.5-12.5 24.1-12.4 74.3.3 148.5.1 222.8.1 13.8 0 22.5 8.6 22.5 22.4q0 80 .1 159.8c0 8-3.3 13.9-9.1 18.7z" fill="none" stroke="#c2c2c2" stroke-miterlimit="10" stroke-width="2"/><path d="m190 432.8v-24.2h16.3v2.9h-13.1v7.5h11.3v2.9h-11.3v11h-3.2z" fill="#fff"/><path d="m210.1 412v-3.4h3v3.4zm0 20.8v-17.5h3v17.5z" fill="#fff"/><path d="m217.5 432.8v-17.5h2.7v2.5a6.34 6.34 0 0 1 5.6-2.9 6.84 6.84 0 0 1 2.9.6 5.27 5.27 0 0 1 2 1.5 6.34 6.34 0 0 1 .9 2.2 17.47 17.47 0 0 1 .2 2.9v10.8h-3v-10.7a9.1 9.1 0 0 0 -.3-2.7 2.36 2.36 0 0 0 -1.2-1.4 3.64 3.64 0 0 0 -2.1-.5 5 5 0 0 0 -3.3 1.2c-.9.8-1.4 2.3-1.4 4.6v9.6h-3z" fill="#fff"/><path d="m247.7 430.7a12.8 12.8 0 0 1 -3.2 2 8.81 8.81 0 0 1 -3.3.6 6.45 6.45 0 0 1 -4.4-1.4 4.61 4.61 0 0 1 -1.5-3.6 5 5 0 0 1 2.1-4.1 6.81 6.81 0 0 1 2.1-1 13 13 0 0 1 2.6-.4 29.51 29.51 0 0 0 5.3-1v-.8a3.67 3.67 0 0 0 -.8-2.6 4.94 4.94 0 0 0 -3.4-1 5.27 5.27 0 0 0 -3.1.7 4.4 4.4 0 0 0 -1.5 2.6l-2.9-.4a8.26 8.26 0 0 1 1.3-3 5.54 5.54 0 0 1 2.6-1.8 12 12 0 0 1 4-.6 11.52 11.52 0 0 1 3.6.5 6.88 6.88 0 0 1 2.1 1.3 4.11 4.11 0 0 1 .9 2 17.89 17.89 0 0 1 .1 2.7v4a45.46 45.46 0 0 0 .2 5.2 8.64 8.64 0 0 0 .7 2.1h-3.1c-.1-.5-.3-1.2-.4-2zm-.3-6.7a24.73 24.73 0 0 1 -4.8 1.1 14.56 14.56 0 0 0 -2.6.6 2.34 2.34 0 0 0 -1.2 1 2.3 2.3 0 0 0 -.4 1.4 2.52 2.52 0 0 0 .9 2 4 4 0 0 0 2.6.8 5 5 0 0 0 3-.8 5.06 5.06 0 0 0 2-2.1 7.75 7.75 0 0 0 .5-3z" fill="#fff"/><path d="m255 432.8v-17.5h2.7v2.5a6.34 6.34 0 0 1 5.6-2.9 6.84 6.84 0 0 1 2.9.6 5.27 5.27 0 0 1 2 1.5 6.34 6.34 0 0 1 .9 2.2 17.47 17.47 0 0 1 .2 2.9v10.8h-3v-10.7a9.1 9.1 0 0 0 -.3-2.7 2.36 2.36 0 0 0 -1.2-1.4 3.64 3.64 0 0 0 -2.1-.5 5 5 0 0 0 -3.3 1.2c-.9.8-1.4 2.3-1.4 4.6v9.6h-3z" fill="#fff"/><path d="m285.1 426.4 2.9.4a7.37 7.37 0 0 1 -2.4 4.7 7.21 7.21 0 0 1 -4.8 1.7 7.54 7.54 0 0 1 -5.8-2.4c-1.5-1.6-2.2-3.8-2.2-6.7a12.76 12.76 0 0 1 .9-5 6.47 6.47 0 0 1 2.9-3.2 8.77 8.77 0 0 1 4.2-1.1 7.93 7.93 0 0 1 4.7 1.4 6.47 6.47 0 0 1 2.3 4.1l-2.9.4a5.05 5.05 0 0 0 -1.5-2.7 3.66 3.66 0 0 0 -2.5-.9 4.38 4.38 0 0 0 -3.6 1.6 8 8 0 0 0 -1.4 5.1c0 2.4.4 4.1 1.3 5.1a4.31 4.31 0 0 0 3.5 1.6 4.17 4.17 0 0 0 2.9-1.1c.8-.4 1.3-1.5 1.5-3z" fill="#fff"/><path d="m302.5 427.2 3.1.4a7.71 7.71 0 0 1 -2.7 4.2 8 8 0 0 1 -5 1.5 7.91 7.91 0 0 1 -6.1-2.4c-1.5-1.6-2.2-3.8-2.2-6.7a9.9 9.9 0 0 1 2.3-6.9 7.76 7.76 0 0 1 5.9-2.4 7.48 7.48 0 0 1 5.7 2.4c1.5 1.6 2.2 3.8 2.2 6.7v.8h-13a7 7 0 0 0 1.6 4.4 5 5 0 0 0 3.7 1.5 4.47 4.47 0 0 0 2.8-.9 4.73 4.73 0 0 0 1.7-2.6zm-9.7-4.8h9.8a5.59 5.59 0 0 0 -1.1-3.3 4.65 4.65 0 0 0 -3.7-1.7 4.6 4.6 0 0 0 -3.4 1.4 4.87 4.87 0 0 0 -1.6 3.6z" fill="#fff"/><path d="m174.4 464.7c0-3.2.9-5.7 2.7-7.2a8 8 0 0 1 5.5-1.9 7.76 7.76 0 0 1 5.9 2.4 9.29 9.29 0 0 1 2.3 6.6 11.12 11.12 0 0 1 -1 5.3 7.62 7.62 0 0 1 -2.9 3 8.48 8.48 0 0 1 -4.2 1.1 7.76 7.76 0 0 1 -5.9-2.4c-1.7-1.7-2.4-4-2.4-6.9zm3 0a7.29 7.29 0 0 0 1.5 5 4.88 4.88 0 0 0 7.4 0q1.5-1.65 1.5-5.1a7 7 0 0 0 -1.5-4.9 4.88 4.88 0 0 0 -7.4 0c-1 1-1.5 2.7-1.5 5z" fill="#fff"/><path d="m194.2 480.2v-24.3h2.7v2.3a5.92 5.92 0 0 1 2.2-2 6.53 6.53 0 0 1 2.9-.7 6.45 6.45 0 0 1 3.9 1.2 7.84 7.84 0 0 1 2.6 3.3 11.44 11.44 0 0 1 .9 4.6 10.58 10.58 0 0 1 -1 4.8 7.54 7.54 0 0 1 -2.8 3.3 6.79 6.79 0 0 1 -3.9 1.1 6 6 0 0 1 -2.7-.6 4.94 4.94 0 0 1 -1.9-1.6v8.5h-2.9zm2.7-15.4a7.65 7.65 0 0 0 1.4 5 4.07 4.07 0 0 0 3.3 1.6 4.51 4.51 0 0 0 3.4-1.7c1-1.1 1.4-2.9 1.4-5.2a7.84 7.84 0 0 0 -1.4-5 4.17 4.17 0 0 0 -3.3-1.7 4 4 0 0 0 -3.3 1.8 7.87 7.87 0 0 0 -1.5 5.2z" fill="#fff"/><path d="m224.9 467.8 3.1.4a7.71 7.71 0 0 1 -2.7 4.2 8 8 0 0 1 -5 1.5 7.91 7.91 0 0 1 -6.1-2.4c-1.5-1.6-2.2-3.8-2.2-6.7a9.9 9.9 0 0 1 2.3-6.9 7.76 7.76 0 0 1 5.9-2.4 7.48 7.48 0 0 1 5.7 2.4c1.5 1.6 2.2 3.8 2.2 6.7v.8h-13a7 7 0 0 0 1.6 4.4 5 5 0 0 0 3.7 1.5 4.47 4.47 0 0 0 2.8-.9 6.13 6.13 0 0 0 1.7-2.6zm-9.7-4.8h9.8a5.59 5.59 0 0 0 -1.1-3.3 4.65 4.65 0 0 0 -3.7-1.7 4.6 4.6 0 0 0 -3.4 1.4 4.87 4.87 0 0 0 -1.6 3.6z" fill="#fff"/><path d="m231.6 473.4v-17.5h2.7v2.7a8 8 0 0 1 1.9-2.5 3.29 3.29 0 0 1 1.9-.6 5.13 5.13 0 0 1 3 1l-1 2.8a4.28 4.28 0 0 0 -2.2-.6 2.72 2.72 0 0 0 -1.7.6 3.09 3.09 0 0 0 -1.1 1.6 12.86 12.86 0 0 0 -.5 3.5v9.2h-3z" fill="#fff"/><path d="m254.3 471.3a12.8 12.8 0 0 1 -3.2 2 8.81 8.81 0 0 1 -3.3.6 6.45 6.45 0 0 1 -4.4-1.4 4.61 4.61 0 0 1 -1.5-3.6 5 5 0 0 1 2.1-4.1 6.81 6.81 0 0 1 2.1-1 13 13 0 0 1 2.6-.4 29.51 29.51 0 0 0 5.3-1v-.8a3.67 3.67 0 0 0 -.8-2.6 4.94 4.94 0 0 0 -3.4-1 5.27 5.27 0 0 0 -3.1.7 4.4 4.4 0 0 0 -1.5 2.6l-2.9-.4a8.26 8.26 0 0 1 1.3-3 5.54 5.54 0 0 1 2.6-1.8 12 12 0 0 1 4-.6 11.52 11.52 0 0 1 3.6.5 6.88 6.88 0 0 1 2.1 1.3 4.11 4.11 0 0 1 .9 2 17.89 17.89 0 0 1 .1 2.7v4a45.46 45.46 0 0 0 .2 5.2 8.64 8.64 0 0 0 .7 2.1h-3.1a5.44 5.44 0 0 1 -.4-2zm-.3-6.7a24.73 24.73 0 0 1 -4.8 1.1 14.56 14.56 0 0 0 -2.6.6 2.34 2.34 0 0 0 -1.2 1 2.3 2.3 0 0 0 -.4 1.4 2.52 2.52 0 0 0 .9 2 4 4 0 0 0 2.6.8 5 5 0 0 0 3-.8 5.06 5.06 0 0 0 2-2.1 7.75 7.75 0 0 0 .5-3z" fill="#fff"/><path d="m268.1 470.8.4 2.6a9.58 9.58 0 0 1 -2.2.3 5.51 5.51 0 0 1 -2.5-.5 2.5 2.5 0 0 1 -1.2-1.3 11.66 11.66 0 0 1 -.4-3.5v-10.1h-2.2v-2.3h2.2v-4.3l2.9-1.8v6.1h3v2.3h-3v10.3a4.66 4.66 0 0 0 .2 1.6 2.65 2.65 0 0 0 .5.6 2.51 2.51 0 0 0 1 .2 12.29 12.29 0 0 1 1.3-.2z" fill="#fff"/><path d="m271 452.6v-3.4h3v3.4zm0 20.8v-17.5h3v17.5z" fill="#fff"/><path d="m277.3 464.7c0-3.2.9-5.7 2.7-7.2a8 8 0 0 1 5.5-1.9 7.76 7.76 0 0 1 5.9 2.4 9.29 9.29 0 0 1 2.3 6.6 11.12 11.12 0 0 1 -1 5.3 7.62 7.62 0 0 1 -2.9 3 8.48 8.48 0 0 1 -4.2 1.1 7.76 7.76 0 0 1 -5.9-2.4 9.66 9.66 0 0 1 -2.4-6.9zm3.1 0a7.29 7.29 0 0 0 1.5 5 4.88 4.88 0 0 0 7.4 0q1.5-1.65 1.5-5.1a7 7 0 0 0 -1.5-4.9 4.88 4.88 0 0 0 -7.4 0c-1 1-1.5 2.7-1.5 5z" fill="#fff"/><path d="m297.2 473.4v-17.5h2.7v2.5a6.34 6.34 0 0 1 5.6-2.9 6.84 6.84 0 0 1 2.9.6 5.27 5.27 0 0 1 2 1.5 6.34 6.34 0 0 1 .9 2.2 17.47 17.47 0 0 1 .2 2.9v10.8h-3v-10.7a9.1 9.1 0 0 0 -.3-2.7 2.36 2.36 0 0 0 -1.2-1.4 3.64 3.64 0 0 0 -2.1-.5 5 5 0 0 0 -3.3 1.2c-.9.8-1.4 2.3-1.4 4.6v9.6h-3z" fill="#fff"/><path d="m314.7 468.2 2.9-.5a4 4 0 0 0 1.4 2.7 5 5 0 0 0 3.1.9 4.68 4.68 0 0 0 3-.8 2.46 2.46 0 0 0 1-2 1.8 1.8 0 0 0 -.9-1.6 10.87 10.87 0 0 0 -3-1 31.34 31.34 0 0 1 -4.5-1.4 4.51 4.51 0 0 1 -1.9-1.7 4.75 4.75 0 0 1 -.6-2.4 5.45 5.45 0 0 1 .5-2.2 4.86 4.86 0 0 1 1.5-1.7 11.39 11.39 0 0 1 1.9-.9 10.13 10.13 0 0 1 2.6-.4 9.69 9.69 0 0 1 3.6.6 5 5 0 0 1 2.3 1.6 6.62 6.62 0 0 1 1 2.7l-2.9.4a3.09 3.09 0 0 0 -1.1-2.1 4.14 4.14 0 0 0 -2.7-.8 4.42 4.42 0 0 0 -2.9.7 2.06 2.06 0 0 0 -.9 1.6 1.28 1.28 0 0 0 .4 1 2.42 2.42 0 0 0 1.1.8c.3.1 1.2.4 2.6.8a33.4 33.4 0 0 1 4.4 1.4 4.31 4.31 0 0 1 1.9 1.6 4.09 4.09 0 0 1 .7 2.5 4.9 4.9 0 0 1 -.9 2.8 5 5 0 0 1 -2.5 2 10.6 10.6 0 0 1 -3.7.7 8.48 8.48 0 0 1 -5.2-1.4 5.46 5.46 0 0 1 -2.2-3.9z" fill="#fff"/><path d="m527.8 344a326.62 326.62 0 0 1 275.9-1.5v202.8a468.42 468.42 0 0 1 -275.9-3z" fill="#b3b3b3"/><path d="m800.9 543.8a477.76 477.76 0 0 1 -270.7-3v-151.9a465.77 465.77 0 0 0 270.7 1.5z" fill="#2e74b4"/><path d="m576.6 477.1 4.2-.4a9 9 0 0 0 1.4 4.1 6.61 6.61 0 0 0 3.4 2.6 11.91 11.91 0 0 0 5.1 1 12.46 12.46 0 0 0 4.5-.8 5.93 5.93 0 0 0 2.9-2.1 5 5 0 0 0 .9-2.9 4.47 4.47 0 0 0 -.9-2.8 6.32 6.32 0 0 0 -3-2 43.18 43.18 0 0 0 -6-1.6 27.22 27.22 0 0 1 -6.5-2.1 9.25 9.25 0 0 1 -3.6-3.1 7.39 7.39 0 0 1 -1.2-4.2 9.23 9.23 0 0 1 1.4-4.8 9.48 9.48 0 0 1 4.2-3.4 15.07 15.07 0 0 1 6.1-1.1 16.9 16.9 0 0 1 6.6 1.2 9.35 9.35 0 0 1 6 8.8l-4.2.3a6.88 6.88 0 0 0 -2.3-4.8c-1.3-1.1-3.3-1.6-5.8-1.6-2.7 0-4.6.5-5.9 1.5a4.54 4.54 0 0 0 -1.8 3.6 3.8 3.8 0 0 0 1.3 3c.9.8 3.1 1.6 6.7 2.4a43.17 43.17 0 0 1 7.4 2.1 10 10 0 0 1 4.3 3.4 8.72 8.72 0 0 1 1.4 4.8 9.46 9.46 0 0 1 -1.5 5.1 10.08 10.08 0 0 1 -4.4 3.7 15.1 15.1 0 0 1 -6.5 1.3 18.85 18.85 0 0 1 -7.6-1.3 10.5 10.5 0 0 1 -4.8-4 11.12 11.12 0 0 1 -1.8-5.9z" fill="#fff"/><path d="m605.7 488.5 9.7-34.8h3.3l-9.7 34.8z" fill="#fff"/><path d="m633.9 487.9v-8.1h-14.5v-3.8l15.3-21.8h3.4v21.8h4.5v3.8h-4.6v8.1zm0-11.8v-15.2l-10.5 15.2z" fill="#fff"/><path d="m661.4 487.9v-33.7h11.5a29.75 29.75 0 0 1 6 .5 10.28 10.28 0 0 1 4.9 2.4 13.44 13.44 0 0 1 4 5.8 22 22 0 0 1 1.3 8 23.34 23.34 0 0 1 -.9 6.8 17.19 17.19 0 0 1 -2.3 4.9 11.43 11.43 0 0 1 -3.1 3.1 13.39 13.39 0 0 1 -4 1.7 22.31 22.31 0 0 1 -5.4.6h-12zm4.4-3.9h7.2a18.07 18.07 0 0 0 5.2-.6 7.18 7.18 0 0 0 3-1.7 10.64 10.64 0 0 0 2.5-4.3 20.39 20.39 0 0 0 .9-6.5 16.28 16.28 0 0 0 -1.7-8.1 8.44 8.44 0 0 0 -4.2-3.8 16.12 16.12 0 0 0 -5.7-.7h-7v25.7z" fill="#fff"/><path d="m710.5 484.9a16.92 16.92 0 0 1 -4.4 2.8 13.3 13.3 0 0 1 -4.5.8 8.61 8.61 0 0 1 -6.1-2 6.57 6.57 0 0 1 -2.1-5 7.31 7.31 0 0 1 .8-3.3 6.11 6.11 0 0 1 2.1-2.4 13.79 13.79 0 0 1 3-1.4 31.51 31.51 0 0 1 3.7-.6 40.9 40.9 0 0 0 7.3-1.4v-1.1a4.59 4.59 0 0 0 -1.2-3.6 9.1 9.1 0 0 0 -9-.4 6.22 6.22 0 0 0 -2 3.6l-4-.6a11.59 11.59 0 0 1 1.8-4.2 7.52 7.52 0 0 1 3.6-2.5 15.47 15.47 0 0 1 5.5-.9 13.62 13.62 0 0 1 5 .7 8 8 0 0 1 2.9 1.8 7.27 7.27 0 0 1 1.3 2.8 29.22 29.22 0 0 1 .2 3.8v5.5a52 52 0 0 0 .3 7.3 10 10 0 0 0 1 2.9h-4.3a4 4 0 0 1 -.9-2.6zm-.4-9.2a34.71 34.71 0 0 1 -6.7 1.6 13.93 13.93 0 0 0 -3.6.8 4.17 4.17 0 0 0 -1.6 1.3 3.17 3.17 0 0 0 -.6 2 3.78 3.78 0 0 0 1.2 2.8 5.34 5.34 0 0 0 3.6 1.1 8.16 8.16 0 0 0 4.2-1 6.33 6.33 0 0 0 2.7-2.9 10.44 10.44 0 0 0 .7-4.1v-1.6z" fill="#fff"/><path d="m729.6 484.2.6 3.7a20.27 20.27 0 0 1 -3.1.4 6.78 6.78 0 0 1 -3.5-.7 3.89 3.89 0 0 1 -1.7-1.9 16.17 16.17 0 0 1 -.5-4.9v-14h-3v-3.2h3v-6l4.1-2.5v8.5h4.1v3.2h-4.1v14.2a9.86 9.86 0 0 0 .2 2.3 1.78 1.78 0 0 0 .7.8 2.65 2.65 0 0 0 1.4.3 14.05 14.05 0 0 0 1.8-.2z" fill="#fff"/><path d="m749.5 484.9a16.92 16.92 0 0 1 -4.4 2.8 13.3 13.3 0 0 1 -4.5.8 8.61 8.61 0 0 1 -6.1-2 6.57 6.57 0 0 1 -2.1-5 7.31 7.31 0 0 1 .8-3.3 6.11 6.11 0 0 1 2.1-2.4 13.79 13.79 0 0 1 3-1.4 31.51 31.51 0 0 1 3.7-.6 40.9 40.9 0 0 0 7.3-1.4v-1.1a4.59 4.59 0 0 0 -1.2-3.6 9.1 9.1 0 0 0 -9-.4 6.22 6.22 0 0 0 -2 3.6l-4-.6a11.59 11.59 0 0 1 1.8-4.2 7.52 7.52 0 0 1 3.6-2.5 15.47 15.47 0 0 1 5.5-.9 13.62 13.62 0 0 1 5 .7 8 8 0 0 1 2.9 1.8 7.27 7.27 0 0 1 1.3 2.8 29.22 29.22 0 0 1 .2 3.8v5.5a52 52 0 0 0 .3 7.3 10 10 0 0 0 1 2.9h-4.3a4 4 0 0 1 -.9-2.6zm-.3-9.2a34.71 34.71 0 0 1 -6.7 1.6 13.93 13.93 0 0 0 -3.6.8 4.17 4.17 0 0 0 -1.6 1.3 3.17 3.17 0 0 0 -.6 2 3.78 3.78 0 0 0 1.2 2.8 5.34 5.34 0 0 0 3.6 1.1 8.16 8.16 0 0 0 4.2-1 6.33 6.33 0 0 0 2.7-2.9 10.44 10.44 0 0 0 .7-4.1v-1.6z" fill="#fff"/><path d="m530 366.7v-18.2a653.3 653.3 0 0 0 270.7-1.5v19.7a530.7 530.7 0 0 1 -270.7 0z" fill="#3075b5"/><path d="m530 385.8v-17.9a520 520 0 0 0 270.7 0v19.4a465.77 465.77 0 0 1 -270.7-1.5z" fill="#3075b5"/><path d="m800.7 344a656.68 656.68 0 0 1 -270.7 1.5 329.71 329.71 0 0 1 270.7-1.5z" fill="#2e74b4"/><path d="m1199.8 267.3c.2-4.2 1-12.4 6.8-18.1 4.3-4.2 10.4-6.6 17.8-6.6h461.9a13.4 13.4 0 0 1 2 .1h285.7c9.9 0 18.2 3.3 23 12.8a20.09 20.09 0 0 1 2.1 9.6v647.5c0 13.8-9.3 23.1-23.1 23.1q-376.35 0-752.8.1c-11.4 0-23-10.5-22.9-22.8.2-29.4-1.4-628.3-.5-645.7z" fill="#5a9ad4"/><path d="m1553.4 293.9v-29.7h11.2a14 14 0 0 1 5.5.9 6.71 6.71 0 0 1 3.2 2.8 7.39 7.39 0 0 1 1.2 3.9 6.53 6.53 0 0 1 -1 3.6 7.52 7.52 0 0 1 -3.1 2.7 7.11 7.11 0 0 1 4.1 2.7 7.83 7.83 0 0 1 1.5 4.5 8.6 8.6 0 0 1 -.9 3.9 7.85 7.85 0 0 1 -2.2 2.8 12.62 12.62 0 0 1 -3.3 1.5 21.43 21.43 0 0 1 -4.8.5h-11.4zm3.9-17.2h6.4a17.44 17.44 0 0 0 3.8-.3 4.23 4.23 0 0 0 2.3-1.5 4.46 4.46 0 0 0 .8-2.6 4.41 4.41 0 0 0 -.7-2.6 3.28 3.28 0 0 0 -2-1.5 20.74 20.74 0 0 0 -4.5-.4h-5.9v8.9zm0 13.7h7.4a17.89 17.89 0 0 0 2.7-.1 6.9 6.9 0 0 0 2.3-.8 4.2 4.2 0 0 0 1.5-1.7 5.14 5.14 0 0 0 .6-2.5 4.76 4.76 0 0 0 -.9-2.9 4.63 4.63 0 0 0 -2.4-1.7 16.08 16.08 0 0 0 -4.4-.5h-6.9v10.2z" fill="#fff"/><path d="m1581.2 293.9v-29.7h11.2a24.85 24.85 0 0 1 4.5.3 8.19 8.19 0 0 1 3.7 1.4 7 7 0 0 1 2.4 2.9 9.75 9.75 0 0 1 -1.5 10.5c-1.6 1.8-4.5 2.6-8.7 2.6h-7.6v12.1h-4zm4-15.6h7.7c2.5 0 4.3-.5 5.4-1.4a4.93 4.93 0 0 0 1.6-4 5.71 5.71 0 0 0 -.9-3.2 4.52 4.52 0 0 0 -2.5-1.8 15.24 15.24 0 0 0 -3.7-.3h-7.6z" fill="#fff"/><path d="m1630.2 283.5 3.9 1a13 13 0 0 1 -4.5 7.4 12.44 12.44 0 0 1 -7.9 2.5 14.09 14.09 0 0 1 -7.8-2 12.56 12.56 0 0 1 -4.6-5.7 21.14 21.14 0 0 1 -1.6-8 17.28 17.28 0 0 1 1.8-8.1 12.43 12.43 0 0 1 5.1-5.3 14.79 14.79 0 0 1 7.2-1.8 12.17 12.17 0 0 1 7.5 2.3 11.68 11.68 0 0 1 4.2 6.4l-3.9.9a9.14 9.14 0 0 0 -3-4.7 7.93 7.93 0 0 0 -4.9-1.5 9.37 9.37 0 0 0 -5.7 1.6 8.87 8.87 0 0 0 -3.2 4.4 18.36 18.36 0 0 0 -.9 5.7 19 19 0 0 0 1.1 6.6 8 8 0 0 0 3.4 4.2 10 10 0 0 0 5.1 1.4 8.27 8.27 0 0 0 5.6-1.9c1.5-1 2.5-2.9 3.1-5.4z" fill="#fff"/><path d="m1571.4 564.8c0-18.5.2-37.1-.1-55.6-.1-5.5.4-11.4-3.1-16.2-4.1-5.6-8.8-10.5-16.4-10.8-1.6-.1-3.8.3-3.9-2 0-1.9 1.7-2.7 3.4-3 7.9-1 14-4.9 17.6-12.1 2.5-4.9 2.3-10.3 2.3-15.5q.3-54.6 0-109.2c0-8.8 2.5-16.6 8.5-22.7 4.3-4.4 10.3-7.1 16.5-8.6a2.12 2.12 0 0 1 2.6 1c.7 1.4-.3 2.2-1.3 2.9a4.65 4.65 0 0 1 -2.3.9c-14 2-19.9 13-19.9 26.5.1 37.7.2 75.4-.1 113.2-.1 10.1-4 18.7-13.6 23.6-2.9 1.5-2.9 2.8-.3 4.6 10.5 7 14.3 16.9 14.1 29.4-.4 35.9-.2 71.8-.1 107.7 0 5.9.5 11.7 4.4 16.9a23.35 23.35 0 0 0 15.5 9.7c1.5.2 3.4.3 3.4 2.1 0 2-2 1.7-3.5 1.8-4.1.4-7.2-1.7-10.4-3.9-9.6-6.5-13.8-15.6-13.6-27.1.5-17.9.3-35.8.3-53.6z" fill="#8dafce"/><path d="m1933.1 394.5c0 19.2-.1 38.4.1 57.6 0 4.7.5 9.5 3.1 13.9 3.8 6.4 9.1 10.4 16.6 11.2 1.8.2 3.6 1 3.8 2.7.2 2-2.2 1.9-3.4 2.1-12.5 1.4-20.2 13.3-20.2 25.1.1 37.2-.1 74.4.1 111.6.1 14.6-6.5 24.2-19.4 30a7.73 7.73 0 0 1 -3.4.8c-1.6 0-4.1.8-4.4-1.2-.3-2.4 2.3-1.5 3.7-1.8 9.9-2.2 19.5-11.2 19.5-22.2-.2-37.5-.2-75.1 0-112.6 0-8.5 1.2-16.8 7.4-23.6a31.53 31.53 0 0 1 7.3-5.9c2.4-1.5 2.6-3.4.3-4.5-12.7-6.6-14.8-18.3-14.9-30.7-.2-36.9-.1-73.8-.1-110.6 0-11.6-6.8-20-18.1-22.2a.9.9 0 0 1 -.5-.1c-1.6-.7-4.4-.8-3.8-3 .5-2 3.4-1.3 4.9-.7 7.9 2.8 14.3 7.4 18.3 15a28.28 28.28 0 0 1 3 13.4c.1 18.3.1 37 .1 55.7z" fill="#a0b7cd"/><path d="m1603.5 346.8v-22.5h10a13.82 13.82 0 0 1 4.6.6 5.09 5.09 0 0 1 2.5 2.1 6.65 6.65 0 0 1 .9 3.4 5.68 5.68 0 0 1 -1.5 4 7.68 7.68 0 0 1 -4.8 2.1 11.82 11.82 0 0 1 1.8 1.1 15.3 15.3 0 0 1 2.5 3l3.9 6.1h-3.7l-3-4.7c-.9-1.4-1.6-2.4-2.1-3.1a10.4 10.4 0 0 0 -1.5-1.5 3.51 3.51 0 0 0 -1.4-.6 7.16 7.16 0 0 0 -1.7-.1h-3.5v10h-3zm3-12.6h6.4a9.23 9.23 0 0 0 3.2-.4 3.19 3.19 0 0 0 1.8-1.4 3.86 3.86 0 0 0 .6-2 3.22 3.22 0 0 0 -1.2-2.6 5.46 5.46 0 0 0 -3.7-1h-7.1z"/><path d="m1637 341.6 2.9.4a7.18 7.18 0 0 1 -2.5 3.9 7.72 7.72 0 0 1 -4.7 1.4 7.39 7.39 0 0 1 -5.7-2.2 8.62 8.62 0 0 1 -2.1-6.2 9.14 9.14 0 0 1 2.1-6.4 7.16 7.16 0 0 1 5.5-2.3 6.66 6.66 0 0 1 5.3 2.2 8.88 8.88 0 0 1 2.1 6.3v.7h-12.2a6.14 6.14 0 0 0 1.5 4.1 4.25 4.25 0 0 0 3.4 1.4 4.46 4.46 0 0 0 2.6-.8 6.22 6.22 0 0 0 1.8-2.5zm-9.1-4.5h9.1a6 6 0 0 0 -1-3.1 4.12 4.12 0 0 0 -3.4-1.6 4.22 4.22 0 0 0 -3.2 1.3 4.9 4.9 0 0 0 -1.5 3.4z"/><path d="m1643.3 353.1v-22.5h2.5v2.1a7.11 7.11 0 0 1 2-1.9 5.67 5.67 0 0 1 2.7-.6 6.71 6.71 0 0 1 3.7 1.1 6 6 0 0 1 2.4 3 11.76 11.76 0 0 1 .8 4.3 10.63 10.63 0 0 1 -.9 4.5 7.24 7.24 0 0 1 -2.6 3.1 6.63 6.63 0 0 1 -3.6 1.1 5.42 5.42 0 0 1 -2.5-.6 6.55 6.55 0 0 1 -1.8-1.5v7.9zm2.5-14.4a7.12 7.12 0 0 0 1.3 4.7 3.73 3.73 0 0 0 3.1 1.5 4 4 0 0 0 3.2-1.6c.9-1 1.3-2.6 1.3-4.8a7.12 7.12 0 0 0 -1.3-4.7 4 4 0 0 0 -3.1-1.5 3.84 3.84 0 0 0 -3.1 1.6 7.22 7.22 0 0 0 -1.4 4.8z"/><path d="m1659.7 338.7c0-3 .8-5.3 2.5-6.7a7.57 7.57 0 0 1 5.1-1.8 7.24 7.24 0 0 1 5.5 2.2 8.53 8.53 0 0 1 2.1 6.1 11 11 0 0 1 -.9 4.9 6.62 6.62 0 0 1 -2.7 2.8 7.56 7.56 0 0 1 -3.9 1 7.09 7.09 0 0 1 -5.5-2.2 8.49 8.49 0 0 1 -2.2-6.3zm2.9 0a6.94 6.94 0 0 0 1.4 4.7 4.58 4.58 0 0 0 3.4 1.6 4.12 4.12 0 0 0 3.4-1.6 8.59 8.59 0 0 0 0-9.4 4.58 4.58 0 0 0 -3.4-1.6 4.33 4.33 0 0 0 -3.4 1.5 7.23 7.23 0 0 0 -1.4 4.8z"/><path d="m1678.2 346.8v-16.3h2.5v2.5a5.71 5.71 0 0 1 1.8-2.3 2.79 2.79 0 0 1 1.8-.6 5.14 5.14 0 0 1 2.8.9l-1 2.6a4.14 4.14 0 0 0 -2-.6 3 3 0 0 0 -1.6.5 2.68 2.68 0 0 0 -1 1.5 11.27 11.27 0 0 0 -.5 3.2v8.5h-2.8z"/><path d="m1694.7 344.3.4 2.4a8.22 8.22 0 0 1 -2.1.2 4.62 4.62 0 0 1 -2.3-.5 2.54 2.54 0 0 1 -1.2-1.3 8.73 8.73 0 0 1 -.3-3.3v-9.4h-2v-2.1h2v-4l2.7-1.7v5.7h2.8v2.1h-2.8v9.5a5 5 0 0 0 .1 1.5 1.21 1.21 0 0 0 .5.5 2 2 0 0 0 .9.2 1.48 1.48 0 0 0 1.3.2z"/><path d="m1696.3 341.9 2.7-.4a4 4 0 0 0 1.3 2.5 4.37 4.37 0 0 0 2.9.9 4.25 4.25 0 0 0 2.8-.8 2.27 2.27 0 0 0 .9-1.8 1.9 1.9 0 0 0 -.8-1.5 11.09 11.09 0 0 0 -2.8-.9 37.72 37.72 0 0 1 -4.2-1.3 4.53 4.53 0 0 1 -1.8-1.5 4.28 4.28 0 0 1 -.6-2.2 4.55 4.55 0 0 1 .5-2 4 4 0 0 1 1.4-1.5 5.07 5.07 0 0 1 1.8-.8 8.75 8.75 0 0 1 2.4-.3 9 9 0 0 1 3.4.6 4.39 4.39 0 0 1 2.1 1.5 7.24 7.24 0 0 1 1 2.5l-2.7.4a3.09 3.09 0 0 0 -1.1-2 3.73 3.73 0 0 0 -2.5-.7 4.47 4.47 0 0 0 -2.7.6 1.9 1.9 0 0 0 -.8 1.5 1.69 1.69 0 0 0 .3 1 2.33 2.33 0 0 0 1.1.7c.3.1 1.1.3 2.4.7a22.15 22.15 0 0 1 4.1 1.3 3.35 3.35 0 0 1 1.8 1.5 4.27 4.27 0 0 1 .7 2.4 5 5 0 0 1 -.8 2.6 5.49 5.49 0 0 1 -2.3 1.9 9.37 9.37 0 0 1 -3.4.7 7.42 7.42 0 0 1 -4.8-1.3 7.2 7.2 0 0 1 -2.3-4.3z"/><path d="m1671.6 383.5 2.4.6a8 8 0 0 1 -2.8 4.6 7.78 7.78 0 0 1 -4.9 1.6 8.53 8.53 0 0 1 -4.8-1.2 7.56 7.56 0 0 1 -2.8-3.5 13.39 13.39 0 0 1 -1-4.9 11.17 11.17 0 0 1 1.1-5 7.38 7.38 0 0 1 3.1-3.2 9.66 9.66 0 0 1 4.5-1.1 7.62 7.62 0 0 1 4.6 1.4 7.14 7.14 0 0 1 2.6 3.9l-2.4.6a5.13 5.13 0 0 0 -1.9-2.9 5 5 0 0 0 -3.1-.9 5.58 5.58 0 0 0 -3.5 1 6 6 0 0 0 -2 2.7 11.43 11.43 0 0 0 .1 7.6 5.53 5.53 0 0 0 2.1 2.6 5.86 5.86 0 0 0 3.1.9 5.64 5.64 0 0 0 5.6-4.8z"/><path d="m1675.9 383.3c0-2.5.7-4.3 2.1-5.5a6 6 0 0 1 4.2-1.5 6.11 6.11 0 0 1 4.5 1.8 6.76 6.76 0 0 1 1.7 5 8.56 8.56 0 0 1 -.8 4 6.08 6.08 0 0 1 -2.2 2.3 7.22 7.22 0 0 1 -3.2.8 5.8 5.8 0 0 1 -4.5-1.8 7.15 7.15 0 0 1 -1.8-5.1zm2.4 0a5.74 5.74 0 0 0 1.1 3.8 3.72 3.72 0 0 0 2.8 1.3 3.41 3.41 0 0 0 2.8-1.3 6.24 6.24 0 0 0 1.1-3.9 5.63 5.63 0 0 0 -1.1-3.7 3.72 3.72 0 0 0 -2.8-1.3 3.41 3.41 0 0 0 -2.8 1.3 5.24 5.24 0 0 0 -1.1 3.8z"/><path d="m1691.1 390v-13.3h2v1.9a4.73 4.73 0 0 1 4.2-2.2 5.38 5.38 0 0 1 2.2.4 3.66 3.66 0 0 1 1.5 1.1 4.36 4.36 0 0 1 .7 1.7 11.62 11.62 0 0 1 .1 2.2v8.2h-2.3v-8.1a5.84 5.84 0 0 0 -.3-2.1 2.44 2.44 0 0 0 -.9-1.1 2.73 2.73 0 0 0 -1.6-.4 3.66 3.66 0 0 0 -2.5.9c-.7.6-1 1.8-1 3.5v7.3z"/><path d="m1704.4 386 2.2-.4a3 3 0 0 0 3.4 2.8 3.71 3.71 0 0 0 2.3-.6 1.9 1.9 0 0 0 .8-1.5 1.31 1.31 0 0 0 -.7-1.2 9.14 9.14 0 0 0 -2.3-.8 16.64 16.64 0 0 1 -3.4-1.1 3.74 3.74 0 0 1 -1.5-1.3 3.45 3.45 0 0 1 -.5-1.8 2.93 2.93 0 0 1 .4-1.6 4.49 4.49 0 0 1 1.1-1.3 4.58 4.58 0 0 1 1.4-.7 6.45 6.45 0 0 1 2-.3 8.21 8.21 0 0 1 2.8.5 3.25 3.25 0 0 1 1.7 1.2 5.12 5.12 0 0 1 .8 2.1l-2.2.3a2.36 2.36 0 0 0 -.9-1.6 3.17 3.17 0 0 0 -2-.6 4 4 0 0 0 -2.2.5 1.52 1.52 0 0 0 -.7 1.2 1.14 1.14 0 0 0 .3.8 3.49 3.49 0 0 0 .9.6 19.33 19.33 0 0 0 2 .6c1.6.4 2.7.8 3.3 1a3.49 3.49 0 0 1 1.5 1.2 3 3 0 0 1 .5 1.9 3.14 3.14 0 0 1 -.7 2.1 3.58 3.58 0 0 1 -1.9 1.5 6.36 6.36 0 0 1 -2.8.5 6.78 6.78 0 0 1 -4-1.1 4.45 4.45 0 0 1 -1.6-2.9z"/><path d="m1717.3 383.3c0-2.5.7-4.3 2.1-5.5a6 6 0 0 1 4.2-1.5 6.11 6.11 0 0 1 4.5 1.8 6.76 6.76 0 0 1 1.7 5 8.56 8.56 0 0 1 -.8 4 6.08 6.08 0 0 1 -2.2 2.3 7.22 7.22 0 0 1 -3.2.8 5.8 5.8 0 0 1 -4.5-1.8 7.15 7.15 0 0 1 -1.8-5.1zm2.4 0a5.74 5.74 0 0 0 1.1 3.8 3.72 3.72 0 0 0 2.8 1.3 3.41 3.41 0 0 0 2.8-1.3 6.24 6.24 0 0 0 1.1-3.9 5.63 5.63 0 0 0 -1.1-3.7 3.72 3.72 0 0 0 -2.8-1.3 3.41 3.41 0 0 0 -2.8 1.3 5.24 5.24 0 0 0 -1.1 3.8z"/><path d="m1732.4 390v-18.4h2.3v18.4z"/><path d="m1738.2 374.2v-2.6h2.3v2.6zm0 15.8v-13.3h2.3v13.3z"/><path d="m1752.5 390v-1.7a4.15 4.15 0 0 1 -3.7 2 5 5 0 0 1 -2.9-.9 5.77 5.77 0 0 1 -2.1-2.5 9.61 9.61 0 0 1 0-7.2 5 5 0 0 1 2-2.5 5.29 5.29 0 0 1 3-.9 4.65 4.65 0 0 1 2.1.5 4.71 4.71 0 0 1 1.5 1.3v-6.6h2.2v18.5zm-7.1-6.7a5.74 5.74 0 0 0 1.1 3.8 3.44 3.44 0 0 0 2.5 1.3 3.17 3.17 0 0 0 2.5-1.2 5.46 5.46 0 0 0 1-3.7 6.16 6.16 0 0 0 -1.1-4 3.47 3.47 0 0 0 -2.6-1.3 3.17 3.17 0 0 0 -2.5 1.2c-.7.8-.9 2.2-.9 3.9z"/><path d="m1766.9 388.3a7.91 7.91 0 0 1 -2.4 1.5 6.9 6.9 0 0 1 -2.5.4 5 5 0 0 1 -3.4-1.1 3.42 3.42 0 0 1 -1.2-2.7 3.66 3.66 0 0 1 .4-1.8 3 3 0 0 1 1.2-1.3 4.59 4.59 0 0 1 1.6-.7 17.78 17.78 0 0 1 2-.3 18.33 18.33 0 0 0 4-.8v-.6a2.4 2.4 0 0 0 -.6-1.9 3.84 3.84 0 0 0 -2.6-.8 4 4 0 0 0 -2.4.6 2.81 2.81 0 0 0 -1.1 2l-2.2-.3a5.37 5.37 0 0 1 1-2.3 4.12 4.12 0 0 1 2-1.3 9.43 9.43 0 0 1 3-.5 7.54 7.54 0 0 1 2.8.4 4.88 4.88 0 0 1 1.6 1 3.48 3.48 0 0 1 .7 1.5 11 11 0 0 1 .1 2.1v3a35.8 35.8 0 0 0 .1 4 4.42 4.42 0 0 0 .6 1.6h-2.4a7.44 7.44 0 0 1 -.3-1.7zm-.2-5a22.09 22.09 0 0 1 -3.7.9 6.35 6.35 0 0 0 -2 .5 2.18 2.18 0 0 0 -.9.7 2 2 0 0 0 -.3 1.1 1.8 1.8 0 0 0 .7 1.5 3 3 0 0 0 2 .6 4.38 4.38 0 0 0 2.3-.6 3.32 3.32 0 0 0 1.5-1.6 6.34 6.34 0 0 0 .4-2.3z"/><path d="m1777.4 388 .3 2a11.14 11.14 0 0 1 -1.7.2 3.36 3.36 0 0 1 -1.9-.4 2.4 2.4 0 0 1 -1-1 7.45 7.45 0 0 1 -.3-2.7v-7.7h-1.7v-1.8h1.7v-3.3l2.2-1.4v4.7h2.3v1.8h-2.3v7.8a3.14 3.14 0 0 0 .1 1.2.78.78 0 0 0 .4.4 1.55 1.55 0 0 0 .8.2z"/><path d="m1788.7 385.7 2.3.3a5.41 5.41 0 0 1 -5.8 4.3 6 6 0 0 1 -4.6-1.8 7.2 7.2 0 0 1 -1.7-5 7.56 7.56 0 0 1 1.7-5.2 6 6 0 0 1 4.5-1.9 5.88 5.88 0 0 1 4.4 1.8 7.29 7.29 0 0 1 1.7 5.1v.6h-9.9a5.53 5.53 0 0 0 1.2 3.4 3.63 3.63 0 0 0 2.8 1.2 3.14 3.14 0 0 0 2.1-.7 4.44 4.44 0 0 0 1.3-2.1zm-7.4-3.7h7.4a4.11 4.11 0 0 0 -.9-2.5 3.41 3.41 0 0 0 -2.8-1.3 3.54 3.54 0 0 0 -2.6 1 5 5 0 0 0 -1.1 2.8z"/><path d="m1802.5 390v-1.7a4.15 4.15 0 0 1 -3.7 2 5 5 0 0 1 -2.9-.9 5.77 5.77 0 0 1 -2.1-2.5 9.61 9.61 0 0 1 0-7.2 5 5 0 0 1 2-2.5 5.29 5.29 0 0 1 3-.9 4.65 4.65 0 0 1 2.1.5 4.71 4.71 0 0 1 1.5 1.3v-6.6h2.2v18.5zm-7.1-6.7a5.74 5.74 0 0 0 1.1 3.8 3.44 3.44 0 0 0 2.5 1.3 3.17 3.17 0 0 0 2.5-1.2 5.46 5.46 0 0 0 1-3.7 6.16 6.16 0 0 0 -1.1-4 3.47 3.47 0 0 0 -2.6-1.3 3.17 3.17 0 0 0 -2.5 1.2c-.7.8-.9 2.2-.9 3.9z"/><path d="m1815.6 390v-18.4h8.2a11.31 11.31 0 0 1 3.7.5 3.71 3.71 0 0 1 2 1.7 5.38 5.38 0 0 1 .8 2.8 4.45 4.45 0 0 1 -1.3 3.3 5.92 5.92 0 0 1 -3.9 1.7 9.88 9.88 0 0 1 1.5.9 15.91 15.91 0 0 1 2 2.4l3.2 5h-3.1l-2.4-3.8a24 24 0 0 0 -1.8-2.5 6.58 6.58 0 0 0 -1.2-1.2 5.36 5.36 0 0 0 -1.1-.5 4.92 4.92 0 0 0 -1.4-.1h-2.8v8.2zm2.4-10.3h5.2a8.8 8.8 0 0 0 2.6-.3 2.59 2.59 0 0 0 1.4-1.1 3.32 3.32 0 0 0 .5-1.6 2.58 2.58 0 0 0 -.9-2.1 4.15 4.15 0 0 0 -3-.8h-5.8z"/><path d="m1842.9 385.7 2.3.3a5.41 5.41 0 0 1 -5.8 4.3 6 6 0 0 1 -4.6-1.8 7.2 7.2 0 0 1 -1.7-5 7.56 7.56 0 0 1 1.7-5.2 6.19 6.19 0 0 1 4.5-1.9 5.88 5.88 0 0 1 4.4 1.8 7.29 7.29 0 0 1 1.7 5.1v.6h-9.9a5.53 5.53 0 0 0 1.2 3.4 3.63 3.63 0 0 0 2.8 1.2 3.14 3.14 0 0 0 2.1-.7 5.39 5.39 0 0 0 1.3-2.1zm-7.4-3.7h7.4a4.11 4.11 0 0 0 -.9-2.5 3.41 3.41 0 0 0 -2.8-1.3 3.54 3.54 0 0 0 -2.6 1 5 5 0 0 0 -1.1 2.8z"/><path d="m1848.1 395.1v-18.4h2.1v1.7a4.5 4.5 0 0 1 1.6-1.5 4.77 4.77 0 0 1 2.2-.5 5.29 5.29 0 0 1 3 .9 5.58 5.58 0 0 1 2 2.5 9.92 9.92 0 0 1 .7 3.5 8.73 8.73 0 0 1 -.7 3.7 5.77 5.77 0 0 1 -2.1 2.5 5.21 5.21 0 0 1 -2.9.9 4.23 4.23 0 0 1 -2-.5 4.43 4.43 0 0 1 -1.5-1.2v6.5h-2.4zm2.1-11.7a5.76 5.76 0 0 0 1 3.8 3.23 3.23 0 0 0 5.1-.1 6 6 0 0 0 1.1-3.9 5.76 5.76 0 0 0 -1-3.8 3.28 3.28 0 0 0 -2.5-1.3 3.64 3.64 0 0 0 -2.6 1.3 5.79 5.79 0 0 0 -1.1 4z"/><path d="m1861.6 383.3c0-2.5.7-4.3 2.1-5.5a6 6 0 0 1 4.2-1.5 6.11 6.11 0 0 1 4.5 1.8 6.76 6.76 0 0 1 1.7 5 8.56 8.56 0 0 1 -.8 4 6.89 6.89 0 0 1 -2.2 2.3 7.22 7.22 0 0 1 -3.2.8 5.8 5.8 0 0 1 -4.5-1.8 7.15 7.15 0 0 1 -1.8-5.1zm2.3 0a5.74 5.74 0 0 0 1.1 3.8 3.72 3.72 0 0 0 2.8 1.3 3.41 3.41 0 0 0 2.8-1.3 6.24 6.24 0 0 0 1.1-3.9 5.63 5.63 0 0 0 -1.1-3.7 3.72 3.72 0 0 0 -2.8-1.3 3.41 3.41 0 0 0 -2.8 1.3 5.24 5.24 0 0 0 -1.1 3.8z"/><path d="m1876.7 390v-13.3h2v2a6.6 6.6 0 0 1 1.4-1.9 2.39 2.39 0 0 1 1.4-.5 4.11 4.11 0 0 1 2.3.7l-.8 2.1a3.69 3.69 0 0 0 -1.7-.5 2.09 2.09 0 0 0 -2.1 1.6 10.87 10.87 0 0 0 -.4 2.6v7h-2.1z"/><path d="m1890.2 388 .3 2a11.14 11.14 0 0 1 -1.7.2 3.36 3.36 0 0 1 -1.9-.4 2.4 2.4 0 0 1 -1-1 7.45 7.45 0 0 1 -.3-2.7v-7.7h-1.7v-1.8h1.7v-3.3l2.2-1.4v4.7h2.3v1.8h-2.3v7.8a3.14 3.14 0 0 0 .1 1.2.78.78 0 0 0 .4.4 1.55 1.55 0 0 0 .8.2z"/><path d="m1891.5 386 2.2-.4a3.47 3.47 0 0 0 1 2.1 3.61 3.61 0 0 0 2.4.7 3.71 3.71 0 0 0 2.3-.6 1.9 1.9 0 0 0 .8-1.5 1.31 1.31 0 0 0 -.7-1.2 9.14 9.14 0 0 0 -2.3-.8 16.64 16.64 0 0 1 -3.4-1.1 3.74 3.74 0 0 1 -1.5-1.3 2.9 2.9 0 0 1 -.5-1.8 2.93 2.93 0 0 1 .4-1.6 4.49 4.49 0 0 1 1.1-1.3 4.58 4.58 0 0 1 1.4-.7 6.45 6.45 0 0 1 2-.3 8.21 8.21 0 0 1 2.8.5 4.07 4.07 0 0 1 1.8 1.2 5.12 5.12 0 0 1 .8 2.1l-2.2.3a2.36 2.36 0 0 0 -.9-1.6 3.17 3.17 0 0 0 -2-.6 4 4 0 0 0 -2.2.5 1.52 1.52 0 0 0 -.7 1.2 1.14 1.14 0 0 0 .3.8 3.49 3.49 0 0 0 .9.6 19.33 19.33 0 0 0 2 .6c1.6.4 2.7.8 3.3 1a4.43 4.43 0 0 1 1.5 1.2 3 3 0 0 1 .5 1.9 3.14 3.14 0 0 1 -.7 2.1 3.58 3.58 0 0 1 -1.9 1.5 6.36 6.36 0 0 1 -2.8.5 6.78 6.78 0 0 1 -4-1.1 3.8 3.8 0 0 1 -1.7-2.9z"/><path d="m1666.9 419.1a7.91 7.91 0 0 1 -2.4 1.5 6.9 6.9 0 0 1 -2.5.4 5 5 0 0 1 -3.4-1.1 3.42 3.42 0 0 1 -1.2-2.7 3.66 3.66 0 0 1 .4-1.8 3 3 0 0 1 1.2-1.3 4.59 4.59 0 0 1 1.6-.7 17.78 17.78 0 0 1 2-.3 18.33 18.33 0 0 0 4-.8v-.6a2.4 2.4 0 0 0 -.6-1.9 3.84 3.84 0 0 0 -2.6-.8 4 4 0 0 0 -2.4.6 2.81 2.81 0 0 0 -1.1 2l-2.2-.3a5.37 5.37 0 0 1 1-2.3 4.12 4.12 0 0 1 2-1.3 9.43 9.43 0 0 1 3-.5 7.54 7.54 0 0 1 2.8.4 4.88 4.88 0 0 1 1.6 1 3.48 3.48 0 0 1 .7 1.5 11 11 0 0 1 .1 2.1v3a35.8 35.8 0 0 0 .1 4 4.42 4.42 0 0 0 .6 1.6h-2.4c-.1-.5-.2-1-.3-1.7zm-.2-5a22.09 22.09 0 0 1 -3.7.9 6.35 6.35 0 0 0 -2 .5 2.18 2.18 0 0 0 -.9.7 2 2 0 0 0 -.3 1.1 1.8 1.8 0 0 0 .7 1.5 3 3 0 0 0 2 .6 4.38 4.38 0 0 0 2.3-.6 3.32 3.32 0 0 0 1.5-1.6 6.34 6.34 0 0 0 .4-2.3z"/><path d="m1677.4 418.8.3 2a11.14 11.14 0 0 1 -1.7.2 3.36 3.36 0 0 1 -1.9-.4 2.4 2.4 0 0 1 -1-1 7.45 7.45 0 0 1 -.3-2.7v-7.7h-1.7v-1.8h1.7v-3.3l2.2-1.4v4.7h2.3v1.8h-2.3v7.8a3.14 3.14 0 0 0 .1 1.2.78.78 0 0 0 .4.4 1.55 1.55 0 0 0 .8.2z"/><path d="m1695.7 413.6v-2.2h7.8v6.8a12.92 12.92 0 0 1 -3.7 2.2 10.72 10.72 0 0 1 -3.9.7 10.16 10.16 0 0 1 -4.9-1.2 7.25 7.25 0 0 1 -3.3-3.4 10.09 10.09 0 0 1 -1.1-4.9 11.81 11.81 0 0 1 1.1-5 7.77 7.77 0 0 1 3.2-3.5 9.59 9.59 0 0 1 4.9-1.1 10.46 10.46 0 0 1 3.6.6 5.24 5.24 0 0 1 2.5 1.8 8.34 8.34 0 0 1 1.4 3l-2.2.6a7.56 7.56 0 0 0 -1-2.2 4.2 4.2 0 0 0 -1.8-1.3 7 7 0 0 0 -2.5-.5 8.36 8.36 0 0 0 -2.9.5 5.78 5.78 0 0 0 -2 1.3 9.39 9.39 0 0 0 -1.2 1.8 9 9 0 0 0 -.7 3.7 10 10 0 0 0 .8 4.1 5.5 5.5 0 0 0 2.5 2.5 6.81 6.81 0 0 0 3.4.8 8.15 8.15 0 0 0 3.1-.6 7 7 0 0 0 2.3-1.3v-3.4h-5.4z"/><path d="m1706.7 420.8v-13.3h2v2a6.6 6.6 0 0 1 1.4-1.9 2.39 2.39 0 0 1 1.4-.5 4.11 4.11 0 0 1 2.3.7l-.8 2.1a3.69 3.69 0 0 0 -1.7-.5 2.09 2.09 0 0 0 -2.1 1.6 7.46 7.46 0 0 0 -.4 2.6v7h-2.1z"/><path d="m1714.5 414.1c0-2.5.7-4.3 2.1-5.5a6 6 0 0 1 4.2-1.5 6.11 6.11 0 0 1 4.5 1.8 6.76 6.76 0 0 1 1.7 5 8.56 8.56 0 0 1 -.8 4 6.08 6.08 0 0 1 -2.2 2.3 7.22 7.22 0 0 1 -3.2.8 5.8 5.8 0 0 1 -4.5-1.8q-1.8-1.65-1.8-5.1zm2.3 0a5.74 5.74 0 0 0 1.1 3.8 3.72 3.72 0 0 0 2.8 1.3 3.41 3.41 0 0 0 2.8-1.3 6.24 6.24 0 0 0 1.1-3.9 5.63 5.63 0 0 0 -1.1-3.7 3.72 3.72 0 0 0 -2.8-1.3 3.41 3.41 0 0 0 -2.8 1.3 5.74 5.74 0 0 0 -1.1 3.8z"/><path d="m1738.3 420.8v-2a4.82 4.82 0 0 1 -4.2 2.3 5.45 5.45 0 0 1 -2.2-.5 3.66 3.66 0 0 1 -1.5-1.1 3.8 3.8 0 0 1 -.7-1.7 11 11 0 0 1 -.1-2.1v-8.3h2.3v7.4a13.58 13.58 0 0 0 .1 2.4 1.94 1.94 0 0 0 .9 1.4 3.1 3.1 0 0 0 1.7.5 4.14 4.14 0 0 0 1.9-.5 3 3 0 0 0 1.3-1.4 8.33 8.33 0 0 0 .4-2.6v-7.1h2.3v13.3z"/><path d="m1743.9 425.9v-18.4h2.1v1.7a4.5 4.5 0 0 1 1.6-1.5 4.77 4.77 0 0 1 2.2-.5 5.29 5.29 0 0 1 3 .9 5.58 5.58 0 0 1 2 2.5 9.92 9.92 0 0 1 .7 3.5 8.73 8.73 0 0 1 -.7 3.7 5.77 5.77 0 0 1 -2.1 2.5 5.21 5.21 0 0 1 -2.9.9 4.23 4.23 0 0 1 -2-.5 4.43 4.43 0 0 1 -1.5-1.2v6.5h-2.4zm2-11.7a5.76 5.76 0 0 0 1 3.8 3.23 3.23 0 0 0 5.1-.1 6 6 0 0 0 1.1-3.9 5.76 5.76 0 0 0 -1-3.8 3.28 3.28 0 0 0 -2.5-1.3 3.64 3.64 0 0 0 -2.6 1.3 6.78 6.78 0 0 0 -1.1 4z"/><path d="m1765.5 420.8v-18.4h2.4v16.2h9.1v2.2z"/><path d="m1788.7 416.5 2.3.3a5.41 5.41 0 0 1 -5.8 4.3 6 6 0 0 1 -4.6-1.8 7.2 7.2 0 0 1 -1.7-5 7.56 7.56 0 0 1 1.7-5.2 6 6 0 0 1 4.5-1.9 5.88 5.88 0 0 1 4.4 1.8 7.29 7.29 0 0 1 1.7 5.1v.6h-9.9a5.53 5.53 0 0 0 1.2 3.4 3.63 3.63 0 0 0 2.8 1.2 3.14 3.14 0 0 0 2.1-.7 4.44 4.44 0 0 0 1.3-2.1zm-7.4-3.7h7.4a4.11 4.11 0 0 0 -.9-2.5 3.41 3.41 0 0 0 -2.8-1.3 3.54 3.54 0 0 0 -2.6 1 5 5 0 0 0 -1.1 2.8z"/><path d="m1797.6 420.8-5.1-13.3h2.4l2.9 8 .9 2.7c.2-.7.5-1.5.8-2.5l3-8.1h2.3l-5 13.3h-2.2z"/><path d="m1815.8 416.5 2.3.3a5.41 5.41 0 0 1 -5.8 4.3 6 6 0 0 1 -4.6-1.8 7.2 7.2 0 0 1 -1.7-5 7.56 7.56 0 0 1 1.7-5.2 6.19 6.19 0 0 1 4.5-1.9 5.88 5.88 0 0 1 4.4 1.8 7.29 7.29 0 0 1 1.7 5.1v.6h-9.9a5.53 5.53 0 0 0 1.2 3.4 3.63 3.63 0 0 0 2.8 1.2 3.14 3.14 0 0 0 2.1-.7 4.44 4.44 0 0 0 1.3-2.1zm-7.4-3.7h7.4a4.11 4.11 0 0 0 -.9-2.5 3.41 3.41 0 0 0 -2.8-1.3 3.54 3.54 0 0 0 -2.6 1 5 5 0 0 0 -1.1 2.8z"/><path d="m1820.1 416.8 2.2-.4a3.47 3.47 0 0 0 1 2.1 3.61 3.61 0 0 0 2.4.7 3.71 3.71 0 0 0 2.3-.6 1.9 1.9 0 0 0 .8-1.5 1.31 1.31 0 0 0 -.7-1.2 9.14 9.14 0 0 0 -2.3-.8 16.64 16.64 0 0 1 -3.4-1.1 3.74 3.74 0 0 1 -1.5-1.3 2.9 2.9 0 0 1 -.5-1.8 2.93 2.93 0 0 1 .4-1.6 4.49 4.49 0 0 1 1.1-1.3 4.58 4.58 0 0 1 1.4-.7 6.45 6.45 0 0 1 2-.3 8.21 8.21 0 0 1 2.8.5 4.07 4.07 0 0 1 1.8 1.2 5.12 5.12 0 0 1 .8 2.1l-2.2.3a2.36 2.36 0 0 0 -.9-1.6 3.17 3.17 0 0 0 -2-.6 4 4 0 0 0 -2.2.5 1.52 1.52 0 0 0 -.7 1.2 1.14 1.14 0 0 0 .3.8 3.49 3.49 0 0 0 .9.6 19.33 19.33 0 0 0 2 .6c1.6.4 2.7.8 3.3 1a4.43 4.43 0 0 1 1.5 1.2 3 3 0 0 1 .5 1.9 3.14 3.14 0 0 1 -.7 2.1 3.58 3.58 0 0 1 -1.9 1.5 6.36 6.36 0 0 1 -2.8.5 6.78 6.78 0 0 1 -4-1.1 3.8 3.8 0 0 1 -1.7-2.9z"/><path d="m1667.4 465.5v-2.2h8v7a13.39 13.39 0 0 1 -3.8 2.2 10.88 10.88 0 0 1 -4 .7 10.27 10.27 0 0 1 -5-1.2 7.46 7.46 0 0 1 -3.4-3.4 10.55 10.55 0 0 1 -1.2-5 11.25 11.25 0 0 1 1.2-5.1 7.51 7.51 0 0 1 3.3-3.5 10 10 0 0 1 5-1.2 8.73 8.73 0 0 1 3.7.7 6.35 6.35 0 0 1 2.6 1.8 8.1 8.1 0 0 1 1.4 3.1l-2.2.6a6.16 6.16 0 0 0 -1.1-2.3 4.2 4.2 0 0 0 -1.8-1.3 7.08 7.08 0 0 0 -2.6-.5 9.43 9.43 0 0 0 -3 .5 4.26 4.26 0 0 0 -2 1.4 7.61 7.61 0 0 0 -1.2 1.9 9.52 9.52 0 0 0 -.7 3.8 8.71 8.71 0 0 0 .9 4.2 5.5 5.5 0 0 0 2.5 2.5 8.53 8.53 0 0 0 3.5.8 9.06 9.06 0 0 0 3.2-.6 9.36 9.36 0 0 0 2.3-1.3v-3.5h-5.6z"/><path d="m1678.7 472.9v-13.6h2.1v2.1a4.46 4.46 0 0 1 1.5-1.9 2.69 2.69 0 0 1 1.5-.5 4.42 4.42 0 0 1 2.4.7l-.8 2.1a3.69 3.69 0 0 0 -1.7-.5 2.39 2.39 0 0 0 -1.4.5 2.54 2.54 0 0 0 -.9 1.3 7.66 7.66 0 0 0 -.4 2.7v7.1z"/><path d="m1686.7 466.1c0-2.5.7-4.4 2.1-5.6a6.44 6.44 0 0 1 4.3-1.5 6.18 6.18 0 0 1 4.6 1.8 6.9 6.9 0 0 1 1.8 5.1 9 9 0 0 1 -.8 4.1 5.12 5.12 0 0 1 -2.3 2.3 6.22 6.22 0 0 1 -3.3.8 6 6 0 0 1 -4.6-1.8c-1.3-1.2-1.8-2.9-1.8-5.2zm2.3 0a6 6 0 0 0 1.1 3.9 3.6 3.6 0 0 0 2.9 1.3 3.74 3.74 0 0 0 2.9-1.3 5.79 5.79 0 0 0 1.1-4 5.25 5.25 0 0 0 -1.2-3.8 3.88 3.88 0 0 0 -5.8 0c-.8.9-1 2.1-1 3.9z"/><path d="m1711.1 472.9v-2a5.1 5.1 0 0 1 -4.3 2.3 5.93 5.93 0 0 1 -2.3-.5 4 4 0 0 1 -1.6-1.2 4.36 4.36 0 0 1 -.7-1.7 12.84 12.84 0 0 1 -.1-2.2v-8.5h2.3v7.6a13.58 13.58 0 0 0 .1 2.4 2.3 2.3 0 0 0 .9 1.4 3.37 3.37 0 0 0 1.7.5 4.92 4.92 0 0 0 2-.5 2.43 2.43 0 0 0 1.3-1.5 6.68 6.68 0 0 0 .4-2.7v-7.3h2.3v13.6h-2z"/><path d="m1716.8 478.1v-18.9h2.1v1.8a6.37 6.37 0 0 1 1.7-1.6 4.13 4.13 0 0 1 2.3-.5 5.38 5.38 0 0 1 3.1.9 5 5 0 0 1 2 2.5 8.57 8.57 0 0 1 .7 3.6 9.21 9.21 0 0 1 -.8 3.8 5.62 5.62 0 0 1 -2.2 2.6 5.79 5.79 0 0 1 -3 .9 4.65 4.65 0 0 1 -2.1-.5 4.43 4.43 0 0 1 -1.5-1.2v6.6zm2.1-11.9a5.86 5.86 0 0 0 1.1 3.9 3.47 3.47 0 0 0 2.6 1.3 3.17 3.17 0 0 0 2.6-1.3 6.36 6.36 0 0 0 1.1-4 6.24 6.24 0 0 0 -1.1-3.9 3.17 3.17 0 0 0 -2.6-1.3 3.28 3.28 0 0 0 -2.6 1.4 5.86 5.86 0 0 0 -1.1 3.9z"/><path d="m1752.5 466.3 2.5.6a8.89 8.89 0 0 1 -2.8 4.7 7.69 7.69 0 0 1 -5 1.6 9.49 9.49 0 0 1 -5-1.2 7.52 7.52 0 0 1 -2.9-3.6 12.41 12.41 0 0 1 -1-5 11.3 11.3 0 0 1 1.1-5.1 6.85 6.85 0 0 1 3.2-3.3 9 9 0 0 1 4.6-1.1 8.25 8.25 0 0 1 4.8 1.4 7.56 7.56 0 0 1 2.7 4l-2.5.6a5.58 5.58 0 0 0 -1.9-3 5.17 5.17 0 0 0 -3.1-.9 5.89 5.89 0 0 0 -3.6 1 4.75 4.75 0 0 0 -2 2.8 11.33 11.33 0 0 0 -.6 3.6 10.88 10.88 0 0 0 .7 4.2 5.41 5.41 0 0 0 2.2 2.7 6.2 6.2 0 0 0 3.2.9 5.13 5.13 0 0 0 3.5-1.2 7.65 7.65 0 0 0 1.9-3.7z"/><path d="m1766.7 472.9v-2a5.1 5.1 0 0 1 -4.3 2.3 5.93 5.93 0 0 1 -2.3-.5 4 4 0 0 1 -1.6-1.2 4.36 4.36 0 0 1 -.7-1.7 12.84 12.84 0 0 1 -.1-2.2v-8.5h2.3v7.6a13.58 13.58 0 0 0 .1 2.4 2.3 2.3 0 0 0 .9 1.4 3.37 3.37 0 0 0 1.7.5 4.92 4.92 0 0 0 2-.5 2.43 2.43 0 0 0 1.3-1.5 6.38 6.38 0 0 0 .4-2.7v-7.3h2.3v13.6h-2z"/><path d="m1772.4 472.9v-13.6h2.1v2.1a4.46 4.46 0 0 1 1.5-1.9 2.69 2.69 0 0 1 1.5-.5 4.42 4.42 0 0 1 2.4.7l-.8 2.1a3.69 3.69 0 0 0 -1.7-.5 2.39 2.39 0 0 0 -1.4.5 2.54 2.54 0 0 0 -.9 1.3 7.66 7.66 0 0 0 -.4 2.7v7.1z"/><path d="m1781.1 472.9v-13.6h2.1v2.1a4.46 4.46 0 0 1 1.5-1.9 2.69 2.69 0 0 1 1.5-.5 4.42 4.42 0 0 1 2.4.7l-.8 2.1a3.69 3.69 0 0 0 -1.7-.5 2.39 2.39 0 0 0 -1.4.5 2.54 2.54 0 0 0 -.9 1.3 7.66 7.66 0 0 0 -.4 2.7v7.1z"/><path d="m1799.3 468.5 2.4.3a6.31 6.31 0 0 1 -2.1 3.3 7 7 0 0 1 -8.6-.6 7.15 7.15 0 0 1 -1.8-5.2 7.24 7.24 0 0 1 1.8-5.3 5.89 5.89 0 0 1 4.6-1.9 5.83 5.83 0 0 1 4.5 1.9 7.11 7.11 0 0 1 1.7 5.2v.6h-10.2a5 5 0 0 0 1.3 3.4 3.85 3.85 0 0 0 2.9 1.2 3.41 3.41 0 0 0 2.2-.7 5.14 5.14 0 0 0 1.3-2.2zm-7.6-3.7h7.6a4.72 4.72 0 0 0 -.9-2.6 3.47 3.47 0 0 0 -2.9-1.3 3.69 3.69 0 0 0 -2.7 1.1 3.61 3.61 0 0 0 -1.1 2.8z"/><path d="m1804.5 472.9v-13.6h2.1v1.9a4.89 4.89 0 0 1 4.3-2.2 5.87 5.87 0 0 1 2.3.4 3.09 3.09 0 0 1 1.5 1.2 4.36 4.36 0 0 1 .7 1.7 12.22 12.22 0 0 1 .1 2.2v8.4h-2.3v-8.3a5.84 5.84 0 0 0 -.3-2.1 2.13 2.13 0 0 0 -1-1.1 2.93 2.93 0 0 0 -1.6-.4 4.11 4.11 0 0 0 -2.6.9c-.7.6-1.1 1.8-1.1 3.6v7.5h-2.1z"/><path d="m1828.1 467.9 2.3.3a5.77 5.77 0 0 1 -1.9 3.7 5.49 5.49 0 0 1 -3.8 1.3 5.8 5.8 0 0 1 -4.5-1.8 7.56 7.56 0 0 1 -1.7-5.2 9.37 9.37 0 0 1 .7-3.9 5.37 5.37 0 0 1 2.2-2.5 6.22 6.22 0 0 1 3.3-.8 5.72 5.72 0 0 1 3.6 1.1 5.33 5.33 0 0 1 1.8 3.2l-2.2.3a4.22 4.22 0 0 0 -1.1-2.1 2.72 2.72 0 0 0 -2-.7 3.29 3.29 0 0 0 -2.8 1.3 7.82 7.82 0 0 0 0 8 3.49 3.49 0 0 0 2.8 1.2 3.57 3.57 0 0 0 2.3-.8 4.18 4.18 0 0 0 1-2.6z"/><path d="m1832.2 478.2-.3-2.2a6.88 6.88 0 0 0 1.3.2 2.13 2.13 0 0 0 1.2-.3 2.7 2.7 0 0 0 .8-.7 12.62 12.62 0 0 0 .7-1.7 3.93 3.93 0 0 1 .2-.6l-5.2-13.7h2.5l2.8 7.9a29.92 29.92 0 0 1 1 3.2 28.11 28.11 0 0 1 1-3.1l2.9-8h2.3l-5.2 13.9c-.6 1.5-1 2.5-1.3 3.1a4.91 4.91 0 0 1 -1.4 1.7 3 3 0 0 1 -1.9.5 11.48 11.48 0 0 1 -1.4-.2z"/><path d="m1658.6 504.5v-18.8h8.4a11.56 11.56 0 0 1 3.8.5 3.69 3.69 0 0 1 2.1 1.8 5.66 5.66 0 0 1 .8 2.8 4.67 4.67 0 0 1 -1.3 3.4 6.45 6.45 0 0 1 -4 1.7 4.89 4.89 0 0 1 1.5.9 18.4 18.4 0 0 1 2.1 2.5l3.3 5.1h-3.1l-2.5-3.9a27.33 27.33 0 0 0 -1.8-2.6 7.89 7.89 0 0 0 -1.3-1.3 9.74 9.74 0 0 0 -1.1-.5 4.92 4.92 0 0 0 -1.4-.1h-2.9v8.4h-2.6zm2.5-10.5h5.4a7 7 0 0 0 2.7-.4 3.46 3.46 0 0 0 1.5-1.1 2.62 2.62 0 0 0 .5-1.7 2.7 2.7 0 0 0 -1-2.2 4.42 4.42 0 0 0 -3.1-.9h-6z"/><path d="m1686.6 500.1 2.4.3a6.31 6.31 0 0 1 -2.1 3.3 7 7 0 0 1 -8.6-.6 7.15 7.15 0 0 1 -1.8-5.2 7.24 7.24 0 0 1 1.8-5.3 5.89 5.89 0 0 1 4.6-1.9 5.83 5.83 0 0 1 4.5 1.9 7.11 7.11 0 0 1 1.7 5.2v.6h-10.2a5 5 0 0 0 1.3 3.4 3.85 3.85 0 0 0 2.9 1.2 3.41 3.41 0 0 0 2.2-.7 4.32 4.32 0 0 0 1.3-2.2zm-7.6-3.7h7.6a4.72 4.72 0 0 0 -.9-2.6 3.47 3.47 0 0 0 -2.9-1.3 3.69 3.69 0 0 0 -2.7 1.1 4.5 4.5 0 0 0 -1.1 2.8z"/><path d="m1691.9 509.7v-18.9h2.1v1.8a6.37 6.37 0 0 1 1.7-1.6 4.13 4.13 0 0 1 2.3-.5 5.38 5.38 0 0 1 3.1.9 5 5 0 0 1 2 2.5 8.57 8.57 0 0 1 .7 3.6 9.21 9.21 0 0 1 -.8 3.8 5.62 5.62 0 0 1 -2.2 2.6 5.79 5.79 0 0 1 -3 .9 4.65 4.65 0 0 1 -2.1-.5 4.43 4.43 0 0 1 -1.5-1.2v6.6zm2.1-11.9a5.86 5.86 0 0 0 1.1 3.9 3.47 3.47 0 0 0 2.6 1.3 3.17 3.17 0 0 0 2.6-1.3 6.36 6.36 0 0 0 1.1-4 6.24 6.24 0 0 0 -1.1-3.9 3.17 3.17 0 0 0 -2.6-1.3 3.28 3.28 0 0 0 -2.6 1.4 5.86 5.86 0 0 0 -1.1 3.9z"/><path d="m1705.7 497.7c0-2.5.7-4.4 2.1-5.6a6.44 6.44 0 0 1 4.3-1.5 6.18 6.18 0 0 1 4.6 1.8 6.9 6.9 0 0 1 1.8 5.1 9 9 0 0 1 -.8 4.1 5.12 5.12 0 0 1 -2.3 2.3 6.22 6.22 0 0 1 -3.3.8 6 6 0 0 1 -4.6-1.8 7 7 0 0 1 -1.8-5.2zm2.4 0a6 6 0 0 0 1.1 3.9 3.6 3.6 0 0 0 2.9 1.3 3.74 3.74 0 0 0 2.9-1.3 5.79 5.79 0 0 0 1.1-4 5.25 5.25 0 0 0 -1.2-3.8 3.88 3.88 0 0 0 -5.8 0c-.8.9-1 2.1-1 3.9z"/><path d="m1721.2 504.5v-13.6h2.1v2.1a4.46 4.46 0 0 1 1.5-1.9 2.69 2.69 0 0 1 1.5-.5 4.42 4.42 0 0 1 2.4.7l-.8 2.1a3.69 3.69 0 0 0 -1.7-.5 2.39 2.39 0 0 0 -1.4.5 2.54 2.54 0 0 0 -.9 1.3 7.66 7.66 0 0 0 -.4 2.7v7.1z"/><path d="m1735 502.4.3 2a12.77 12.77 0 0 1 -1.7.2 4 4 0 0 1 -2-.4 2.4 2.4 0 0 1 -1-1 7.45 7.45 0 0 1 -.3-2.7v-7.9h-1.7v-1.8h1.7v-3.4l2.3-1.4v4.8h2.3v1.8h-2.3v8a3.81 3.81 0 0 0 .1 1.3.78.78 0 0 0 .4.4 1.55 1.55 0 0 0 .8.2 4.1 4.1 0 0 0 1.1-.1z"/><path d="m1736.3 500.4 2.3-.4a3.09 3.09 0 0 0 1.1 2.1 3.73 3.73 0 0 0 2.5.7 3.84 3.84 0 0 0 2.4-.6 1.9 1.9 0 0 0 .8-1.5 1.31 1.31 0 0 0 -.7-1.2 8.87 8.87 0 0 0 -2.4-.8 18.26 18.26 0 0 1 -3.5-1.1 3.18 3.18 0 0 1 -1.5-1.3 4.07 4.07 0 0 1 -.5-1.8 3.29 3.29 0 0 1 .4-1.7 6.89 6.89 0 0 1 1.1-1.3 5.23 5.23 0 0 1 1.5-.7 6.45 6.45 0 0 1 2-.3 7.78 7.78 0 0 1 2.8.5 3.52 3.52 0 0 1 1.8 1.3 4 4 0 0 1 .8 2.1l-2.3.3a2.36 2.36 0 0 0 -.9-1.6 3.28 3.28 0 0 0 -2.1-.6 4.35 4.35 0 0 0 -2.3.5 1.55 1.55 0 0 0 -.7 1.2 1.14 1.14 0 0 0 .3.8 2 2 0 0 0 .9.6 19.33 19.33 0 0 0 2 .6 19.21 19.21 0 0 1 3.4 1.1 3.64 3.64 0 0 1 1.5 1.2 3.94 3.94 0 0 1 .6 2 3.6 3.6 0 0 1 -.7 2.2 4.94 4.94 0 0 1 -1.9 1.6 6.53 6.53 0 0 1 -2.9.6 6.89 6.89 0 0 1 -4.1-1.1 6.44 6.44 0 0 1 -1.7-3.4z"/><path d="m1658.7 560.3v-19.8h7.5a21.13 21.13 0 0 1 3 .2 6.69 6.69 0 0 1 2.4.9 4.94 4.94 0 0 1 1.6 1.9 6 6 0 0 1 .6 2.7 6 6 0 0 1 -1.6 4.3c-1.1 1.2-3 1.7-5.8 1.7h-5.1v8h-2.6zm2.6-10.3h5.1a5.57 5.57 0 0 0 3.6-.9 3.39 3.39 0 0 0 1.1-2.7 3.7 3.7 0 0 0 -.6-2.1 3 3 0 0 0 -1.7-1.2 11.72 11.72 0 0 0 -2.4-.2h-5.1z"/><path d="m1688.1 558a7.91 7.91 0 0 1 -2.6 2 7.83 7.83 0 0 1 -3.1.7 6.25 6.25 0 0 1 -4.8-2 5.37 5.37 0 0 1 -1.4-3.7 5.16 5.16 0 0 1 1.2-3.3 11 11 0 0 1 3.5-2.6 12.21 12.21 0 0 1 -1.8-2.5 4.21 4.21 0 0 1 -.4-1.8 4.26 4.26 0 0 1 1.4-3.1 4.75 4.75 0 0 1 3.5-1.3 4.62 4.62 0 0 1 3.3 1.2 3.8 3.8 0 0 1 1.3 3c0 1.9-1.2 3.5-3.7 4.8l3.5 4.5a10.71 10.71 0 0 0 .9-2.7l2.5.5a13 13 0 0 1 -1.8 4.3 12.6 12.6 0 0 0 3.1 3l-1.6 1.9a16.15 16.15 0 0 1 -3-2.9zm-1.6-1.9-4.4-5.5a9.33 9.33 0 0 0 -2.7 2.2 3.25 3.25 0 0 0 -.7 2 4 4 0 0 0 1 2.5 3.1 3.1 0 0 0 2.7 1.3 4.35 4.35 0 0 0 2.3-.7 6.17 6.17 0 0 0 1.8-1.8zm-3.4-8.4a6.13 6.13 0 0 0 2-1.6 3 3 0 0 0 .5-1.5 2.52 2.52 0 0 0 -.6-1.7 1.91 1.91 0 0 0 -1.6-.6 2.22 2.22 0 0 0 -2.3 2.1 4.4 4.4 0 0 0 .2 1c.2.3.4.7.7 1.1z"/><path d="m1695.4 560.3v-19.8h2.6v17.5h9.7v2.3z"/><path d="m1711.1 560.3v-2.8h2.8v2.8a6.18 6.18 0 0 1 -.5 2.5 3.41 3.41 0 0 1 -1.7 1.4l-.7-1a2.17 2.17 0 0 0 1.1-1 4.49 4.49 0 0 0 .4-1.9z"/><path d="m1726 560.3v-19.8h7.4a9 9 0 0 1 3.6.6 4.63 4.63 0 0 1 2.1 1.8 5 5 0 0 1 .8 2.6 4.42 4.42 0 0 1 -.7 2.4 5.41 5.41 0 0 1 -2.1 1.8 5.47 5.47 0 0 1 2.8 1.8 4.91 4.91 0 0 1 1 3 5.83 5.83 0 0 1 -.6 2.6 5.37 5.37 0 0 1 -1.4 1.8 6.39 6.39 0 0 1 -2.2 1 14.49 14.49 0 0 1 -3.2.3h-7.5zm2.7-11.4h4.3a12.94 12.94 0 0 0 2.5-.2 2.38 2.38 0 0 0 1.5-1 3.14 3.14 0 0 0 0-3.4 2.56 2.56 0 0 0 -1.3-1 10.53 10.53 0 0 0 -3-.3h-3.9v5.9zm0 9.1h4.9a8.66 8.66 0 0 0 1.8-.1 5.27 5.27 0 0 0 1.5-.5 3.57 3.57 0 0 0 1-1.1 3.18 3.18 0 0 0 -1.8-4.7 10.68 10.68 0 0 0 -2.9-.3h-4.6v6.7z"/><path d="m1753.6 558.6a8.33 8.33 0 0 1 -2.6 1.6 7.63 7.63 0 0 1 -2.7.5 4.89 4.89 0 0 1 -3.6-1.2 3.88 3.88 0 0 1 -.8-4.8 3.48 3.48 0 0 1 1.3-1.4 6.53 6.53 0 0 1 1.7-.8c.5-.1 1.2-.2 2.2-.4a20.64 20.64 0 0 0 4.3-.8v-.6a2.54 2.54 0 0 0 -.7-2.1 4.25 4.25 0 0 0 -2.8-.8 3.14 3.14 0 0 0 -3.7 2.7l-2.4-.3a6.35 6.35 0 0 1 1.1-2.5 3.93 3.93 0 0 1 2.1-1.4 10.23 10.23 0 0 1 3.2-.5 8.72 8.72 0 0 1 3 .4 3.6 3.6 0 0 1 1.7 1.1 3.85 3.85 0 0 1 .8 1.7 12.22 12.22 0 0 1 .1 2.2v3.2a31.56 31.56 0 0 0 .2 4.3 4.92 4.92 0 0 0 .6 1.7h-2.5a5.34 5.34 0 0 1 -.5-1.8zm-.2-5.4a14 14 0 0 1 -4 .9 6.37 6.37 0 0 0 -2.1.5 2.54 2.54 0 0 0 -1 .8 1.68 1.68 0 0 0 -.3 1.2 2 2 0 0 0 .7 1.6 3.28 3.28 0 0 0 2.1.6 5.14 5.14 0 0 0 2.5-.6 3.75 3.75 0 0 0 1.6-1.7 5.19 5.19 0 0 0 .4-2.4v-.9z"/><path d="m1759.5 560.3v-19.8h2.4v19.8z"/><path d="m1775.1 558.6a8.33 8.33 0 0 1 -2.6 1.6 7.63 7.63 0 0 1 -2.7.5 4.89 4.89 0 0 1 -3.6-1.2 3.88 3.88 0 0 1 -.8-4.8 3.48 3.48 0 0 1 1.3-1.4 6.53 6.53 0 0 1 1.7-.8c.5-.1 1.2-.2 2.2-.4a20.64 20.64 0 0 0 4.3-.8v-.6a2.54 2.54 0 0 0 -.7-2.1 4.25 4.25 0 0 0 -2.8-.8 3.14 3.14 0 0 0 -3.7 2.7l-2.4-.3a6.35 6.35 0 0 1 1.1-2.5 4.58 4.58 0 0 1 2.1-1.4 10.23 10.23 0 0 1 3.2-.5 8.72 8.72 0 0 1 3 .4 3.6 3.6 0 0 1 1.7 1.1 3.85 3.85 0 0 1 .8 1.7 12.22 12.22 0 0 1 .1 2.2v3.2a31.56 31.56 0 0 0 .2 4.3 4.92 4.92 0 0 0 .6 1.7h-2.5a3.74 3.74 0 0 1 -.5-1.8zm-.2-5.4a14 14 0 0 1 -4 .9 6.37 6.37 0 0 0 -2.1.5 2.54 2.54 0 0 0 -1 .8 1.68 1.68 0 0 0 -.3 1.2 2 2 0 0 0 .7 1.6 3.28 3.28 0 0 0 2.1.6 5.14 5.14 0 0 0 2.5-.6 3.75 3.75 0 0 0 1.6-1.7 5.19 5.19 0 0 0 .4-2.4v-.9z"/><path d="m1781.1 560.3v-14.3h2.2v2a5.23 5.23 0 0 1 4.6-2.4 6 6 0 0 1 2.4.5 3.39 3.39 0 0 1 1.6 1.2 7.5 7.5 0 0 1 .8 1.8 13.58 13.58 0 0 1 .1 2.4v8.8h-2.4v-8.7a6.08 6.08 0 0 0 -.3-2.2 2.34 2.34 0 0 0 -1-1.2 3.06 3.06 0 0 0 -1.7-.4 3.94 3.94 0 0 0 -2.7 1c-.8.7-1.1 1.9-1.1 3.7v7.8z"/><path d="m1805.8 555.1 2.4.3a6.68 6.68 0 0 1 -2 3.9 5.6 5.6 0 0 1 -4 1.4 6 6 0 0 1 -4.7-1.9 7.75 7.75 0 0 1 -1.8-5.5 10.7 10.7 0 0 1 .8-4.1 5.34 5.34 0 0 1 2.3-2.6 6.65 6.65 0 0 1 3.4-.9 5.77 5.77 0 0 1 3.8 1.2 5.5 5.5 0 0 1 1.9 3.3l-2.4.4a3.64 3.64 0 0 0 -1.2-2.2 3.14 3.14 0 0 0 -2.1-.7 3.8 3.8 0 0 0 -3 1.3c-.8.9-1.1 2.3-1.1 4.2a6.81 6.81 0 0 0 1.1 4.2 3.47 3.47 0 0 0 2.9 1.3 3.41 3.41 0 0 0 2.4-.9 4.32 4.32 0 0 0 1.3-2.7z"/><path d="m1820 555.7 2.5.3a5.82 5.82 0 0 1 -2.2 3.4 6.65 6.65 0 0 1 -4.1 1.2 6.48 6.48 0 0 1 -5-1.9 9.1 9.1 0 0 1 .1-11 6.41 6.41 0 0 1 4.8-2 6.19 6.19 0 0 1 4.7 2 7.75 7.75 0 0 1 1.8 5.5v.6h-10.7a5.37 5.37 0 0 0 1.3 3.6 4.16 4.16 0 0 0 3 1.3 3.69 3.69 0 0 0 2.3-.7 4.41 4.41 0 0 0 1.5-2.3zm-8-3.9h8a4.79 4.79 0 0 0 -.9-2.7 3.89 3.89 0 0 0 -3-1.4 4.11 4.11 0 0 0 -2.8 1.1 4.6 4.6 0 0 0 -1.3 3z"/><path d="m1832.6 554 2.5-.2a5.23 5.23 0 0 0 .8 2.4 4.58 4.58 0 0 0 2 1.5 7.31 7.31 0 0 0 3 .6 6.77 6.77 0 0 0 2.6-.4 3.72 3.72 0 0 0 1.7-1.2 2.72 2.72 0 0 0 .6-1.7 2.77 2.77 0 0 0 -.5-1.6 4.07 4.07 0 0 0 -1.8-1.2c-.5-.2-1.7-.5-3.5-1a21.56 21.56 0 0 1 -3.8-1.2 6.25 6.25 0 0 1 -2.1-1.8 4.3 4.3 0 0 1 -.7-2.5 5.66 5.66 0 0 1 .8-2.8 5.58 5.58 0 0 1 2.5-2 10.48 10.48 0 0 1 3.6-.7 9.37 9.37 0 0 1 3.9.7 6.07 6.07 0 0 1 2.6 2.1 6.68 6.68 0 0 1 1 3.1l-2.5.2a3.81 3.81 0 0 0 -1.4-2.8 5.5 5.5 0 0 0 -3.4-1 5.64 5.64 0 0 0 -3.5.9 2.5 2.5 0 0 0 -.3 3.9c.5.5 1.8.9 3.9 1.4a24.69 24.69 0 0 1 4.4 1.3 5.18 5.18 0 0 1 2.5 2 5.12 5.12 0 0 1 .8 2.8 5.53 5.53 0 0 1 -.9 3 5.62 5.62 0 0 1 -2.6 2.2 9.21 9.21 0 0 1 -3.8.8 11.69 11.69 0 0 1 -4.5-.8 5.52 5.52 0 0 1 -2.8-2.4 7.59 7.59 0 0 1 -1.1-3.6z"/><path d="m1851.6 560.3v-19.8h2.4v7.1a5.5 5.5 0 0 1 4.3-2 6.09 6.09 0 0 1 2.8.6 4 4 0 0 1 1.7 1.7 8.53 8.53 0 0 1 .5 3.2v9.1h-2.4v-9.1a3.67 3.67 0 0 0 -.8-2.6 2.73 2.73 0 0 0 -2.2-.8 3.61 3.61 0 0 0 -2 .6 4 4 0 0 0 -1.4 1.5 6.16 6.16 0 0 0 -.4 2.6v7.8h-2.5z"/><path d="m1876.8 555.7 2.5.3a5.82 5.82 0 0 1 -2.2 3.4 6.65 6.65 0 0 1 -4.1 1.2 6.48 6.48 0 0 1 -5-1.9 9.1 9.1 0 0 1 .1-11 6.25 6.25 0 0 1 4.8-2 6.19 6.19 0 0 1 4.7 2 7.75 7.75 0 0 1 1.8 5.5v.6h-10.7a5.37 5.37 0 0 0 1.3 3.6 4.16 4.16 0 0 0 3 1.3 3.69 3.69 0 0 0 2.3-.7 4.41 4.41 0 0 0 1.5-2.3zm-8-3.9h8a4.79 4.79 0 0 0 -.9-2.7 4 4 0 0 0 -5.8-.3 4.6 4.6 0 0 0 -1.3 3z"/><path d="m1892.1 555.7 2.5.3a5.82 5.82 0 0 1 -2.2 3.4 6.65 6.65 0 0 1 -4.1 1.2 6.48 6.48 0 0 1 -5-1.9 9.1 9.1 0 0 1 .1-11 6.25 6.25 0 0 1 4.8-2 6.19 6.19 0 0 1 4.7 2 7.75 7.75 0 0 1 1.8 5.5v.6h-10.7a5.37 5.37 0 0 0 1.3 3.6 4.16 4.16 0 0 0 3 1.3 3.69 3.69 0 0 0 2.3-.7 4.41 4.41 0 0 0 1.5-2.3zm-7.9-3.9h8a4.79 4.79 0 0 0 -.9-2.7 4 4 0 0 0 -5.8-.3 4.16 4.16 0 0 0 -1.3 3z"/><path d="m1903 558.2.4 2.1a14.05 14.05 0 0 1 -1.8.2 3.52 3.52 0 0 1 -2-.4 2.66 2.66 0 0 1 -1-1.1 8.86 8.86 0 0 1 -.3-2.9v-8.2h-1.8v-1.9h1.8v-3.5l2.4-1.5v5h2.4v1.9h-2.4v8.4a3.81 3.81 0 0 0 .1 1.3 1 1 0 0 0 .4.5 1.88 1.88 0 0 0 .8.2c.2 0 .5-.1 1-.1z"/><path d="m1667.7 591.7a8.33 8.33 0 0 1 -2.6 1.6 7.63 7.63 0 0 1 -2.7.5 4.89 4.89 0 0 1 -3.6-1.2 3.88 3.88 0 0 1 -.8-4.8 3.48 3.48 0 0 1 1.3-1.4 6.53 6.53 0 0 1 1.7-.8c.5-.1 1.2-.2 2.2-.4a20.64 20.64 0 0 0 4.3-.8v-.6a2.54 2.54 0 0 0 -.7-2.1 4.25 4.25 0 0 0 -2.8-.8 3.14 3.14 0 0 0 -3.7 2.7l-2.4-.3a6.35 6.35 0 0 1 1.1-2.5 4.58 4.58 0 0 1 2.1-1.4 10.23 10.23 0 0 1 3.2-.5 8.72 8.72 0 0 1 3 .4 3.6 3.6 0 0 1 1.7 1.1 3.85 3.85 0 0 1 .8 1.7 12.22 12.22 0 0 1 .1 2.2v3.2a31.56 31.56 0 0 0 .2 4.3 4.92 4.92 0 0 0 .6 1.7h-2.5a5.34 5.34 0 0 1 -.5-1.8zm-.2-5.4a14 14 0 0 1 -4 .9 6.37 6.37 0 0 0 -2.1.5 2.54 2.54 0 0 0 -1 .8 1.68 1.68 0 0 0 -.3 1.2 2 2 0 0 0 .7 1.6 3.28 3.28 0 0 0 2.1.6 5.14 5.14 0 0 0 2.5-.6 3.75 3.75 0 0 0 1.6-1.7 5.19 5.19 0 0 0 .4-2.4v-.9z"/><path d="m1673.7 593.4v-14.3h2.2v2a5.23 5.23 0 0 1 4.6-2.4 6 6 0 0 1 2.4.5 3.39 3.39 0 0 1 1.6 1.2 7.5 7.5 0 0 1 .8 1.8 13.58 13.58 0 0 1 .1 2.4v8.8h-2.4v-8.7a6.08 6.08 0 0 0 -.3-2.2 2.34 2.34 0 0 0 -1-1.2 3.06 3.06 0 0 0 -1.7-.4 3.94 3.94 0 0 0 -2.7 1c-.8.7-1.1 1.9-1.1 3.7v7.8z"/><path d="m1698.3 593.4v-1.8a4.41 4.41 0 0 1 -4 2.1 5.74 5.74 0 0 1 -5.3-3.5 9.35 9.35 0 0 1 -.8-3.9 10 10 0 0 1 .7-3.9 5.82 5.82 0 0 1 2.1-2.7 6 6 0 0 1 3.2-.9 5.56 5.56 0 0 1 2.3.5 4.39 4.39 0 0 1 1.6 1.4v-7.1h2.4v19.8zm-7.6-7.1a6.08 6.08 0 0 0 1.2 4.1 3.62 3.62 0 0 0 2.7 1.4 3.23 3.23 0 0 0 2.7-1.3 6.36 6.36 0 0 0 1.1-4 6.94 6.94 0 0 0 -1.1-4.3 3.5 3.5 0 0 0 -2.8-1.4 3.23 3.23 0 0 0 -2.7 1.3 6.81 6.81 0 0 0 -1.1 4.2z"/><path d="m1726.5 586.5 2.6.7a8.12 8.12 0 0 1 -8.2 6.6 9.12 9.12 0 0 1 -5.2-1.3 8.25 8.25 0 0 1 -3-3.8 13.17 13.17 0 0 1 -1-5.3 11.33 11.33 0 0 1 1.2-5.4 8.2 8.2 0 0 1 3.4-3.5 9.77 9.77 0 0 1 4.8-1.2 8.24 8.24 0 0 1 5 1.5 7.86 7.86 0 0 1 2.8 4.2l-2.6.6a6 6 0 0 0 -2-3.1 5.18 5.18 0 0 0 -3.3-1 6.56 6.56 0 0 0 -3.8 1.1 5.63 5.63 0 0 0 -2.1 2.9 12.09 12.09 0 0 0 -.6 3.8 12 12 0 0 0 .7 4.4 5.41 5.41 0 0 0 2.3 2.8 6.65 6.65 0 0 0 3.4.9 5.24 5.24 0 0 0 3.7-1.3 6.78 6.78 0 0 0 1.9-3.6z"/><path d="m1741.3 591.7a8.33 8.33 0 0 1 -2.6 1.6 7.63 7.63 0 0 1 -2.7.5 4.89 4.89 0 0 1 -3.6-1.2 3.88 3.88 0 0 1 -.8-4.8 3.48 3.48 0 0 1 1.3-1.4 6.53 6.53 0 0 1 1.7-.8c.5-.1 1.2-.2 2.2-.4a20.64 20.64 0 0 0 4.3-.8v-.6a2.54 2.54 0 0 0 -.7-2.1 4.25 4.25 0 0 0 -2.8-.8 3.14 3.14 0 0 0 -3.7 2.7l-2.4-.3a6.35 6.35 0 0 1 1.1-2.5 4.58 4.58 0 0 1 2.1-1.4 10.23 10.23 0 0 1 3.2-.5 8.72 8.72 0 0 1 3 .4 3.6 3.6 0 0 1 1.7 1.1 3.85 3.85 0 0 1 .8 1.7 12.22 12.22 0 0 1 .1 2.2v3.2a31.56 31.56 0 0 0 .2 4.3 4.92 4.92 0 0 0 .6 1.7h-2.5a9.46 9.46 0 0 1 -.5-1.8zm-.2-5.4a14 14 0 0 1 -4 .9 6.37 6.37 0 0 0 -2.1.5 2.54 2.54 0 0 0 -1 .8 1.68 1.68 0 0 0 -.3 1.2 2 2 0 0 0 .7 1.6 3.28 3.28 0 0 0 2.1.6 5.14 5.14 0 0 0 2.5-.6 3.75 3.75 0 0 0 1.6-1.7 5.19 5.19 0 0 0 .4-2.4v-.9z"/><path d="m1746.4 589.2 2.4-.4a3.12 3.12 0 0 0 1.1 2.2 4 4 0 0 0 2.6.8 3.73 3.73 0 0 0 2.5-.7 2.25 2.25 0 0 0 .8-1.6 1.46 1.46 0 0 0 -.7-1.3 10.14 10.14 0 0 0 -2.5-.8 14.33 14.33 0 0 1 -3.7-1.2 3.64 3.64 0 0 1 -1.6-1.4 3.2 3.2 0 0 1 -.5-1.9 3.92 3.92 0 0 1 .4-1.8 4.14 4.14 0 0 1 2.7-2.1 7.11 7.11 0 0 1 2.1-.3 9.43 9.43 0 0 1 3 .5 4.57 4.57 0 0 1 1.9 1.3 4.81 4.81 0 0 1 .8 2.2l-2.4.3a2.59 2.59 0 0 0 -.9-1.7 3.4 3.4 0 0 0 -2.2-.6 3.84 3.84 0 0 0 -2.4.6 1.57 1.57 0 0 0 -.7 1.3 1.14 1.14 0 0 0 .3.8 1.46 1.46 0 0 0 .9.6c.2.1 1 .3 2.1.6 1.7.5 2.9.8 3.6 1.1a3.44 3.44 0 0 1 1.6 1.3 3.48 3.48 0 0 1 .6 2.1 3.89 3.89 0 0 1 -.7 2.3 5.51 5.51 0 0 1 -2 1.7 7.31 7.31 0 0 1 -3 .6 6.68 6.68 0 0 1 -4.3-1.2 4.73 4.73 0 0 1 -1.8-3.3z"/><path d="m1761.1 593.4v-19.8h2.4v7.1a5.5 5.5 0 0 1 4.3-2 6.09 6.09 0 0 1 2.8.6 4 4 0 0 1 1.7 1.7 6.9 6.9 0 0 1 .5 3.2v9.1h-2.4v-9.1a3.67 3.67 0 0 0 -.8-2.6 2.73 2.73 0 0 0 -2.2-.8 3.61 3.61 0 0 0 -2 .6 4 4 0 0 0 -1.4 1.5 6.16 6.16 0 0 0 -.4 2.6v7.8h-2.5z"/><path d="m1784.6 593.4v-19.8h13.3v2.3h-10.7v6.1h9.3v2.3h-9.3v9h-2.6z"/><path d="m1800.9 593.4v-19.8h2.4v19.8z"/><path d="m1806.2 586.3c0-2.6.7-4.6 2.2-5.9a6.37 6.37 0 0 1 4.5-1.6 6.18 6.18 0 0 1 4.8 1.9 7.62 7.62 0 0 1 1.9 5.3 10 10 0 0 1 -.8 4.3 6.42 6.42 0 0 1 -2.4 2.5 7 7 0 0 1 -3.5.9 6.55 6.55 0 0 1 -4.9-1.9 7.59 7.59 0 0 1 -1.8-5.5zm2.5 0a6.08 6.08 0 0 0 1.2 4.1 3.91 3.91 0 0 0 6 0 6.2 6.2 0 0 0 1.2-4.2 5.8 5.8 0 0 0 -1.2-4 3.91 3.91 0 0 0 -6 0 6.08 6.08 0 0 0 -1.2 4.1z"/><path d="m1825.1 593.4-4.4-14.3h2.5l2.3 8.3.8 3.1c0-.2.3-1.1.7-3l2.3-8.4h2.5l2.1 8.3.7 2.7.8-2.8 2.5-8.3h2.4l-4.5 14.3h-2.5l-2.3-8.6-.6-2.4-2.9 11h-2.4z"/></g><ellipse cx="1624" cy="390" fill="#151c25" rx="8" ry="7.8" stroke="#151c25" stroke-miterlimit="10" stroke-width="1.05"/><ellipse cx="1625.7" cy="471" fill="#151c25" rx="8" ry="7.9" stroke="#151c25" stroke-miterlimit="10" stroke-width="1.05"/><ellipse cx="1627.1" cy="556.2" fill="#151c25" rx="8" ry="7.9" stroke="#151c25" stroke-miterlimit="10" stroke-width="1.05"/><path d="m1534.9 669.2a25.17 25.17 0 0 1 -13.2 3.3q-116.1-.15-232.1-.1c-15.1 0-23.6-8.8-23.6-24.4v-115.6c0-15.1.1-30.4 0-45.5a39.68 39.68 0 0 1 1.9-13.3c5.4-10 13.8-13 24.7-12.9 76.2.3 152.2.1 228.4.1 14.1 0 23.1 8.9 23.1 23.2q0 82.95.1 165.7c0 8.4-3.3 14.5-9.3 19.5z" fill="#528035" transform="translate(0 1.6)"/><path d="m1534.9 669.2a25.17 25.17 0 0 1 -13.2 3.3q-116.1-.15-232.1-.1c-15.1 0-23.6-8.8-23.6-24.4v-115.6c0-15.1.1-30.4 0-45.5a39.68 39.68 0 0 1 1.9-13.3c5.4-10 13.8-13 24.7-12.9 76.2.3 152.2.1 228.4.1 14.1 0 23.1 8.9 23.1 23.2q0 82.95.1 165.7c0 8.4-3.3 14.5-9.3 19.5z" fill="none" stroke="#c2c2c2" stroke-miterlimit="10" stroke-width="2.06" transform="translate(0 1.6)"/><path d="m1301.9 567.3 3.6.9a12 12 0 0 1 -4.1 6.8 11.78 11.78 0 0 1 -7.3 2.3 12.8 12.8 0 0 1 -7.2-1.8 11 11 0 0 1 -4.2-5.2 18.13 18.13 0 0 1 -1.5-7.4 16 16 0 0 1 1.6-7.5 11.68 11.68 0 0 1 4.7-4.9 13.61 13.61 0 0 1 6.7-1.7 10.54 10.54 0 0 1 10.8 8l-3.6.8a8.41 8.41 0 0 0 -2.8-4.4 7.41 7.41 0 0 0 -4.6-1.4 9 9 0 0 0 -5.3 1.5 8.32 8.32 0 0 0 -3 4.1 16 16 0 0 0 -.9 5.3 16.26 16.26 0 0 0 1 6.1 7.74 7.74 0 0 0 3.2 3.9 8.54 8.54 0 0 0 4.7 1.3 7.83 7.83 0 0 0 5.2-1.8 7.2 7.2 0 0 0 3-4.9z" fill="#fff" transform="translate(0 1.6)"/><path d="m1308.3 567c0-3.7 1-6.4 3.1-8.2a9.14 9.14 0 0 1 6.3-2.2 8.89 8.89 0 0 1 6.7 2.7 10.42 10.42 0 0 1 2.6 7.4 12.24 12.24 0 0 1 -1.2 6 8.56 8.56 0 0 1 -3.4 3.4 10.05 10.05 0 0 1 -4.8 1.2 9.12 9.12 0 0 1 -6.8-2.7c-1.6-1.7-2.5-4.3-2.5-7.6zm3.5 0a8.43 8.43 0 0 0 1.7 5.7 5.59 5.59 0 0 0 8.4 0 8.73 8.73 0 0 0 1.7-5.8 8.32 8.32 0 0 0 -1.7-5.6 5.59 5.59 0 0 0 -8.4 0 8.43 8.43 0 0 0 -1.7 5.7z" fill="#fff" transform="translate(0 1.6)"/><path d="m1330.9 576.9v-19.9h3v2.8a7.2 7.2 0 0 1 6.3-3.3 8.81 8.81 0 0 1 3.3.6 5.15 5.15 0 0 1 2.3 1.7 6.26 6.26 0 0 1 1 2.5 21.61 21.61 0 0 1 .2 3.3v12.2h-3.4v-12.1a8.28 8.28 0 0 0 -.4-3.1 3.11 3.11 0 0 0 -1.4-1.6 4.75 4.75 0 0 0 -2.4-.6 5.49 5.49 0 0 0 -3.7 1.4c-1 .9-1.6 2.6-1.6 5.2v10.9z" fill="#fff" transform="translate(0 1.6)"/><path d="m1350.9 571 3.3-.5a4.68 4.68 0 0 0 1.6 3.1 5.52 5.52 0 0 0 3.6 1.1 5.31 5.31 0 0 0 3.4-.9 3 3 0 0 0 1.1-2.2 1.9 1.9 0 0 0 -1-1.8 13 13 0 0 0 -3.4-1.1 31.48 31.48 0 0 1 -5.1-1.6 5.1 5.1 0 0 1 -2.2-1.9 5 5 0 0 1 -.7-2.7 5.42 5.42 0 0 1 .6-2.5 5.19 5.19 0 0 1 1.7-1.9 6.85 6.85 0 0 1 2.1-1 9.25 9.25 0 0 1 2.9-.4 10.37 10.37 0 0 1 4.1.7 5.24 5.24 0 0 1 2.6 1.8 8 8 0 0 1 1.2 3.1l-3.3.4a3.59 3.59 0 0 0 -1.3-2.4 4.48 4.48 0 0 0 -3-.9 5.49 5.49 0 0 0 -3.3.8 2.12 2.12 0 0 0 -1 1.8 1.92 1.92 0 0 0 .4 1.2 2.54 2.54 0 0 0 1.3.9l3 .9a37.4 37.4 0 0 1 5 1.6 4.89 4.89 0 0 1 2.2 1.8 5.22 5.22 0 0 1 .8 2.9 5.5 5.5 0 0 1 -1 3.2 6.35 6.35 0 0 1 -2.8 2.3 10.84 10.84 0 0 1 -4.2.8c-2.6 0-4.6-.5-5.9-1.6a8.23 8.23 0 0 1 -2.7-5z" fill="#fff" transform="translate(0 1.6)"/><path d="m1370.2 567c0-3.7 1-6.4 3.1-8.2a9.14 9.14 0 0 1 6.3-2.2 8.89 8.89 0 0 1 6.7 2.7 10.42 10.42 0 0 1 2.6 7.4 12.24 12.24 0 0 1 -1.2 6 8.56 8.56 0 0 1 -3.4 3.4 10.05 10.05 0 0 1 -4.8 1.2 9.12 9.12 0 0 1 -6.8-2.7c-1.7-1.7-2.5-4.3-2.5-7.6zm3.4 0a8.43 8.43 0 0 0 1.7 5.7 5.59 5.59 0 0 0 8.4 0 8.73 8.73 0 0 0 1.7-5.8 8.32 8.32 0 0 0 -1.7-5.6 5.59 5.59 0 0 0 -8.4 0 8.43 8.43 0 0 0 -1.7 5.7z" fill="#fff" transform="translate(0 1.6)"/><path d="m1392.7 576.9v-27.5h3.4v27.5z" fill="#fff" transform="translate(0 1.6)"/><path d="m1401.3 553.3v-3.9h3.4v3.9zm0 23.6v-19.9h3.4v19.9z" fill="#fff" transform="translate(0 1.6)"/><path d="m1422.7 576.9v-2.5a6.21 6.21 0 0 1 -5.6 3 7.8 7.8 0 0 1 -4.4-1.3 8.71 8.71 0 0 1 -3.1-3.7 14.41 14.41 0 0 1 -.1-10.8 8 8 0 0 1 3-3.7 7.58 7.58 0 0 1 4.4-1.3 6.6 6.6 0 0 1 3.2.8 7.4 7.4 0 0 1 2.3 2v-9.8h3.4v27.5h-3.1zm-10.7-9.9c0 2.5.5 4.5 1.6 5.7a4.73 4.73 0 0 0 3.8 1.9 4.93 4.93 0 0 0 3.8-1.8c1-1.2 1.5-3 1.5-5.5 0-2.7-.5-4.7-1.6-6a4.78 4.78 0 0 0 -3.9-1.9 4.93 4.93 0 0 0 -3.8 1.8c-.9 1.2-1.4 3.1-1.4 5.8z" fill="#fff" transform="translate(0 1.6)"/><path d="m1444.1 574.4a10.92 10.92 0 0 1 -3.6 2.2 11.56 11.56 0 0 1 -3.7.7c-2.2 0-3.9-.5-5-1.6a5.24 5.24 0 0 1 -1.8-4.1 5 5 0 0 1 .7-2.7 4.51 4.51 0 0 1 1.7-1.9 6.59 6.59 0 0 1 2.4-1.1c.7-.2 1.7-.3 3-.5a25.9 25.9 0 0 0 6-1.2v-.9a3.52 3.52 0 0 0 -1-2.9 5.4 5.4 0 0 0 -3.8-1.1 6.22 6.22 0 0 0 -3.5.8 5.11 5.11 0 0 0 -1.7 2.9l-3.3-.4a8.19 8.19 0 0 1 1.5-3.4 6.61 6.61 0 0 1 3-2 12.51 12.51 0 0 1 4.5-.7 11.46 11.46 0 0 1 4.1.6 5.11 5.11 0 0 1 2.3 1.5 5.37 5.37 0 0 1 1 2.3 19.48 19.48 0 0 1 .2 3.1v4.5c0 3.1.1 5.1.2 5.9a5.91 5.91 0 0 0 .9 2.4h-3.5a7 7 0 0 1 -.6-2.4zm-.3-7.5a27.93 27.93 0 0 1 -5.5 1.3 9.24 9.24 0 0 0 -2.9.7 2.37 2.37 0 0 0 -1.3 1.1 3 3 0 0 0 -.5 1.6 2.7 2.7 0 0 0 1 2.2 4.48 4.48 0 0 0 3 .9 6.76 6.76 0 0 0 3.5-.9 4.88 4.88 0 0 0 2.2-2.3 7.86 7.86 0 0 0 .5-3.4z" fill="#fff" transform="translate(0 1.6)"/><path d="m1459.8 573.9.5 3a12.07 12.07 0 0 1 -2.5.3 5.3 5.3 0 0 1 -2.8-.6 4 4 0 0 1 -1.4-1.5 11.6 11.6 0 0 1 -.4-4v-11.4h-2.5v-2.7h2.5v-4.9l3.4-2v6.9h3.4v2.6h-3.4v11.6a6.57 6.57 0 0 0 .2 1.9 1.34 1.34 0 0 0 .6.7 2.17 2.17 0 0 0 1.2.2 7.5 7.5 0 0 0 1.2-.1z" fill="#fff" transform="translate(0 1.6)"/><path d="m1463.1 553.3v-3.9h3.4v3.9zm0 23.6v-19.9h3.4v19.9z" fill="#fff" transform="translate(0 1.6)"/><path d="m1470.4 567c0-3.7 1-6.4 3.1-8.2a9.14 9.14 0 0 1 6.3-2.2 8.89 8.89 0 0 1 6.7 2.7 10.42 10.42 0 0 1 2.6 7.4 12.24 12.24 0 0 1 -1.2 6 8.56 8.56 0 0 1 -3.4 3.4 10.05 10.05 0 0 1 -4.8 1.2 9.12 9.12 0 0 1 -6.8-2.7c-1.7-1.7-2.5-4.3-2.5-7.6zm3.4 0a8.43 8.43 0 0 0 1.7 5.7 5.59 5.59 0 0 0 8.4 0 8.73 8.73 0 0 0 1.7-5.8 8.32 8.32 0 0 0 -1.7-5.6 5.59 5.59 0 0 0 -8.4 0 8.43 8.43 0 0 0 -1.7 5.7z" fill="#fff" transform="translate(0 1.6)"/><path d="m1493 576.9v-19.9h3v2.8a7.2 7.2 0 0 1 6.3-3.3 8.81 8.81 0 0 1 3.3.6 5.15 5.15 0 0 1 2.3 1.7 6.26 6.26 0 0 1 1 2.5 21.61 21.61 0 0 1 .2 3.3v12.2h-3.4v-12.1a8.28 8.28 0 0 0 -.4-3.1 3.11 3.11 0 0 0 -1.4-1.6 4.75 4.75 0 0 0 -2.4-.6 5.49 5.49 0 0 0 -3.7 1.4c-1 .9-1.6 2.6-1.6 5.2v10.9z" fill="#fff" transform="translate(0 1.6)"/><path d="m1512.9 571 3.3-.5a4.68 4.68 0 0 0 1.6 3.1 5.52 5.52 0 0 0 3.6 1.1 5.31 5.31 0 0 0 3.4-.9 3 3 0 0 0 1.1-2.2 1.9 1.9 0 0 0 -1-1.8 13 13 0 0 0 -3.4-1.1 31.48 31.48 0 0 1 -5.1-1.6 5.1 5.1 0 0 1 -2.2-1.9 5 5 0 0 1 -.7-2.7 5.42 5.42 0 0 1 .6-2.5 5.19 5.19 0 0 1 1.7-1.9 6.85 6.85 0 0 1 2.1-1 9.25 9.25 0 0 1 2.9-.4 10.37 10.37 0 0 1 4.1.7 5.24 5.24 0 0 1 2.6 1.8 8 8 0 0 1 1.2 3.1l-3.3.4a3.59 3.59 0 0 0 -1.3-2.4 4.48 4.48 0 0 0 -3-.9 5.49 5.49 0 0 0 -3.3.8 2.12 2.12 0 0 0 -1 1.8 1.92 1.92 0 0 0 .4 1.2 2.54 2.54 0 0 0 1.3.9l3 .9a37.4 37.4 0 0 1 5 1.6 4.89 4.89 0 0 1 2.2 1.8 5.22 5.22 0 0 1 .8 2.9 5.5 5.5 0 0 1 -1 3.2 6.35 6.35 0 0 1 -2.8 2.3 10.84 10.84 0 0 1 -4.2.8c-2.6 0-4.6-.5-5.9-1.6a8.77 8.77 0 0 1 -2.7-5z" fill="#fff" transform="translate(0 1.6)"/><path d="m1615.2 673.4a326.62 326.62 0 0 1 275.9-1.5v202.8a468.42 468.42 0 0 1 -275.9-3z" fill="#b3b3b3" transform="translate(0 1.6)"/><path d="m1888.4 872.8a477.76 477.76 0 0 1 -270.7-3v-151.8a465.77 465.77 0 0 0 270.7 1.5z" fill="#2e74b4" transform="translate(0 1.6)"/><path d="m1617.9 696v-18.2a653.3 653.3 0 0 0 270.7-1.5v19.7a530.7 530.7 0 0 1 -270.7 0z" fill="#3075b5" transform="translate(0 1.6)"/><path d="m1617.9 715.1v-17.9a520 520 0 0 0 270.7 0v19.4a464.93 464.93 0 0 1 -270.7-1.5z" fill="#3075b5" transform="translate(0 1.6)"/><path d="m1888.5 673.4a656.68 656.68 0 0 1 -270.7 1.5 329.33 329.33 0 0 1 270.7-1.5z" fill="#2e74b4" transform="translate(0 1.6)"/><path d="m1680.8 787.6h8.5c5.8 0 9.8 2 9.8 7a6.28 6.28 0 0 1 -4.2 6.2v.2c3.4.7 5.8 2.9 5.8 6.8 0 5.6-4.5 8.4-10.8 8.4h-9.1zm7.8 12.2c4.9 0 6.9-1.8 6.9-4.7 0-3.3-2.3-4.6-6.7-4.6h-4.4v9.3zm.8 13.6c4.9 0 7.8-1.8 7.8-5.6 0-3.5-2.8-5.1-7.8-5.1h-5v10.8h5z" fill="#fff" transform="translate(0 1.6)"/><path d="m1703.3 787.6h3.8l3 15.6c.6 3.1 1.1 6.1 1.7 9.2h.2c.6-3.1 1.3-6.2 2-9.2l4-15.6h3.3l4 15.6c.7 3 1.4 6.1 2.1 9.2h.2c.6-3.1 1.1-6.2 1.6-9.2l3-15.6h3.5l-5.9 28.6h-4.4l-4.3-17.2c-.5-2.2-1-4.3-1.4-6.5h-.2c-.4 2.2-.9 4.3-1.4 6.5l-4.2 17.2h-4.3z" fill="#fff" transform="translate(0 1.6)"/><path d="m1749.2 787.6h7.2c8.8 0 13.5 5.1 13.5 14.2s-4.7 14.4-13.4 14.4h-7.3zm6.9 25.7c6.7 0 10-4.2 10-11.4s-3.3-11.2-10-11.2h-3.2v22.6z" fill="#fff" transform="translate(0 1.6)"/><path d="m1774.4 810.7c0-4.6 4-6.9 13-7.9 0-2.7-.9-5.4-4.4-5.4a11.4 11.4 0 0 0 -6.3 2.3l-1.4-2.5a15.16 15.16 0 0 1 8.3-2.8c5.2 0 7.4 3.4 7.4 8.7v13h-3l-.3-2.5h-.1c-2 1.7-4.4 3.1-7 3.1-3.6.1-6.2-2.1-6.2-6zm13 .4v-5.9c-7.1.9-9.5 2.6-9.5 5.3 0 2.4 1.6 3.4 3.7 3.4s3.7-1 5.8-2.8z" fill="#fff" transform="translate(0 1.6)"/><path d="m1797.7 809.7v-11.7h-3.2v-2.7l3.3-.2.4-5.9h3v5.9h5.7v2.9h-5.7v11.8c0 2.6.8 4.1 3.3 4.1a6.53 6.53 0 0 0 2.4-.6l.7 2.7a12.9 12.9 0 0 1 -3.9.8c-4.5 0-6-2.9-6-7.1z" fill="#fff" transform="translate(0 1.6)"/><path d="m1809.6 810.7c0-4.6 4-6.9 13-7.9 0-2.7-.9-5.4-4.4-5.4a11.4 11.4 0 0 0 -6.3 2.3l-1.4-2.5a15.16 15.16 0 0 1 8.3-2.8c5.2 0 7.4 3.4 7.4 8.7v13h-3l-.3-2.5h-.1c-2 1.7-4.4 3.1-7 3.1-3.6.1-6.2-2.1-6.2-6zm13 .4v-5.9c-7.1.9-9.5 2.6-9.5 5.3 0 2.4 1.6 3.4 3.7 3.4s3.7-1 5.8-2.8z" fill="#fff" transform="translate(0 1.6)"/><path d="m510.8 726.6a326.62 326.62 0 0 1 275.9-1.5v202.8a468.42 468.42 0 0 1 -275.9-3z" fill="#b3b3b3" transform="translate(0 1.6)"/><path d="m784.1 926.2a477.76 477.76 0 0 1 -270.7-3v-151.9a465.77 465.77 0 0 0 270.7 1.5z" fill="#2e74b4" transform="translate(0 1.6)"/><path d="m513.4 749.3v-18.2a653.3 653.3 0 0 0 270.7-1.5v19.7a530.7 530.7 0 0 1 -270.7 0z" fill="#3075b5" transform="translate(0 1.6)"/><path d="m513.4 768.3v-17.9a520 520 0 0 0 270.7 0v19.4a464.11 464.11 0 0 1 -270.7-1.5z" fill="#3075b5" transform="translate(0 1.6)"/><path d="m784.1 726.6a656.68 656.68 0 0 1 -270.7 1.5 329.33 329.33 0 0 1 270.7-1.5z" fill="#2e74b4" transform="translate(0 1.6)"/><path d="m594 803.4h7.8c5.1 0 8.7 1.8 8.7 7 0 5-3.6 7.4-8.7 7.4h-4.6v10.5h-3.2zm7.4 11.8c3.9 0 6-1.6 6-4.8s-2.1-4.4-6-4.4h-4.2v9.2zm-.2 1.7 2.5-1.6 7.6 13h-3.6z" fill="#fff" transform="translate(0 1.6)"/><path d="m613.6 819.1c0-6 4-9.7 8.3-9.7 4.7 0 7.4 3.4 7.4 8.7 0 .7-.1 1.3-.1 1.8h-12.4c.2 3.9 2.6 6.4 6.1 6.4a8.15 8.15 0 0 0 4.6-1.5l1.1 2a10.53 10.53 0 0 1 -6.1 1.9c-5 .1-8.9-3.5-8.9-9.6zm12.9-1.5c0-3.7-1.7-5.7-4.5-5.7-2.6 0-4.9 2.1-5.3 5.7z" fill="#fff" transform="translate(0 1.6)"/><path d="m632.4 819.1c0-6.2 4.2-9.7 8.9-9.7a7.67 7.67 0 0 1 5.4 2.2l-1.6 2.1a5.23 5.23 0 0 0 -3.7-1.6c-3.3 0-5.8 2.9-5.8 7.1s2.3 7.1 5.7 7.1a6.49 6.49 0 0 0 4.3-1.8l1.4 2.1a9 9 0 0 1 -6 2.3c-4.9-.1-8.6-3.7-8.6-9.8z" fill="#fff" transform="translate(0 1.6)"/><path d="m648.9 819.1c0-6 4-9.7 8.3-9.7 4.7 0 7.4 3.4 7.4 8.7 0 .7-.1 1.3-.1 1.8h-12.5c.2 3.9 2.6 6.4 6.1 6.4a8.15 8.15 0 0 0 4.6-1.5l1.1 2a10.53 10.53 0 0 1 -6.1 1.9c-4.9.1-8.8-3.5-8.8-9.6zm12.9-1.5c0-3.7-1.7-5.7-4.5-5.7-2.6 0-4.9 2.1-5.3 5.7z" fill="#fff" transform="translate(0 1.6)"/><path d="m669.1 809.9h2.6l.3 2.7h.1c1.8-1.7 3.7-3.1 6.2-3.1 3.9 0 5.6 2.5 5.6 7.2v11.7h-3.1v-11.4c0-3.4-1-4.9-3.5-4.9-1.9 0-3.2 1-5 2.8v13.4h-3.1v-18.4z" fill="#fff" transform="translate(0 1.6)"/><path d="m690.4 822.6v-10.2h-2.7v-2.4l2.9-.2.4-5.2h2.6v5.2h5v2.5h-5v10.3c0 2.3.7 3.6 2.9 3.6a5 5 0 0 0 2.1-.5l.6 2.4a9.83 9.83 0 0 1 -3.4.7c-4.1 0-5.4-2.5-5.4-6.2z" fill="#fff" transform="translate(0 1.6)"/><path d="m561 848.9h3.6l8.4 24.9h-3.4l-4.3-13.9c-.9-2.8-1.7-5.5-2.5-8.4h-.2c-.8 2.9-1.6 5.6-2.5 8.4l-4.4 13.9h-3.2zm-4 14.8h11.5v2.5h-11.5z" fill="#fff" transform="translate(0 1.6)"/><path d="m574.9 864.6c0-6.2 4.2-9.7 8.9-9.7a7.67 7.67 0 0 1 5.4 2.2l-1.6 2.1a5.23 5.23 0 0 0 -3.7-1.6c-3.3 0-5.8 2.9-5.8 7.1s2.3 7.1 5.7 7.1a6.49 6.49 0 0 0 4.3-1.8l1.4 2.1a9 9 0 0 1 -6 2.3c-4.9-.1-8.6-3.7-8.6-9.8z" fill="#fff" transform="translate(0 1.6)"/><path d="m604.4 875.1.1-3.3a8.41 8.41 0 0 1 -5.6 2.6c-4.6 0-7.6-3.5-7.6-9.7 0-6 3.8-9.7 8-9.7a7.86 7.86 0 0 1 5.3 2.2h.1l.3-1.8h2.5v26.2h-3.1zm0-6v-9.7a6.54 6.54 0 0 0 -4.5-1.9c-2.9 0-5.3 2.8-5.3 7 0 4.4 1.8 7.1 5.1 7.1 1.7.1 3.2-.8 4.7-2.5z" fill="#fff" transform="translate(0 1.6)"/><path d="m613.5 867.1v-11.7h3.1v11.3c0 3.4 1 4.9 3.5 4.9 1.9 0 3.2-.9 4.9-3.1v-13.1h3.1v18.4h-2.6l-.3-2.9h-.1c-1.7 2-3.6 3.3-6.1 3.3-3.7.1-5.5-2.4-5.5-7.1z" fill="#fff" transform="translate(0 1.6)"/><path d="m633.9 849.6a2 2 0 0 1 2.2-2 2.06 2.06 0 0 1 2.2 2 2.21 2.21 0 0 1 -4.4 0zm.5 5.8h3.1v18.4h-3.1z" fill="#fff" transform="translate(0 1.6)"/><path d="m641.7 871.7 1.5-2.1a8.19 8.19 0 0 0 5.4 2.2c2.4 0 3.6-1.3 3.6-2.9 0-1.9-2.2-2.7-4.2-3.5-2.6-.9-5.5-2.2-5.5-5.3s2.4-5.2 6.4-5.2a8.81 8.81 0 0 1 5.7 2.1l-1.5 2a7.28 7.28 0 0 0 -4.2-1.6c-2.3 0-3.4 1.2-3.4 2.6 0 1.8 2 2.4 4.1 3.2 2.7 1 5.6 2.1 5.6 5.6 0 3-2.4 5.5-6.7 5.5a11 11 0 0 1 -6.8-2.6z" fill="#fff" transform="translate(0 1.6)"/><path d="m659.1 849.6a2 2 0 0 1 2.2-2 2.06 2.06 0 0 1 2.2 2 2.21 2.21 0 0 1 -4.4 0zm.6 5.8h3.1v18.4h-3.1z" fill="#fff" transform="translate(0 1.6)"/><path d="m669.5 868.1v-10.2h-2.7v-2.4l2.9-.2.4-5.2h2.6v5.2h5v2.5h-5v10.3c0 2.3.7 3.6 2.9 3.6a5 5 0 0 0 2.1-.5l.6 2.4a9.83 9.83 0 0 1 -3.4.7c-4 0-5.4-2.5-5.4-6.2z" fill="#fff" transform="translate(0 1.6)"/><path d="m681.2 849.6a2 2 0 0 1 2.2-2 2.06 2.06 0 0 1 2.2 2 2 2 0 0 1 -2.2 2 2.06 2.06 0 0 1 -2.2-2zm.6 5.8h3.1v18.4h-3.1z" fill="#fff" transform="translate(0 1.6)"/><path d="m689.8 864.6c0-6.2 4-9.7 8.5-9.7s8.5 3.5 8.5 9.7-4 9.7-8.5 9.7-8.5-3.6-8.5-9.7zm13.9 0c0-4.2-2.1-7.1-5.3-7.1s-5.3 2.9-5.3 7.1 2.1 7.1 5.3 7.1 5.3-2.8 5.3-7.1z" fill="#fff" transform="translate(0 1.6)"/><path d="m711.7 855.4h2.6l.3 2.7h.1c1.8-1.7 3.7-3.1 6.2-3.1 3.9 0 5.6 2.5 5.6 7.2v11.7h-3.1v-11.3c0-3.4-1-4.9-3.5-4.9-1.9 0-3.2 1-5 2.8v13.4h-3.1v-18.5z" fill="#fff" transform="translate(0 1.6)"/><path d="m730.4 871.7 1.5-2.1a8.19 8.19 0 0 0 5.4 2.2c2.4 0 3.6-1.3 3.6-2.9 0-1.9-2.2-2.7-4.2-3.5-2.6-.9-5.5-2.2-5.5-5.3s2.4-5.2 6.4-5.2a8.81 8.81 0 0 1 5.7 2.1l-1.5 2a7.28 7.28 0 0 0 -4.2-1.6c-2.3 0-3.4 1.2-3.4 2.6 0 1.8 2 2.4 4.1 3.2 2.7 1 5.6 2.1 5.6 5.6 0 3-2.4 5.5-6.7 5.5a11 11 0 0 1 -6.8-2.6z" fill="#fff" transform="translate(0 1.6)"/><path d="m595.4 908.8a31.86 31.86 0 0 1 5-17.2l1.9.9a31.88 31.88 0 0 0 -4.4 16.3 30.93 30.93 0 0 0 4.4 16.3l-1.9.9a31.6 31.6 0 0 1 -5-17.2z" fill="#fff" transform="translate(0 1.6)"/><path d="m611.6 906.5-6.8-12h3.5l3.4 6.4c.6 1.1 1.2 2.2 1.9 3.6h.2c.7-1.4 1.2-2.5 1.8-3.6l3.3-6.4h3.3l-6.8 12.2 7.3 12.7h-3.5l-3.7-6.7c-.7-1.2-1.3-2.5-2.1-4h-.2c-.7 1.5-1.4 2.8-2 4l-3.6 6.7h-3.3z" fill="#fff" transform="translate(0 1.6)"/><path d="m634.3 894.5h14.4v2.7h-11.2v7.8h9.4v2.7h-9.4v9.1h11.5v2.7h-14.7z" fill="#fff" transform="translate(0 1.6)"/><path d="m654.3 894.5h7.8c5.1 0 8.7 1.8 8.7 7 0 5-3.6 7.4-8.7 7.4h-4.6v10.5h-3.2zm7.3 11.8c3.9 0 6-1.6 6-4.8s-2.1-4.4-6-4.4h-4.2v9.2zm-.2 1.7 2.5-1.6 7.6 13h-3.6z" fill="#fff" transform="translate(0 1.6)"/><path d="m675.9 894.5h7.1c5.6 0 9.3 1.9 9.3 7.3 0 5.2-3.7 7.7-9.2 7.7h-4.1v9.9h-3.2v-24.9zm6.8 12.4c4.4 0 6.4-1.6 6.4-5.1s-2.2-4.8-6.6-4.8h-3.5v9.9z" fill="#fff" transform="translate(0 1.6)"/><path d="m695.4 925.1a31.88 31.88 0 0 0 4.4-16.3 30.93 30.93 0 0 0 -4.4-16.3l1.9-.9a32.08 32.08 0 0 1 0 34.4z" fill="#fff" transform="translate(0 1.6)"/><ellipse cx="1041.4" cy="684.9" fill="#e1c87d" rx="53" ry="51.7"/><ellipse cx="1041.4" cy="684.9" fill="#c79a12" rx="48.9" ry="48.1"/><text fill="#fff" font-family="ArialMT, Arial" font-size="26.8" transform="translate(1006.38 676.01)">Stage</text><text fill="#fff" font-family="ArialMT, Arial" font-size="26.8" transform="translate(1033.98 708.21)">1</text><path d="m799.6 787.8v-19.5h6.7a15.59 15.59 0 0 1 3.5.3 7.13 7.13 0 0 1 2.9 1.4 8.56 8.56 0 0 1 2.3 3.3 13.44 13.44 0 0 1 .8 4.6 14.79 14.79 0 0 1 -.5 3.9 9.1 9.1 0 0 1 -1.3 2.8 7.69 7.69 0 0 1 -1.8 1.8 7 7 0 0 1 -2.3 1 14.82 14.82 0 0 1 -3.1.3h-7.2zm2.6-2.3h4.2a8 8 0 0 0 3-.4 4 4 0 0 0 1.7-1 5.47 5.47 0 0 0 1.4-2.5 13.46 13.46 0 0 0 .5-3.8 8.88 8.88 0 0 0 -1-4.7 5.52 5.52 0 0 0 -2.4-2.2 9.15 9.15 0 0 0 -3.3-.4h-4.1z" transform="translate(0 1.6)"/><path d="m828.2 786.1a7.35 7.35 0 0 1 -2.6 1.6 7.51 7.51 0 0 1 -2.6.5 5.52 5.52 0 0 1 -3.6-1.1 3.85 3.85 0 0 1 -1.2-2.9 4.14 4.14 0 0 1 .5-1.9 4.07 4.07 0 0 1 1.2-1.4 5.31 5.31 0 0 1 1.7-.8c.5-.1 1.2-.2 2.1-.4a22.11 22.11 0 0 0 4.3-.8v-.6a2.54 2.54 0 0 0 -.7-2.1 4.14 4.14 0 0 0 -2.7-.8 3.14 3.14 0 0 0 -3.7 2.7l-2.3-.3a6.67 6.67 0 0 1 1-2.4 4.58 4.58 0 0 1 2.1-1.4 10.23 10.23 0 0 1 3.2-.5 7.78 7.78 0 0 1 2.9.4 3.6 3.6 0 0 1 1.7 1.1 3.29 3.29 0 0 1 .7 1.6 11.62 11.62 0 0 1 .1 2.2v3.2a30.82 30.82 0 0 0 .2 4.2 4.92 4.92 0 0 0 .6 1.7h-2.5a5.84 5.84 0 0 1 -.4-1.8zm-.2-5.4a14.05 14.05 0 0 1 -3.9.9 6.37 6.37 0 0 0 -2.1.5 1.76 1.76 0 0 0 -.9.8 2 2 0 0 0 -.3 1.1 2 2 0 0 0 .7 1.6 3.28 3.28 0 0 0 2.1.6 5.42 5.42 0 0 0 2.5-.6 4.36 4.36 0 0 0 1.6-1.7 4.94 4.94 0 0 0 .4-2.4v-.8z" transform="translate(0 1.6)"/><path d="m839.3 785.7.3 2.1a14.05 14.05 0 0 1 -1.8.2 3.74 3.74 0 0 1 -2-.4 2.13 2.13 0 0 1 -1-1.1 8.54 8.54 0 0 1 -.3-2.8v-8.1h-1.8v-1.9h1.8v-3.5l2.4-1.4v4.9h2.4v1.9h-2.4v8.3a3.81 3.81 0 0 0 .1 1.3 1 1 0 0 0 .4.5 1.88 1.88 0 0 0 .8.2 3.59 3.59 0 0 1 1.1-.2z" transform="translate(0 1.6)"/><path d="m850.9 786.1a7.35 7.35 0 0 1 -2.6 1.6 7.51 7.51 0 0 1 -2.6.5 5.52 5.52 0 0 1 -3.6-1.1 3.85 3.85 0 0 1 -1.2-2.9 4.14 4.14 0 0 1 .5-1.9 4.07 4.07 0 0 1 1.2-1.4 5.31 5.31 0 0 1 1.7-.8c.5-.1 1.2-.2 2.1-.4a22.11 22.11 0 0 0 4.3-.8v-.6a2.54 2.54 0 0 0 -.7-2.1 4.14 4.14 0 0 0 -2.7-.8 3.14 3.14 0 0 0 -3.7 2.7l-2.3-.3a6.67 6.67 0 0 1 1-2.4 4.58 4.58 0 0 1 2.1-1.4 10.23 10.23 0 0 1 3.2-.5 7.78 7.78 0 0 1 2.9.4 3.6 3.6 0 0 1 1.7 1.1 3.29 3.29 0 0 1 .7 1.6 11.62 11.62 0 0 1 .1 2.2v3.2a30.82 30.82 0 0 0 .2 4.2 4.92 4.92 0 0 0 .6 1.7h-2.5a5.84 5.84 0 0 1 -.4-1.8zm-.2-5.4a14.05 14.05 0 0 1 -3.9.9 6.37 6.37 0 0 0 -2.1.5 1.76 1.76 0 0 0 -.9.8 2 2 0 0 0 -.3 1.1 2 2 0 0 0 .7 1.6 3.28 3.28 0 0 0 2.1.6 5.42 5.42 0 0 0 2.5-.6 4.36 4.36 0 0 0 1.6-1.7 4.94 4.94 0 0 0 .4-2.4v-.8z" transform="translate(0 1.6)"/><path d="m863.4 783.6 2.4-.4a3.33 3.33 0 0 0 1.1 2.2 3.94 3.94 0 0 0 2.5.8 3.29 3.29 0 0 0 2.4-.7 2.09 2.09 0 0 0 .8-1.6 1.46 1.46 0 0 0 -.7-1.3 8.87 8.87 0 0 0 -2.4-.8 17.56 17.56 0 0 1 -3.6-1.1 3.24 3.24 0 0 1 -1.5-1.3 3.83 3.83 0 0 1 -.5-1.9 3.29 3.29 0 0 1 .4-1.7 3.74 3.74 0 0 1 1.2-1.3 5.23 5.23 0 0 1 1.5-.7 6.65 6.65 0 0 1 2.1-.3 8.36 8.36 0 0 1 2.9.5 4.57 4.57 0 0 1 1.9 1.3 4.41 4.41 0 0 1 .8 2.2l-2.3.3a2.59 2.59 0 0 0 -.9-1.7 3.4 3.4 0 0 0 -2.2-.6 4.77 4.77 0 0 0 -2.4.5 1.46 1.46 0 0 0 -.7 1.3 1.14 1.14 0 0 0 .3.8 1.46 1.46 0 0 0 .9.6 17 17 0 0 0 2.1.6 30.64 30.64 0 0 1 3.5 1.1 4 4 0 0 1 1.6 1.3 3.17 3.17 0 0 1 .6 2 4.11 4.11 0 0 1 -.7 2.3 4.6 4.6 0 0 1 -2 1.6 8.24 8.24 0 0 1 -7.2-.5 6 6 0 0 1 -1.9-3.5z" transform="translate(0 1.6)"/><path d="m887.6 783.3 2.5.3a6.15 6.15 0 0 1 -2.2 3.4 6.55 6.55 0 0 1 -4 1.2 6.26 6.26 0 0 1 -4.9-1.9 7.57 7.57 0 0 1 -1.8-5.3 7.75 7.75 0 0 1 1.8-5.5 6.25 6.25 0 0 1 4.8-2 5.89 5.89 0 0 1 4.6 1.9 7.66 7.66 0 0 1 1.8 5.4v.6h-10.5a5.58 5.58 0 0 0 1.3 3.6 3.72 3.72 0 0 0 3 1.2 3.23 3.23 0 0 0 2.2-.7 4.42 4.42 0 0 0 1.4-2.2zm-7.8-3.9h7.9a4.79 4.79 0 0 0 -.9-2.7 3.89 3.89 0 0 0 -3-1.4 4.11 4.11 0 0 0 -2.8 1.1 3.92 3.92 0 0 0 -1.2 3z" transform="translate(0 1.6)"/><path d="m893.1 787.8v-14.1h2.2v2a5.09 5.09 0 0 1 4.5-2.3 5.56 5.56 0 0 1 2.3.5 4 4 0 0 1 1.6 1.2 3.59 3.59 0 0 1 .7 1.8 12.89 12.89 0 0 1 .1 2.3v8.7h-2.4v-8.6a6.08 6.08 0 0 0 -.3-2.2 2.34 2.34 0 0 0 -1-1.2 3.06 3.06 0 0 0 -1.7-.4 3.54 3.54 0 0 0 -2.6 1c-.7.6-1.1 1.9-1.1 3.7v7.7h-2.3z" transform="translate(0 1.6)"/><path d="m913.5 785.7.3 2.1a14.05 14.05 0 0 1 -1.8.2 3.74 3.74 0 0 1 -2-.4 2.13 2.13 0 0 1 -1-1.1 8.54 8.54 0 0 1 -.3-2.8v-8.1h-1.8v-1.9h1.8v-3.5l2.4-1.4v4.9h2.4v1.9h-2.5v8.3a3.81 3.81 0 0 0 .1 1.3 1 1 0 0 0 .4.5 1.88 1.88 0 0 0 .8.2 4.3 4.3 0 0 1 1.2-.2z" transform="translate(0 1.6)"/><path d="m923.9 787.8v-12.3h-2.1v-1.9h2.1v-1.5a5.48 5.48 0 0 1 .3-2.1 2.89 2.89 0 0 1 1.2-1.5 4.27 4.27 0 0 1 2.4-.6 18 18 0 0 1 2.2.2l-.4 2.1a7.08 7.08 0 0 0 -1.4-.1 2.07 2.07 0 0 0 -1.5.5 2.46 2.46 0 0 0 -.5 1.7v1.3h2.8v1.9h-2.8v12.3z" transform="translate(0 1.6)"/><path d="m930 780.8c0-2.6.7-4.5 2.2-5.8a6.78 6.78 0 0 1 4.4-1.6 6.48 6.48 0 0 1 4.8 1.9 7.4 7.4 0 0 1 1.8 5.3 10.3 10.3 0 0 1 -.8 4.3 5.08 5.08 0 0 1 -2.4 2.4 6.92 6.92 0 0 1 -3.4.9 6.18 6.18 0 0 1 -4.8-1.9 7.75 7.75 0 0 1 -1.8-5.5zm2.5 0a6.08 6.08 0 0 0 1.2 4.1 3.8 3.8 0 0 0 3 1.3 3.89 3.89 0 0 0 3-1.4 6.08 6.08 0 0 0 1.2-4.1 6 6 0 0 0 -1.2-4 4.11 4.11 0 0 0 -6 0 6.08 6.08 0 0 0 -1.2 4.1z" transform="translate(0 1.6)"/><path d="m946 787.8v-19.5h2.4v19.5z" transform="translate(0 1.6)"/><path d="m952 787.8v-19.5h2.4v19.5z" transform="translate(0 1.6)"/><path d="m957.3 780.8c0-2.6.7-4.5 2.2-5.8a6.78 6.78 0 0 1 4.4-1.6 6.48 6.48 0 0 1 4.8 1.9 7.4 7.4 0 0 1 1.8 5.3 10.3 10.3 0 0 1 -.8 4.3 5.08 5.08 0 0 1 -2.4 2.4 6.92 6.92 0 0 1 -3.4.9 6.18 6.18 0 0 1 -4.8-1.9 7.75 7.75 0 0 1 -1.8-5.5zm2.4 0a6.08 6.08 0 0 0 1.2 4.1 3.8 3.8 0 0 0 3 1.3 3.89 3.89 0 0 0 3-1.4 6.08 6.08 0 0 0 1.2-4.1 6 6 0 0 0 -1.2-4 4.11 4.11 0 0 0 -6 0 6.08 6.08 0 0 0 -1.2 4.1z" transform="translate(0 1.6)"/><path d="m975.9 787.8-4.3-14.1h2.5l2.2 8.1.8 3c0-.2.3-1.1.7-2.9l2.2-8.3h2.5l2.1 8.2.7 2.7.8-2.7 2.4-8.2h2.3l-4.4 14.1h-2.4l-2.2-8.5-.5-2.4-2.9 10.9h-2.5z" transform="translate(0 1.6)"/><path d="m992.9 771.1v-2.8h2.4v2.8zm0 16.7v-14.1h2.4v14.1z" transform="translate(0 1.6)"/><path d="m999 787.8v-14.1h2.2v2a5.09 5.09 0 0 1 4.5-2.3 5.56 5.56 0 0 1 2.3.5 4 4 0 0 1 1.6 1.2 3.59 3.59 0 0 1 .7 1.8 12.89 12.89 0 0 1 .1 2.3v8.7h-2.4v-8.6a6.08 6.08 0 0 0 -.3-2.2 2.34 2.34 0 0 0 -1-1.2 3.06 3.06 0 0 0 -1.7-.4 3.54 3.54 0 0 0 -2.6 1c-.7.6-1.1 1.9-1.1 3.7v7.7h-2.3z" transform="translate(0 1.6)"/><path d="m1013.7 789 2.3.3a2.72 2.72 0 0 0 .8 1.6 4.27 4.27 0 0 0 2.4.7 4 4 0 0 0 2.6-.7 3.47 3.47 0 0 0 1.2-1.9 17.58 17.58 0 0 0 .2-3.1 4.84 4.84 0 0 1 -3.9 1.8 5.41 5.41 0 0 1 -4.5-2.1 7.88 7.88 0 0 1 -1.6-5 9 9 0 0 1 .7-3.7 6.07 6.07 0 0 1 2.1-2.6 5.82 5.82 0 0 1 3.3-.9 5.11 5.11 0 0 1 4.1 2v-1.7h2.2v12.2a10.71 10.71 0 0 1 -.7 4.7 6.3 6.3 0 0 1 -2.1 2.2 8 8 0 0 1 -3.6.8 7.35 7.35 0 0 1 -4.1-1.1 3.93 3.93 0 0 1 -1.4-3.5zm2-8.5a6.48 6.48 0 0 0 1.1 4.1 3.41 3.41 0 0 0 2.8 1.3 3.54 3.54 0 0 0 2.8-1.3 5.79 5.79 0 0 0 1.1-4 6.24 6.24 0 0 0 -1.1-3.9 3.54 3.54 0 0 0 -2.8-1.3 3.23 3.23 0 0 0 -2.7 1.3c-.9.8-1.2 2.1-1.2 3.8z" transform="translate(0 1.6)"/><path d="m1037.4 787.8v-12.3h-2.1v-1.9h2.1v-1.5a5.48 5.48 0 0 1 .3-2.1 2.89 2.89 0 0 1 1.2-1.5 4.27 4.27 0 0 1 2.4-.6 18 18 0 0 1 2.2.2l-.4 2.1a7.08 7.08 0 0 0 -1.4-.1 2.07 2.07 0 0 0 -1.5.5 2.46 2.46 0 0 0 -.5 1.7v1.3h2.8v1.9h-2.8v12.3z" transform="translate(0 1.6)"/><path d="m1044.4 771.1v-2.8h2.4v2.8zm0 16.7v-14.1h2.4v14.1z" transform="translate(0 1.6)"/><path d="m1050.4 787.8v-14.1h2.2v2a5.09 5.09 0 0 1 4.5-2.3 5.56 5.56 0 0 1 2.3.5 4 4 0 0 1 1.6 1.2 3.59 3.59 0 0 1 .7 1.8 12.89 12.89 0 0 1 .1 2.3v8.7h-2.4v-8.6a6.08 6.08 0 0 0 -.3-2.2 2.34 2.34 0 0 0 -1-1.2 3.06 3.06 0 0 0 -1.7-.4 3.54 3.54 0 0 0 -2.6 1c-.7.6-1.1 1.9-1.1 3.7v7.7h-2.3z" transform="translate(0 1.6)"/><path d="m1074.8 786.1a7.35 7.35 0 0 1 -2.6 1.6 7.51 7.51 0 0 1 -2.6.5 5.52 5.52 0 0 1 -3.6-1.1 3.4 3.4 0 0 1 -1.2-2.9 4.14 4.14 0 0 1 .5-1.9 4.07 4.07 0 0 1 1.2-1.4 8.86 8.86 0 0 1 1.7-.8c.5-.1 1.2-.2 2.1-.4a22.11 22.11 0 0 0 4.3-.8v-.6a2.54 2.54 0 0 0 -.7-2.1 4.14 4.14 0 0 0 -2.7-.8 3.14 3.14 0 0 0 -3.7 2.7l-2.3-.3a6.67 6.67 0 0 1 1-2.4 4.58 4.58 0 0 1 2.1-1.4 10.23 10.23 0 0 1 3.2-.5 7.78 7.78 0 0 1 2.9.4 3.6 3.6 0 0 1 1.7 1.1 2.93 2.93 0 0 1 .7 1.6 11.62 11.62 0 0 1 .1 2.2v3.2a30.82 30.82 0 0 0 .2 4.2 4.92 4.92 0 0 0 .6 1.7h-2.5a5.84 5.84 0 0 1 -.4-1.8zm-.2-5.4a14.05 14.05 0 0 1 -3.9.9 6.37 6.37 0 0 0 -2.1.5 1.76 1.76 0 0 0 -.9.8 2 2 0 0 0 -.3 1.1 2 2 0 0 0 .7 1.6 3.28 3.28 0 0 0 2.1.6 5.42 5.42 0 0 0 2.5-.6 4.36 4.36 0 0 0 1.6-1.7 4.94 4.94 0 0 0 .4-2.4v-.8z" transform="translate(0 1.6)"/><path d="m1080.7 787.8v-14.1h2.2v2a5.09 5.09 0 0 1 4.5-2.3 5.56 5.56 0 0 1 2.3.5 4 4 0 0 1 1.6 1.2 3.59 3.59 0 0 1 .7 1.8 12.89 12.89 0 0 1 .1 2.3v8.7h-2.4v-8.6a6.08 6.08 0 0 0 -.3-2.2 2.34 2.34 0 0 0 -1-1.2 3.06 3.06 0 0 0 -1.7-.4 3.54 3.54 0 0 0 -2.6 1c-.7.6-1.1 1.9-1.1 3.7v7.7h-2.3z" transform="translate(0 1.6)"/><path d="m1105 782.7 2.4.3a6.13 6.13 0 0 1 -2 3.8 6 6 0 0 1 -3.9 1.4 6.11 6.11 0 0 1 -4.7-1.9 7.66 7.66 0 0 1 -1.8-5.4 9.83 9.83 0 0 1 .8-4 5.82 5.82 0 0 1 2.3-2.6 6.65 6.65 0 0 1 3.4-.9 6 6 0 0 1 3.8 1.2 5.5 5.5 0 0 1 1.9 3.3l-2.3.4a3.37 3.37 0 0 0 -1.2-2.1 2.88 2.88 0 0 0 -2-.7 3.47 3.47 0 0 0 -2.9 1.3c-.8.9-1.1 2.2-1.1 4.1a6.29 6.29 0 0 0 1.1 4.1 3.72 3.72 0 0 0 2.8 1.3 3.58 3.58 0 0 0 2.4-.9 3.7 3.7 0 0 0 1-2.7z" transform="translate(0 1.6)"/><path d="m1119.1 783.3 2.5.3a6.15 6.15 0 0 1 -2.2 3.4 6.55 6.55 0 0 1 -4 1.2 6.26 6.26 0 0 1 -4.9-1.9 7.57 7.57 0 0 1 -1.8-5.3 7.75 7.75 0 0 1 1.8-5.5 6.25 6.25 0 0 1 4.8-2 5.89 5.89 0 0 1 4.6 1.9 7.66 7.66 0 0 1 1.8 5.4v.6h-10.5a5.58 5.58 0 0 0 1.3 3.6 4.07 4.07 0 0 0 3 1.2 3.23 3.23 0 0 0 2.2-.7 5.23 5.23 0 0 0 1.4-2.2zm-7.9-3.9h7.9a4.79 4.79 0 0 0 -.9-2.7 3.89 3.89 0 0 0 -3-1.4 4.11 4.11 0 0 0 -2.8 1.1 4.31 4.31 0 0 0 -1.2 3z" transform="translate(0 1.6)"/><path d="m1141.3 782.7 2.4.3a6.13 6.13 0 0 1 -2 3.8 6 6 0 0 1 -3.9 1.4 6.11 6.11 0 0 1 -4.7-1.9 7.66 7.66 0 0 1 -1.8-5.4 9.83 9.83 0 0 1 .8-4 5.82 5.82 0 0 1 2.3-2.6 6.65 6.65 0 0 1 3.4-.9 6 6 0 0 1 3.8 1.2 5.5 5.5 0 0 1 1.9 3.3l-2.3.4a3.37 3.37 0 0 0 -1.2-2.1 2.88 2.88 0 0 0 -2-.7 3.47 3.47 0 0 0 -2.9 1.3c-.8.9-1.1 2.2-1.1 4.1a6.29 6.29 0 0 0 1.1 4.1 3.72 3.72 0 0 0 2.8 1.3 3.58 3.58 0 0 0 2.4-.9 3.7 3.7 0 0 0 1-2.7z" transform="translate(0 1.6)"/><path d="m1145.7 787.8v-19.5h2.4v19.5z" transform="translate(0 1.6)"/><path d="m1150.9 780.8c0-2.6.7-4.5 2.2-5.8a6.78 6.78 0 0 1 4.4-1.6 6.48 6.48 0 0 1 4.8 1.9 7.4 7.4 0 0 1 1.8 5.3 10.3 10.3 0 0 1 -.8 4.3 5.56 5.56 0 0 1 -2.4 2.4 6.92 6.92 0 0 1 -3.4.9 6.18 6.18 0 0 1 -4.8-1.9 7.75 7.75 0 0 1 -1.8-5.5zm2.5 0a6.08 6.08 0 0 0 1.2 4.1 3.8 3.8 0 0 0 3 1.3 3.89 3.89 0 0 0 3-1.4 6.08 6.08 0 0 0 1.2-4.1 6 6 0 0 0 -1.2-4 4.11 4.11 0 0 0 -6 0 6.08 6.08 0 0 0 -1.2 4.1z" transform="translate(0 1.6)"/><path d="m1166 783.6 2.4-.4a3.33 3.33 0 0 0 1.1 2.2 3.94 3.94 0 0 0 2.5.8 3.29 3.29 0 0 0 2.4-.7 2.09 2.09 0 0 0 .8-1.6 1.46 1.46 0 0 0 -.7-1.3 8.87 8.87 0 0 0 -2.4-.8 17.56 17.56 0 0 1 -3.6-1.1 3.24 3.24 0 0 1 -1.5-1.3 3.83 3.83 0 0 1 -.5-1.9 3.29 3.29 0 0 1 .4-1.7 3.74 3.74 0 0 1 1.2-1.3 5.23 5.23 0 0 1 1.5-.7 6.65 6.65 0 0 1 2.1-.3 8.36 8.36 0 0 1 2.9.5 4.57 4.57 0 0 1 1.9 1.3 4.41 4.41 0 0 1 .8 2.2l-2.3.3a2.59 2.59 0 0 0 -.9-1.7 3.4 3.4 0 0 0 -2.2-.6 4.77 4.77 0 0 0 -2.4.5 1.57 1.57 0 0 0 -.7 1.3 1.14 1.14 0 0 0 .3.8 1.46 1.46 0 0 0 .9.6 17 17 0 0 0 2.1.6 30.64 30.64 0 0 1 3.5 1.1 4 4 0 0 1 1.6 1.3 3.17 3.17 0 0 1 .6 2 4.11 4.11 0 0 1 -.7 2.3 4.6 4.6 0 0 1 -2 1.6 8.24 8.24 0 0 1 -7.2-.5 5.53 5.53 0 0 1 -1.9-3.5z" transform="translate(0 1.6)"/><path d="m1190.2 783.3 2.5.3a6.15 6.15 0 0 1 -2.2 3.4 6.55 6.55 0 0 1 -4 1.2 6.26 6.26 0 0 1 -4.9-1.9 7.57 7.57 0 0 1 -1.8-5.3 7.75 7.75 0 0 1 1.8-5.5 6.25 6.25 0 0 1 4.8-2 5.89 5.89 0 0 1 4.6 1.9 7.66 7.66 0 0 1 1.8 5.4v.6h-10.5a5.58 5.58 0 0 0 1.3 3.6 4.07 4.07 0 0 0 3 1.2 3.23 3.23 0 0 0 2.2-.7 5.23 5.23 0 0 0 1.4-2.2zm-7.9-3.9h7.9a4.79 4.79 0 0 0 -.9-2.7 3.89 3.89 0 0 0 -3-1.4 4.11 4.11 0 0 0 -2.8 1.1 4.31 4.31 0 0 0 -1.2 3z" transform="translate(0 1.6)"/><path d="m911.4 534.8 7.7-20h2.9l8.2 20h-3l-2.3-6.1h-8.4l-2.2 6.1zm5.8-8.2h6.8l-2.1-5.5c-.6-1.7-1.1-3.1-1.4-4.1a23.76 23.76 0 0 1 -1.1 3.8z" transform="translate(0 1.6)"/><path d="m941.4 534.8v-2.1a5.45 5.45 0 0 1 -4.6 2.5 6 6 0 0 1 -2.4-.5 4.34 4.34 0 0 1 -1.7-1.2 4.94 4.94 0 0 1 -.8-1.8 13.52 13.52 0 0 1 -.1-2.3v-9h2.5v8a16.39 16.39 0 0 0 .1 2.6 2.68 2.68 0 0 0 1 1.5 2.88 2.88 0 0 0 1.9.6 4.2 4.2 0 0 0 2.1-.6 4 4 0 0 0 1.4-1.5 7.22 7.22 0 0 0 .4-2.8v-7.8h2.5v14.5h-2.3z" transform="translate(0 1.6)"/><path d="m952.8 532.6.4 2.2a13.66 13.66 0 0 1 -1.9.2 4.14 4.14 0 0 1 -2.1-.4 2.59 2.59 0 0 1 -1-1.1 8.86 8.86 0 0 1 -.3-2.9v-8.3h-1.8v-1.9h1.8v-3.6l2.4-1.5v5.1h2.5v1.9h-2.5v8.5a4.55 4.55 0 0 0 .1 1.4 1 1 0 0 0 .4.5 1.88 1.88 0 0 0 .8.2 5.27 5.27 0 0 1 1.2-.3z" transform="translate(0 1.6)"/><path d="m954.3 527.5c0-2.7.7-4.7 2.2-6a7.19 7.19 0 0 1 9.5.4 7.27 7.27 0 0 1 1.9 5.4 10.48 10.48 0 0 1 -.8 4.4 6.42 6.42 0 0 1 -2.4 2.5 7 7 0 0 1 -3.5.9 6.48 6.48 0 0 1 -4.9-2 7.91 7.91 0 0 1 -2-5.6zm2.5 0a6.38 6.38 0 0 0 1.2 4.2 4 4 0 0 0 3.1 1.4 3.89 3.89 0 0 0 3-1.4 6.2 6.2 0 0 0 1.2-4.2 6.26 6.26 0 0 0 -1.2-4.1 3.89 3.89 0 0 0 -3-1.4 4.26 4.26 0 0 0 -3.1 1.4 6.08 6.08 0 0 0 -1.2 4.1z" transform="translate(0 1.6)"/><path d="m970.8 534.8v-14.5h2.2v2a5.81 5.81 0 0 1 1.8-1.7 5.54 5.54 0 0 1 2.6-.6 4 4 0 0 1 2.6.7 3.58 3.58 0 0 1 1.5 1.9 5.06 5.06 0 0 1 4.5-2.5 4.46 4.46 0 0 1 3.3 1.2 5 5 0 0 1 1.2 3.7v9.9h-2.5v-9.1a9.1 9.1 0 0 0 -.2-2.1 1.76 1.76 0 0 0 -.9-1 2.41 2.41 0 0 0 -1.5-.4 3.17 3.17 0 0 0 -2.5 1 4.5 4.5 0 0 0 -1 3.3v8.4h-2.5v-9.4a4.4 4.4 0 0 0 -.6-2.5 2.48 2.48 0 0 0 -2-.8 4.14 4.14 0 0 0 -1.9.5 3.44 3.44 0 0 0 -1.3 1.6 8 8 0 0 0 -.4 3v7.5h-2.4z" transform="translate(0 1.6)"/><path d="m1003.5 533a8.33 8.33 0 0 1 -2.6 1.6 7.63 7.63 0 0 1 -2.7.5 5.31 5.31 0 0 1 -3.7-1.2 4 4 0 0 1 -.8-4.9 3 3 0 0 1 1.3-1.4 4.94 4.94 0 0 1 1.8-.8c.5-.1 1.2-.2 2.2-.4a23.47 23.47 0 0 0 4.4-.8v-.6a2.54 2.54 0 0 0 -.7-2.1 3.91 3.91 0 0 0 -2.8-.8 4.54 4.54 0 0 0 -2.6.6 3.55 3.55 0 0 0 -1.2 2.1l-2.4-.3a5.76 5.76 0 0 1 1.1-2.5 5.34 5.34 0 0 1 2.2-1.5 10.42 10.42 0 0 1 3.3-.5 8.72 8.72 0 0 1 3 .4 4.54 4.54 0 0 1 1.7 1.1 3.85 3.85 0 0 1 .8 1.7 12.89 12.89 0 0 1 .1 2.3v3.3a31.56 31.56 0 0 0 .2 4.3 4.92 4.92 0 0 0 .6 1.7h-2.6a3.51 3.51 0 0 1 -.6-1.8zm-.2-5.5a14 14 0 0 1 -4 .9 6.37 6.37 0 0 0 -2.1.5 2.54 2.54 0 0 0 -1 .8 2.13 2.13 0 0 0 -.3 1.2 1.86 1.86 0 0 0 .7 1.6 3.39 3.39 0 0 0 2.2.7 5.14 5.14 0 0 0 2.5-.6 3.75 3.75 0 0 0 1.6-1.7 5.67 5.67 0 0 0 .4-2.5z" transform="translate(0 1.6)"/><path d="m1014.9 532.6.4 2.2a13.66 13.66 0 0 1 -1.9.2 4.14 4.14 0 0 1 -2.1-.4 2.59 2.59 0 0 1 -1-1.1 8.86 8.86 0 0 1 -.3-2.9v-8.3h-1.8v-1.9h1.8v-3.6l2.4-1.5v5.1h2.5v1.9h-2.5v8.5a4.55 4.55 0 0 0 .1 1.4 1 1 0 0 0 .4.5 1.88 1.88 0 0 0 .8.2 5.27 5.27 0 0 1 1.2-.3z" transform="translate(0 1.6)"/><path d="m1027.3 530.1 2.5.3a6.41 6.41 0 0 1 -2.2 3.5 6.86 6.86 0 0 1 -4.1 1.2 6.55 6.55 0 0 1 -5-2 7.79 7.79 0 0 1 -1.9-5.5 8 8 0 0 1 1.9-5.7 6.63 6.63 0 0 1 4.9-2 6.19 6.19 0 0 1 4.7 2 8 8 0 0 1 1.8 5.6v.7h-10.8a5.4 5.4 0 0 0 1.4 3.7 4.16 4.16 0 0 0 3 1.3 3.51 3.51 0 0 0 2.3-.7 6.18 6.18 0 0 0 1.5-2.4zm-8.1-3.9h8.1a4.79 4.79 0 0 0 -.9-2.7 4.15 4.15 0 0 0 -7.2 2.7z" transform="translate(0 1.6)"/><path d="m1042.3 534.8v-1.8a4.66 4.66 0 0 1 -4.1 2.2 5.28 5.28 0 0 1 -3.2-1 6.17 6.17 0 0 1 -2.3-2.7 10.52 10.52 0 0 1 -.1-7.8 5.41 5.41 0 0 1 2.2-2.7 6 6 0 0 1 3.2-.9 4.14 4.14 0 0 1 2.3.6 5.79 5.79 0 0 1 1.7 1.4v-7.2h2.4v20h-2.1zm-7.8-7.2a6.38 6.38 0 0 0 1.2 4.2 3.65 3.65 0 0 0 2.8 1.4 3.23 3.23 0 0 0 2.7-1.3 6.36 6.36 0 0 0 1.1-4 7.49 7.49 0 0 0 -1.1-4.4 3.65 3.65 0 0 0 -2.8-1.4 3.23 3.23 0 0 0 -2.7 1.3q-1.2 1.2-1.2 4.2z" transform="translate(0 1.6)"/><path d="m1056.6 534.8v-20h13.5v2.4h-10.8v6.2h9.4v2.4h-9.4v9.1h-2.7z" transform="translate(0 1.6)"/><path d="m1073.3 517.6v-2.8h2.5v2.8zm0 17.2v-14.5h2.5v14.5z" transform="translate(0 1.6)"/><path d="m1079.5 534.8v-14.5h2.2v2.1a5.23 5.23 0 0 1 4.6-2.4 6 6 0 0 1 2.4.5 3.39 3.39 0 0 1 1.6 1.2 4.94 4.94 0 0 1 .8 1.8 14.89 14.89 0 0 1 .1 2.4v8.9h-2.5v-8.8a6.08 6.08 0 0 0 -.3-2.2 2.34 2.34 0 0 0 -1-1.2 3.29 3.29 0 0 0 -1.7-.4 3.94 3.94 0 0 0 -2.7 1c-.8.7-1.1 1.9-1.1 3.8v7.9h-2.4z" transform="translate(0 1.6)"/><path d="m1104.5 533a8.33 8.33 0 0 1 -2.6 1.6 7.63 7.63 0 0 1 -2.7.5 5.31 5.31 0 0 1 -3.7-1.2 4 4 0 0 1 -.8-4.9 3 3 0 0 1 1.3-1.4 4.94 4.94 0 0 1 1.8-.8c.5-.1 1.2-.2 2.2-.4a23.47 23.47 0 0 0 4.4-.8v-.6a2.54 2.54 0 0 0 -.7-2.1 3.91 3.91 0 0 0 -2.8-.8 4.54 4.54 0 0 0 -2.6.6 3.55 3.55 0 0 0 -1.2 2.1l-2.4-.3a5.76 5.76 0 0 1 1.1-2.5 5.34 5.34 0 0 1 2.2-1.5 10.42 10.42 0 0 1 3.3-.5 8.72 8.72 0 0 1 3 .4 4.54 4.54 0 0 1 1.7 1.1 3.85 3.85 0 0 1 .8 1.7 12.89 12.89 0 0 1 .1 2.3v3.3a31.56 31.56 0 0 0 .2 4.3 4.92 4.92 0 0 0 .6 1.7h-2.6a2.79 2.79 0 0 1 -.6-1.8zm-.2-5.5a14 14 0 0 1 -4 .9 6.37 6.37 0 0 0 -2.1.5 2.54 2.54 0 0 0 -1 .8 2.13 2.13 0 0 0 -.3 1.2 1.86 1.86 0 0 0 .7 1.6 3.39 3.39 0 0 0 2.2.7 5.14 5.14 0 0 0 2.5-.6 3.75 3.75 0 0 0 1.6-1.7 5.67 5.67 0 0 0 .4-2.5z" transform="translate(0 1.6)"/><path d="m1110.6 534.8v-14.5h2.2v2.1a5.23 5.23 0 0 1 4.6-2.4 6 6 0 0 1 2.4.5 3.39 3.39 0 0 1 1.6 1.2 4.94 4.94 0 0 1 .8 1.8 14.89 14.89 0 0 1 .1 2.4v8.9h-2.5v-8.8a6.08 6.08 0 0 0 -.3-2.2 2.34 2.34 0 0 0 -1-1.2 3.29 3.29 0 0 0 -1.7-.4 3.94 3.94 0 0 0 -2.7 1c-.8.7-1.1 1.9-1.1 3.8v7.9h-2.4z" transform="translate(0 1.6)"/><path d="m1135.5 529.5 2.4.3a6.35 6.35 0 0 1 -10.8 3.4 8 8 0 0 1 -1.8-5.6 10.33 10.33 0 0 1 .8-4.1 4.73 4.73 0 0 1 2.4-2.6 8.25 8.25 0 0 1 3.5-.9 6.05 6.05 0 0 1 3.9 1.2 5.47 5.47 0 0 1 1.9 3.4l-2.4.4a3.64 3.64 0 0 0 -1.2-2.2 3.14 3.14 0 0 0 -2.1-.7 3.8 3.8 0 0 0 -3 1.3 6.2 6.2 0 0 0 -1.2 4.2 6.61 6.61 0 0 0 1.1 4.2 3.47 3.47 0 0 0 2.9 1.3 3.24 3.24 0 0 0 2.4-.9 3.8 3.8 0 0 0 1.2-2.7z" transform="translate(0 1.6)"/><path d="m1150 530.1 2.5.3a6.41 6.41 0 0 1 -2.2 3.5 6.86 6.86 0 0 1 -4.1 1.2 6.55 6.55 0 0 1 -5-2 7.79 7.79 0 0 1 -1.9-5.5 8 8 0 0 1 1.9-5.7 6.63 6.63 0 0 1 4.9-2 6.19 6.19 0 0 1 4.7 2 8 8 0 0 1 1.8 5.6v.7h-10.8a5.4 5.4 0 0 0 1.4 3.7 4.16 4.16 0 0 0 3 1.3 3.51 3.51 0 0 0 2.3-.7 6.18 6.18 0 0 0 1.5-2.4zm-8.1-3.9h8.1a4.79 4.79 0 0 0 -.9-2.7 4 4 0 0 0 -5.8-.3 4.71 4.71 0 0 0 -1.4 3z" transform="translate(0 1.6)"/><path d="m986.7 568.3 7.7-20h2.9l8.2 20h-3l-2.3-6.1h-8.4l-2.2 6.1zm5.8-8.2h6.8l-2.1-5.5c-.6-1.7-1.1-3.1-1.4-4.1a23.76 23.76 0 0 1 -1.1 3.8z" transform="translate(0 1.6)"/><path d="m1016.7 563 2.4.3a6.35 6.35 0 0 1 -10.8 3.4 8 8 0 0 1 -1.8-5.6 10.33 10.33 0 0 1 .8-4.1 4.73 4.73 0 0 1 2.4-2.6 7 7 0 0 1 3.5-.9 6.05 6.05 0 0 1 3.9 1.2 5.47 5.47 0 0 1 1.9 3.4l-2.4.4a3.64 3.64 0 0 0 -1.2-2.2 3.14 3.14 0 0 0 -2.1-.7 3.8 3.8 0 0 0 -3 1.3 6.2 6.2 0 0 0 -1.2 4.2 6.61 6.61 0 0 0 1.1 4.2 3.47 3.47 0 0 0 2.9 1.3 3.24 3.24 0 0 0 2.4-.9 4.26 4.26 0 0 0 1.2-2.7z" transform="translate(0 1.6)"/><path d="m1026.5 566.1.4 2.2a13.66 13.66 0 0 1 -1.9.2 4.14 4.14 0 0 1 -2.1-.4 2.59 2.59 0 0 1 -1-1.1 8.86 8.86 0 0 1 -.3-2.9v-8.3h-1.8v-1.9h1.8v-3.6l2.4-1.5v5.1h2.5v1.9h-2.5v8.5a4.55 4.55 0 0 0 .1 1.4 1 1 0 0 0 .4.5 1.88 1.88 0 0 0 .8.2 5.27 5.27 0 0 1 1.2-.3z" transform="translate(0 1.6)"/><path d="m1038.4 568.3v-2.1a5.45 5.45 0 0 1 -4.6 2.5 6 6 0 0 1 -2.4-.5 4.34 4.34 0 0 1 -1.7-1.2 4.94 4.94 0 0 1 -.8-1.8 13.52 13.52 0 0 1 -.1-2.3v-9h2.5v8a13.38 13.38 0 0 0 .2 2.6 2.68 2.68 0 0 0 1 1.5 2.88 2.88 0 0 0 1.9.6 4.2 4.2 0 0 0 2.1-.6 3.35 3.35 0 0 0 1.4-1.5 7.22 7.22 0 0 0 .4-2.8v-7.8h2.5v14.5h-2.4z" transform="translate(0 1.6)"/><path d="m1053.9 566.6a8.33 8.33 0 0 1 -2.6 1.6 7.63 7.63 0 0 1 -2.7.5 5.31 5.31 0 0 1 -3.7-1.2 4 4 0 0 1 -.8-4.9 3 3 0 0 1 1.3-1.4 4.94 4.94 0 0 1 1.8-.8c.5-.1 1.2-.2 2.2-.4a23.47 23.47 0 0 0 4.4-.8v-.6a2.54 2.54 0 0 0 -.7-2.1 3.91 3.91 0 0 0 -2.8-.8 4.54 4.54 0 0 0 -2.6.6 3.12 3.12 0 0 0 -1.2 2.1l-2.4-.3a5.76 5.76 0 0 1 1.1-2.5 5.34 5.34 0 0 1 2.2-1.5 10.42 10.42 0 0 1 3.3-.5 8.72 8.72 0 0 1 3 .4 4.54 4.54 0 0 1 1.7 1.1 3.85 3.85 0 0 1 .8 1.7 12.89 12.89 0 0 1 .1 2.3v3.3a31.56 31.56 0 0 0 .2 4.3 4.92 4.92 0 0 0 .6 1.7h-2.6a6.36 6.36 0 0 1 -.6-1.8zm-.2-5.5a14 14 0 0 1 -4 .9 6.37 6.37 0 0 0 -2.1.5 2.54 2.54 0 0 0 -1 .8 2.13 2.13 0 0 0 -.3 1.2 1.86 1.86 0 0 0 .7 1.6 3.39 3.39 0 0 0 2.2.7 5.14 5.14 0 0 0 2.5-.6 3.75 3.75 0 0 0 1.6-1.7 5.67 5.67 0 0 0 .4-2.5z" transform="translate(0 1.6)"/><path d="m1060 568.3v-20h2.5v20z" transform="translate(0 1.6)"/><path d="m1065.3 564 2.4-.4a3.12 3.12 0 0 0 1.1 2.2 4 4 0 0 0 2.6.8 3.56 3.56 0 0 0 2.5-.7 2.25 2.25 0 0 0 .8-1.6 1.36 1.36 0 0 0 -.7-1.3 10.14 10.14 0 0 0 -2.5-.8 19.81 19.81 0 0 1 -3.7-1.2 3.64 3.64 0 0 1 -1.6-1.4 3.2 3.2 0 0 1 -.5-1.9 3.92 3.92 0 0 1 .4-1.8 4.07 4.07 0 0 1 1.2-1.4 4.79 4.79 0 0 1 1.6-.7 7.61 7.61 0 0 1 2.1-.3 9.43 9.43 0 0 1 3 .5 4 4 0 0 1 1.9 1.3 4.81 4.81 0 0 1 .8 2.2l-2.4.3a2.59 2.59 0 0 0 -.9-1.7 3.59 3.59 0 0 0 -2.2-.6 3.84 3.84 0 0 0 -2.4.6 1.57 1.57 0 0 0 -.7 1.3 1.61 1.61 0 0 0 .3.9 2.18 2.18 0 0 0 .9.7 22 22 0 0 0 2.2.6c1.7.5 2.9.8 3.6 1.1a3.44 3.44 0 0 1 1.6 1.3 3.7 3.7 0 0 1 .6 2.1 3.89 3.89 0 0 1 -.7 2.3 5.1 5.1 0 0 1 -2.1 1.7 7.45 7.45 0 0 1 -3.1.6 6.68 6.68 0 0 1 -4.3-1.2 5.38 5.38 0 0 1 -1.8-3.5z" transform="translate(0 1.6)"/><path d="m875.9 542.3 46.4-.3" fill="none" stroke="#000" stroke-miterlimit="10" stroke-width="4"/><path d="m878 541v-94.4" fill="none" stroke="#000" stroke-miterlimit="10" stroke-width="4"/><path d="m879.8 447.8c-25.1.2-50.2.3-75.4.5" transform="translate(0 1.6)"/><path d="m838.1 430.2-16.8 9.8-16.8 9.8 16.9 9.7 16.9 9.6-.1-16.6 4.9-.1 36.8-.2-.1-5.6-36.7.2h-4.9z" fill="#202020"/><path d="m1227 588.3 18.3-9.8 18.3-9.7-18.3-9.8-18.3-9.7v16.7h-140.1v5.6h140.1z" fill="#202020"/><path d="m1368.1 719.5-9.8-17.1-4-6.9-5.8-10.2-5.9 10.2-4 6.9-10 17 16.9.1-.1 24.1-.2 43.1v11.2c0 .1 0 .1-.1.1h-28l-176 .4-352.1.5v5.7l352.1-.7 176-.4h33.6c.1 0 .1 0 .1-.1v-2.4l.1-12.6.2-44.9.1-24.1z" fill="#202020" transform="translate(0 1.6)"/><path d="m493.3 464.7 16.9-9.7 16.9-9.7-16.9-9.8-16.8-9.7v16.7l-79.3-.1v5.6l79.3.1z" fill="#202020"/><path d="m432.6 425.1-16.9 9.8-16.8 9.8 16.8 9.7 16.9 9.7v-16.7h79.3v-5.6h-79.3z" fill="#202020"/></svg>